<mxfile host="app.diagrams.net" modified="2022-12-12T07:57:45.758Z" agent="5.0 (Windows NT 10.0; Win64; x64) AppleWebKit/537.36 (KHTML, like Gecko) Chrome/108.0.0.0 Safari/537.36" etag="8kkVBx2CHimR4LbZ34US" version="20.6.2" type="github">
  <diagram id="XEp9QjO1VvLvOLRF7o4V" name="第 1 页">
    <mxGraphModel dx="2249" dy="892" grid="1" gridSize="10" guides="1" tooltips="1" connect="1" arrows="1" fold="1" page="1" pageScale="1" pageWidth="827" pageHeight="1169" math="0" shadow="0">
      <root>
        <mxCell id="0" />
        <mxCell id="1" parent="0" />
        <mxCell id="P79QQE4CSqo_MEbkqaJE-20" style="edgeStyle=orthogonalEdgeStyle;rounded=0;orthogonalLoop=1;jettySize=auto;html=1;" edge="1" parent="1" source="P79QQE4CSqo_MEbkqaJE-1" target="P79QQE4CSqo_MEbkqaJE-17">
          <mxGeometry relative="1" as="geometry" />
        </mxCell>
        <mxCell id="P79QQE4CSqo_MEbkqaJE-22" style="edgeStyle=orthogonalEdgeStyle;rounded=0;orthogonalLoop=1;jettySize=auto;html=1;" edge="1" parent="1" source="P79QQE4CSqo_MEbkqaJE-3" target="P79QQE4CSqo_MEbkqaJE-17">
          <mxGeometry relative="1" as="geometry" />
        </mxCell>
        <mxCell id="P79QQE4CSqo_MEbkqaJE-3" value="" style="shape=image;verticalLabelPosition=bottom;labelBackgroundColor=default;verticalAlign=top;aspect=fixed;imageAspect=0;image=data:image/png,iVBORw0KGgoAAAANSUhEUgAAAXMAAAClCAYAAACuqh0UAAAgAElEQVR4nO3dd2CURd7A8e+zvaX3kJDQS0A6KIKK5WiCylmwoNiOOw/19O68s5x6nt7Z66kIFhS7vCIIWA4VFJBepEhNIb237W3ePzYJgZDsBhLQZT5/QHZnn3mmPPvb2Xlmn0fpmtFdcILiEhKpLC870WwkSZKk46Q61QWQJEmSTpwM5pIkSWFABnNJkqQwIIO5JElSGJDBXJIkKQzIYC5JkhQGZDCXJEkKAzKYS5IkhQHNqS6AJJ1OevXu22b6/n17TlJJpHAjR+aSJElhQAZzSZKkMCCDuSRJUhiQc+aSdArpUwZy5hmZxDj38MXKfae6ONKvWNgGc0Evek77O5nmPfz86ZMU2ZRTXSRJOlLiOH5/+yTStAoir45vZTCXTsAvLpiL+FlM/MPNRFS8xRevvIJVOTIIZ0zfwKjeh5+zb5zF0i+2tMxIFYEpPo0Iow2jDrB1csHbW75TyNBjPDfPvIzhPRIxeCrI3fI5b76+hP3NPvDG3buYO0b5WfPkpTy9tv0fhEIkMPrWu7jhvL4kWLSo2Mc7t9zNogqlzfRPjdfx35emk97Q7z5XLaUHNrL8rXks3X+SOvEkie6fRReNnW3vPsl726ygyAGHdPx+ccG8iTj2ZdY91gKslaAYEjCbDa1urvi3sGPueHYEHnVKEY8l1PKdKkI7lFvv+yPnx4G7rgqHIYl+58/ifn0ts59Y1eLD83hpz7mZP108EJ3XRkVJBV4qsHpDTxeeeioq6sEST3L/C7j5YQt1f/gX39eFT8BTqdWAlYoSGcilE9fhwbxpZF3wAVsrhpGV1QV/+Xds/fRRCqr9iJTbmXzLDMzFc1k2bx42JjD6gX+RJr5j7WP3UNCYkS+S1Cnv0W/AkdsXLZ1GEWAYNZep44e03L9IpO8tSxnUpXEEWMb++ZPYlt/szRJ9PgMn/I5umelovBXUZi9i25dvUWkP8Q3VxvbBygcgjIPpM/FOevfogU7UUZ/7GduXz6OsYf/G3ncw/IIJxMfEovLXYCv4lp3LnqWg2htSept6DWdQnAK5H3HX3Qsoir6Yh1+8nt59BtOHVbhmzefRSfENL1Yz5m/LGAMI5yqeuPJJ1ikKIqI/02bdzKTBGURST+HOr5g/5wN+qjncfklpqegVhaKl/+C2+fsbng0hPaLhz+Ll/HP2O+SrE7nkn69x48ARjBmh5ftvvKiTx3D9rKs5t38qZm81uVuX8+Zrn/BzvYIQI7j7gwc5x7WCt5bEMPGKgUQ5Cti48DleWp6DV1FIGHUjt103jj4pUei8dZTsX8OHr85ldZE/UOvkMdww62rO6Z+KyVtJ9vrPmDfvcw46FET6tfz3pemk7f2U1/IGMf3cVPwFa5j/9It8X9y++7y4nC4gAr2pXZtJ0jF13mqW+Mn07xcLGDF2mcKIiZeia2W0fUxR4+nb/3i29+KuLcBamY/D5W+RKkRvsqY/Rr/ePdB6q/GoE4kb8EfGTr0kpPxPfPsoMqc+w+ABAzCo3fi1CcT0n8Xoiy9GKwRCfSGDpl1Hcnw0wlaMyx9JZPcrGDXteiwhpAdVb8MBENuDQV0MULWMh6+7imtufpHNioLHVU99vRWHJ5CX126lvt6K1erEAwgRyQV3PMgNY/sQq/Xg1sfR/azruOcPF2ARAu3Zd/DqnLk8PDkdgMQL7+XVOXN5dc69XBQdPL3ttgMhunH1/X9m6pB0jK5a6pUYeo2dyf2zL8DcvP76EUy7ojd6vwpTfA/OufkOpqSC0IzhxrumMTg9AlFbRq3PQtoZF3Pnny8nVYjD+Q/NwOKpw6FJoO8Fv+f+341C2zz/Lhdx5dmxqBQDsT0v4vc3XxBa+x9RHwFo0arbtZkkHVMnLk3cwuYXJrJ4zqtU+gWarkOIa8/myuaG7ee0a3tFqSJn4TSWvzyNLftcLV+QOI70BDWidhE/PDeZJS89Rn5tHaSOICGU7yknur3SDRO7Kdn7Nqufv4BFzz9DmV+g7TqCWABTCmYtUP0Jq56/lM+fmcXG1e+wL6ck0FnB0oM59CWLN9UhIofzuxc/ZMHLj3PXNaNJ1QQC0d75tzPjuunM3exHCA/rXrqKGddNZ8bNL7FZUUBJJ17Zx/aNC/n3TdO57qa57PQLzFmD6AVgiSUlJZWECC0AmohEUlJSSU6Ox6IJIb1RyiQeem0er7/zGjMHasG6gR82eiDzbEalaxD73mH29Tdw483PsLZeYB42kkHN62mys+qh67lx5n0sLxag6UHfflqITCDeAJQu4+GbbuGmmffy6sKFfL6tHC0czr/8Sx6ZeT0z71jAPp8g5sxzGHxEP+7kjVtmcOM9n5AvBMY+/ekRQvMLkcKIqZdx2bSrmTmuO/6a3ezOD6XjJKltnTdnbs2h1gnCmU29B2J1kejbMwJp2v7gkdu3HGy3jyky8KatyaXaC4pvKT++sLQhseU0y+gx57J29arj3r4FsZOivcUkjZ7EWXdfi1pRAtOlOmOgM+pWcejQjcR2vYJzbutPZUkONQVryNm6MjCfHSw9SPkVpZL//edu6n47nYvHDqVPlyzOvWoAQ7s9x+2PrqAm2Nyt2MuGdWWccdn5/PntS9GrGspv0GMEPF89zKVfQdo1L/Lfq7qT/8lsbn8393D7BEtPb/hLG0FCSgQ+Vx0lu1ey9M03WF2vQIYZM6D0msGcT2cEXqsCMGDUAE0zTUUcyvag+H5m/XcbSegFBVY9VG5gze7p9Oo/mfv/25sDeXnk7t3Eiq/XUaQoEBHIn7J8sj3gL8mj2Am9TBYimx+/Vfnk2cGbc4giP6QZTYHtgrQ/xNLnzNEM0ioIv41Dq7ZwyMnJPK0jhamTfwJUCI79ZbS150+tI9+IHSBuJqMmX0pk9VLWvfsJVs8ozrjpNpIakhXlEPve/i3lfc8npUtPLAmD6TH+UvoMfZMVr71KbbD0o6LCscqv+ErZ8PELbPgYDBmXcO9jt3DGiAmcG7OCxTVByp92OX+6bTzpxSt4/sGlFLmGcMNTNzCwY1qniTj0EbfPfoeCVj5c/DsWcM/bW5s9Y6W0lVMG2z96hO0NfyuKjc8euJVdI8cwuE8GaV37M/7GCVxywUfc86cFZHdoLVq2v6Ls4t37/soClYE+l97JLedN45ztj/NFYQfvWDrtdN40i6UbUQZQYnoQoQU8dbh8QG05ToCoDCI1oCR1I0oF1JdhD2X7Bl6fBwCtMRalPXOV9nrcANGZxGhAGH7DyNnLmXrnw6SqQ8gnxO1bLV9qbyJVIOr2UJa3m1oRialZL4ikKQwefxNdzQfYs+JxNnxwP9mVoEocTXJU8PRg1GfNZs68N3j5LxcSjcBRlEuZC8CIsdnQ0uXxACqMliNX5Cg9u5GuAlF5kO27DnCICGJO5u+I623YAFV8HOq8AxyosJB19ljOPiMdXQibi+4XcPNN0xkbk8Nn81/huUee4usi0GQOZ2ji4fxJTKe7FlTJGaQYAIeVOl/bebeH4neSV1gJmDAZOy5f6fTVeSNzZRjD7/yC4apY9CoFb/42KgHsqyk4NJuEjAmcfdcQPJp49Ais+76j9ogMhjPsWNs38BTsoM43goisf3JJ2m24fVDyzeVsPjSF0TfeQAygtugBLZnTFpHqdVKw7Gq253xLQfn1ZCVexti7zsKtisNo0OLev40qL8G/7paFtn2r5as8hA2wdLuLyX+eiVAr+ANxM8AdS/ywq4hVX06PsSW4VbGBIOvKp94KqIKkB+H9eT8llvEMGnMHrw26FpsqmliLgjd/IxuajQ6zc/Lwj+nN0Fnv8d71XvzFi7n3L++TX1BMKZByxq3MeftK/BrwuICTdRIvdy0bCi4nPX0K/55/NjZtFJF6QfGSDSwIZXtHNP0mTKGnZjIXXVFGvSqK+GjAXkhhFeBpzH8CD84fiU0bRZRaoWb9D2zr4KoYDAbAhdPZwRlLp6XOG1NVfc2evTUoOHEULmPz8kW4FQVFKWT/or/x8779uFRRqD2FlG99jDXfbEE0/0pdsZTdx9i+SfFcVi//ijq7QBOVhiUuHaNeBeooTLGHHyuKBl1UOubYNAw6UJR97PrwQfYeyMariUMrKqjc+SprFi/CGcJa35C3b618RW+z+ft1WJ0eFFUdRSveorj59EDVO6xb9AGllXUo5lSMOh/Oku/ZtfBZinxK8PRg5a/5imcfm8/qfaW4DdFEqurI3fQZTz/6DtnNPsmKl7zC2+tyqfNpMUdYsJj0gU/+A58w56MtFFs9qNV1bHnnE7Z7gu62wyhKNu8/9gxLt+Vj00agdxWzfekz/Gv+riOPn9YUfcozzy7mp8J61FFJxJv8VOWs56OnXmedV2mRv8lbyb6Vr/HYa+vwdPBacL1WB/jwneh5IEkClK4Z3U94qjouIZHK8jKg2Trz8jdY/uocbPLHEJLUpPn1zHWDb+ChawbgKdzOjm3rWbpyHzv37z2FpZN+zTpvZK6o5Al6SWqDa+tC3l+dizdhIKMGpqI/1QWSftV+uT/nl6Qwpyg2di15mV1Lmp44peWRft06PJgrFa/x5b9ea3ggD05JkqSTQd6cQpIkKQzIYC5JkhQG5Jy5JJ1E+/ftOdVFkMKUHJlLkiSFARnMJUmSwoAM5pIkSWFABnNJkqQwIIO5JElSGJDBvME1V1/Z6fl19D4kSZIaheXSRIGO5P6D6Z9Qx08rf6ayA36JGkogfv+Dj4/4+5qrrzziOUmSpM4SdsFcGFMZfs5Qkp02NAlgCL5JU9ANFnybpx392mMFexnIJUk6WcIumGPW4975Hcsru3DRxdFBX948KHfGaProIN/8sQz2kiR1lLAL5kpFDjsAEcKQvHngbvy7rYDeVmBuLd+2RvOSJEkdJeyCeSgag3BrgbUxoB/9mlCnWeR8uSRJJ9tpGcxDCbInGoibfyA0d/RzMuBLktQRTstgfrxCnWZpJKdYJEk6WeQ683ZonFNvPh/e/PHR2ppTlyRJ6kgymHeSY51cbdTaFIwkSdLxCttpFsW5j68XckpuXXd0IG/+f2uvkyRJOhFhG8w70rGC7tHB+lhpR/99rHwlSZI6gtI1o7s40UziEhKpLC/riPJIkiRJx0HOmUuSJIUBGcwlSZLCgAzmkiRJYUAGc0mSpDAgg7kkSVIYkMFckiQpDMhgLkmSFAZkMJckSQoDMph3EkEvekx7gwtm/JVU8wn/LqvD/dLL90thyDiXGX95nJkjD7dRxqV/5/5ZU8iKPrFLRYiIQVz78FwWLFzMopdnkilkP0jHT/6c/ygifhYT/3AzERVv8cUrr2A96touGdM3MKr34efsG2ex9IstLTNSRWCKTyPCaMOoA2ydXPD2CrF8QjWFsff/gxT3V/zw+AOUnIJr3XSGrpd/z8g+fg59ei4bfm5ZJyE0pE/4Kw/dOpp4jZ916w+naaIyGTFpDEPHjmXh44/wwU7rcZWh57Q/cMWQVITHSkVFHe7jrYwkIYN561oZJXmsBVgrQTEkYDa3fm86xb+FHXPHsyPwqFOKeCJ+6eU71bRZM7lv1mjifQWsen0O7/14OC170ZM8q/k9v5vSjyv/fhfFsx9hZU372zA+NgaAnfNv5R9L60/JReGk8BF2wbxpZF3wAVsrhpGV1QV/+Xds/fRRCqr9iJTbmXzLDMzFc1k2bx42JjD6gX+RJr5j7WP3UNCYkS+S1Cnv0W/AkdsXLZ1GEWAYNZep44e03L9IpO8tSxnURWl4XMb++ZPYlt/sjRp9PgMn/I5umelovBXUZi9i25dvUWkP/maOvuj/+M1ZXalbfS1ffrsPIfR0u/o7RvTykv9/57Nutxcl5kLOmHgrmV3T0fjKqNn7Hpu/+JgajxJS+XTdb+PMSb8l3lRLycoV0M5v/8J4Bn3Gz6ZXj+7oqKc+dwnbv3iT8sb6RZ3HwAk3kZmRjsZbSW32Z2z/esHh+gdJV6LHMXDCTWRkpKP1VVF74FO2frWAKoeCiL+FCbNmElHwEVsrhzEgKxVf+Uq2LXqcgmo/CRMWcd7wxIaSqsn47VoyAOFZwdrHH6RIURDCzLjLJ5Ki8rLzrQd5fmk5zT/wRF02q17/B+6o1/n7uaO4bFI3Vr6f275GAqw2G2BG+P3t3laSjha+c+bxk+nfLxYwYuwyhRETL0XXnjnJqPH07X8823tx1xZgrczH4Wr5JhWiN1nTH6Nf7x5ovdV41InEDfgjY6deElL+1fvW4xCCiG5nYRAClJEkpmvAt43i/Z5A/lc9Qp+e3dF4a/Cqk4kbfA/nTDoXRYjg5VOPZODUmSTHRqIIA4ljLyO+HbFGiCgyL36CQQOyMKjd+LXxxPS7hdGTJqIVAiF6kHXVP+nbqwdabw0edQJxA/7AmClT0YWU3ousqx6md49MNO5qPEocsQP+wNjJE9E0b7/4ifTvG4MQBoypkxkxYQo6IfB56nE76vB6A6/1uepwO+rw2O34mjbuTd/eOmAP61Ye+wJyiuLix+83YxeCrn2z2ndsEZjG0WkDYym93tiubSXpWMI3mLOFzS9MZPGcV6n0CzRdhxDXns2VzQ3bz2nX9opSRc7CaSx/eRpb9rlaviBxHOkJakTtIn54bjJLXnqM/No6SB1BQijfk/J+oMQBJA8nxQB0GU6CAUTBWordgfzTEjQN+R8uv77vhSSHUr64oSREgKhZxPfPTmTx+0txqUMoV1MDZGJS9lKy711WvziRz154nlK/QJsxnFiAxPNJS1AjahfzwwuX8vnLj5NfVwcpwwL1D5p+Hl3i1VA0ly+fu5Qlzz9MvkOg7TmGxCMKso0tL01lyWtzqfQL1OmB/qv65noWPzORzQf8COGhYOkEFj8zkcUvPUFp0zRHBBYj4K2luq6NulbXUAtgthAdYvMI7RjumDOXOW++y/0XxeCu2MTKTZXtaGBJOrZOn2YZPeZc1q5edfLTrTnUOkE4s6n3QKwuEn17glLT9geP3P5EvxGbItEC1ORS7QXFt5QfX1jakNhymqVF/cQmirLtZGYNIqmHlrK4YZgVhcoD3+NWlBb5i+rG8keFVn5jJDqA2lxqvOAvzaYesLTy8pbl20Xh3iISzprAWX+ajlpRAlPBWgNqAGNEQ/nyqPGC4vuCdS9+cbj+oaan3Mqke28NPKsCMKJt3r/WvKP634Iu5P5TAl0R8mBbafWsQ8vj00xccgopioIQHmqLDlJQ5Ueet5BOVKcH87YC8clIb0GIVt6jrT1/ah1dP0XxUHJgM/6ssSR2P4/k6B4IkUPJ/kJORUBo0f5xMxg1aSqR1ctZ/96nWD3DGXjj70nq4P36c+fx7bcbmj1jxeZr9eXt5MPvBxQN6raaVKUJfEDhw9vKS1r0n+crHrr0K4Q6jon3vcysYVdw1fmL2fF5W18BJCm48J1msXQjygBKTA8itICnDpcPqC3HCRCVQaQGlKRuRKmA+jLsoWzfwOvzAKA1xjbMRYfIXh9YghadSYwGhOE3jJy9nKl3PkyqOrR8vPt/pNwP+pQrSE9VQ+16ihqndu11eJrl31R+d+0R5W+Vo2GJXFQm0RpQJXUnIvTaQUpPIlUg6vZSduhnaonE1Pwoa6p/BtEaEIYLGXHbYqbc/o9A/YOlO+rxAKqoOJTyPVTXRRDf/3zSMrtyxBcvS9dA/0V3b+g/K+7m/ed1Ayq0x5yvrqKmFlCnkJbeelWNGV2IAbzV1bQ3FCu+Sg7m16EoKjQabTu3lqSWwm41SxNlGMPv/ILhqlj0KgVv/jYqAeyrKTg0m4SMCZx91xA8mnj0CKz7vgvMfzYZzrBjbd/AU7CDOt8IIrL+ySVpt+H2Qck3l7P50BRG33gDMYDaoge0ZE5bRKrXScGyq9me8y0F5deTlXgZY+86C7cqDqNBi3v/Nqq8hDa4tq+kpOivJHUZTIICrt1rqG6c7y1bSWHFTPolXMbYu8bg1QTK79z7LSWAMF3Sdvnyt1Fhhcjoyzjn7jH4hJZWh53HUlmAHTB3u5NJd81AqFX4PRweNpR/S2H5dUQlXsLYO89sqL8G94HtVHhDSC9bRWHldfSLv4JxfxqHVxODTiOwrl/DzqP6f9jtSximijlm/9WWZiOy+pMycSmXXOCBqoV88+brDb8r2MOmbTVMvDCDi667kK+fWEGl/8iOEaYsZlwyBA1edmzZjOc4lhWazYEPEqfj+NapS1Jz4Tsyr/qaPXtrUHDiKFzG5uWLcCsKilLI/kV/4+d9+3GpolB7Cinf+hhrvtmCaP6GrFjK7mNs36R4LquXf0WdXaCJSsMSl45RrwJ1FKbYw48VRYMuKh1zbBoGHSjKPnZ9+CB7D2Tj1cShFRVU7nyVNYsX4QwxIChKBYXZB1BUKsBGyb5NzdL2svPDB9l3MBevJgaNv4zKn57hhy++C9QvWPl869i5ZAElVfUIlZuKNR9S0p7zBMUL2PT9BqxON4qqjuJv3qGk2YhYUQ6y6+OH2XswB682Fq2ooGrXXNYuWdzQP8HS97Hro0fYl52HVxOF2l1I6cZH+OHb7Ueu065awZ69tSgqF46iL9j85ZIj+s+64Vm2783GLXTojJFo9bqmN4Oi+Nn04XzWV/uIGXU7Tz/1Vy7KOPytKXr4DB559mEmd9XgPPgxb39d1Y4GOsyg1wX+N7bru48kHVPY3QO0aZ15+Rssf3UONvlDjNNK0zrz8rf54rW5J9T/StIYZt0zm4t6GNnwzFSe+CGQV48b5vD0ZQmUrJvPU88vIdt5fPvoOv1FnpveDZXfTvWOj3jgwf+jSB6v0nEK42kWlVwfcDrrgP4Xpat59e71LBp8PpnN5uCqt37EE6s2sj6n/shvc+2U98lTvJF+L1eP6kJMfMMqIkk6TuEbzCWpAyiKh9LtX1Ha7KOh6qfvWBdIPLG8ffksf+o2lh/e2QnlJ53ewm6aRZIk6XQUvidAJUmSTiMymEuSJIWBsAnmcQmJwV8kSZIUpsImmEuSJJ3OZDCXJEkKAzKYS5IkhQEZzCVJksKADObSaUkQxWW/H88rfx3G2Khf4sWPAwwZ5zLjL48zc+TxlXHmezNPuAzB8jg6PdR9Hu92R8u49O/cP2sKWdGn94+u5C9AO4Ghx3hunnkZw3skYvBUkLvlc958fQn7bR13sI27dzF3jPKz5slLeXrtr+8gFqIPg+c9Rc/4PWy76a8cPI4bIp8QlY6kJAvpFjfx+vZvPv6P1/D3IYLvXn2fRzYfLvvEO67lb4MOPy779iuufK+83fkLoSF9wl956NbRxGv8rFt/OC3lpisYf4GZgjfeYUfXaUy8yELRW+/y9YojL285872ZzL92ftPfR2tMay396NeEav6184/Y97EES28uWH01UZmMmDSGoWPHsvDxR/hg5+l5FUoZzDuY0A7l1vv+yPlx4K6rwmFIot/5s7hfX8vsJ1Y1XGJVQpuOJRawFVJfzUm/r4biL2fOP/+POYFHHZavtaaOwlJQGc2kRB7/20ubNZP7Zo0m3lfAqtfn8N6P7dv+6GAZLHAeHdiPJ4i3NdJuK//mr2v8uz37z170JM9qfs/vpvTjyr/fRfHsR1h5sgcHvwAymHe0XsMZFKdA7kfcdfcCiqIv5uEXr6d3n8H0YRVVM17hucu7Uv/tI1z//Hr8WJj8r3e59Qwf6565mid+8JAw6kZuu24cfVKi0HnrKNm/hg9fncvqIj8DZs3n0UnxDTtTM+ZvyxgDCOcqnrjySdYpCurkMVw/62rO7Z+K2VtN7tblvPnaJ/xcr5B61Qu8fLWH75arGDHGwYfP/sCQO26iW/67PPTQYgpCCGxCRBJ/2c2cMX4E0fE6vKW7yXnnBXZuqEQIDd3+sZBhQ13k/edKNm1UiJrxKhdNS6P6g9+z4oshjHv7d8Q3fqhZLuSczy4EoHLBzXz3aduXhRApA5n/rzPIPLibl4pTuH6EBW9RHnPmrWdFGQiRygMvj+NC1wFe/p+RyyYnE+Wq48ela3jyuxrcGLnugd9ya3eloS42Pn38U146oByV/y6eL0jhhjMjEMV5zJm7nv+VweBrL+P5881N5Tn/thmcT+D2dA/etoYf3vmcH4DY31zEp1e1vL9SsPwDZTIz7vKJpKi87HzrQZ5fWk7zDxyvx4cQfnxOf8PfAm+zO48cPSI/nsB8tGMF5qOD8LFG5G09bvw7WFmD1VfUZbPq9X/gjnqdv587issmdWPl+7lH5CG6TOHR/9xEj5pl/Pvueez0hl+wl8G8o9XbcADE9mBQFwNF+ct4+LplgTRFQXy/loLfptNl8AiyWM8O3QgG9dWAZxsbN7oRmrHceNc0Bhu82CvLqDXEk3bGxdz55yqy7/4Ij6ue+noDGoMZo1bBa7fi8AEuJx5AiG5cff+fmZquxl1XRb0mhl5jZ3K/topZ//6moZDpjBiloI80csXtCegsRoyDLmV838W8saft6gkB0Vc8xDnX9ELlqcdpFxhSB9PnzllU3/wYBY4uWJJUQCn1BYHXW5ITEMKLtbgIEs6GkhJsxhjM0QZ8tkocdW7ATWVOKSGPkpN7cG2KD4GG+O69+PO1FWx69gDVjem6NK6drOD3K1hiYrnw6rPI3v0F75cK6qsDo2d9ZCRxhtby78n1KX5Uipbobr340/Qy1r+Qjdflps6qQaPXYdIquB0unD7A7Q3c4SlUreRfpyhAb/r21gE7WbeyrEWb2GtdgBZHncBe6wQMOGoP30f06ODY1lx0sBF5Wx8Mx3q+eUA/Vn7BynasD41g9QVQFBc/fr8Z+zkX0LVvFjqRc8T1640DRzAwSouIHMGQ9HnszGm1SX61ZDDvaIe+ZPGmSdw2fDi/e/FDrinay5Y1S/jo4zUUeRXIXcW6/Kv4bfpQRvSGXTHDGKgD77YNrHMAcQnEG4DSZTz8u3ns0/VjwvQzSaIcLbB3/u3MmH94znzdS1cdnjNXFMg4m1HpGsS+t5l9zyeUGcfyt3l/41FU+GQAABizSURBVKxhIxnENwTGK4J1L99F1fWvMeXQm9yVdwVzZqRhDuUeCerh9JraC5V3Lzv+dA97S/sx5NXH6ZGQQUwqFGR3wZwIeEuxlgIkYUnWAcXYCv0o2R+z8raPsVz9IhOu7Ibty4f5+t3GUVQ7RktKGf+9ZxUrLVm8/J8h9OuZRBYHWN2YbnTzv8eW8nJ+HH96ZDyXJsaS1UOFUuZiySufswQ473dX8dDI1vN/+Z5VrEoYxOsPDSSzeyK9yGbzwmVMXdg4Z+5n9VsfH54zb88UWmv5AxCBxQh4a6mua9kstiXLeHsJgYSdX/D2Ulq8qLUpjsa0YKP15tMdoY7ujzVdcqxpk/aWLZT6AlBdQy1gNFuIBpp/x3Os/5qvxsXRq/pLVuUFrcqvUqcH85Z3Jw/vdEWp5H//uZu6307n4rFD6dMli3OvGsDQbs9x+6MrqFHy+f7HXC7v2o0hI7uxJeoMjPjZsXENdkWByg2s2T2dXv0nc/9/e3MgL4/cvZtY8fW60G5cEGHGDCi9ZjDn0xmBMqkADBibetuN1+PC4wWPy43L2477wqX3JdYC5G2lsMgP+BpuhF2PqwZI6oJFCxQXY/UBpBKRAIhSrPnNipmUiBB+bKWFoe+7udoash3gd9RQ6IJ+Bj2RaqDp27eVnEN+FF8Fq38sJKkbHHJoINTxc20NBx3gPVRDoR8yDbr23Qv1hPJXArHqOBfZhDIiD6a9UzPBpldaK9uxyng88+ZHUlqEeqV6Na/+bXVTejjq9GDeViAM13TFV8qGj19gw8dgyLiEex+7hTNGTODcmBUsroG8H9aRf2UmaVnjOdMSC/6f2bS2Fgjc1u6zB25l18gxDO6TQVrX/oy/cQKXXPAR9/xpATkhHoj+HQu45+2tzZ6xUuqFyJC2bkOXFMyAv6QIGwROZMYBjmLqKoGhyZgByooDNzmOSsNiAaqKqHMDSmDO3ZJkAmqwlTQ82Yk2f76yYcT7a+HD7wcUDerjaJqOmCMPxdEj7FCmTFqbdmm+zXGXX6VpuKm3r123rQ0Xcp15B1OfNZs5897g5b9cSDQCR1EuZS4AI8bG82aHVrI2D5Tu4xjbBUTORtY13EZSdL+Am2+aztiYHD6b/wrPPfIUXxeBJnM4Q5tdS8zlCdwl2Wg5atK33oYNUMXHoc47wIEKC1lnj+XsM9LbdScbET+a2554mWfvu5Ru6sNDRG1kBGpFAZUaNaA7azixKvBn76UKQK9HDQi1GjUKxtHDiAa8P+88PJ9NEsZogBocFe3bf5OoaLobQZUQTRc94HJR52v5ss7i8vgABbNJfcx0tzdw41STxYBGtHeIXUVNLaBOIS39hIrZqZqfvDz68dF/t6Uj1sIDGDO6EAN4q6sDA4nTjJwz72Den/dTYhnPoDF38Nqga7Gpoom1KHjzN7KhYUZBUQr5fl0OV03vjgXI3riWssYpFEc0/SZMoadmMhddUUa9Kor4aMBeSGGz+wZn5+ThH9ObobPe473rvfiLF3PvX94nP3ctGwouJz19Cv+efzY2bRSRekHxkg0sAFJCrIdx+AR+0zcDISZxTuYicg4GnvdkH8IuBmMcMZvJb96AKioatb+c7E//F7hDfV4udf5ziB5wE5NevwJVTAxqXx57P1/X7BZrNrxOUJRu9P/363RzCGqXPcCPy8qC7v+wJO58chp3qI3EqBScB8vZHUK9RGR3/vX3LHoA+kgNoOI3s6ZypsfP6gVLeaUmtPbZV1CDb2Q8I6+7gs8v9yPKfub2R3eQ11DH+oPl5PmS6TpiDP/Xw4rVC1sWfs7TxaHkvodN22qYeGEGF113IV8/sYJK/8mdGmg+1XG88+ahak/+rRGmLGZcMgQNXnZs2Rw4Fk8zcmTewZSar3j2sfms3leK2xBNpKqO3E2f8fSj75DdbDqhYNWP5AqBEPls/rHgcAZFn/LMs4v5qbAedVQS8SY/VTnr+eip11nXbDlV8ZJXeHtdLnU+LeYICxaTHg2gKNm8/9gzLN2Wj00bgd5VzPalz/Cv+bvadb9Kx46N/FTlxJ63gW3Nisfe91n3zlrqqj2oIw148jey9+n72LbF2VD+JWx6fSXV5U7UERrcOWvZ/e9/snPv4blqRSniwAfLqKy0Q1QS5uQEsFaEtv9GZTl8vM2NSvFSkXOA597dT3Uo9VPriU+MpEtSFPFGBUVRExEbRWqihdjWVrYcQ+H/NvDalhpqfWoiLHoiDJojR0a5P/Hgghxy6gTm2MD+4oyhtb+i+Nn04XzWV/uIGXU7Tz/1Vy7K6NxfqTafw24M4O1ZFdOoefBvT4A+kUAePXwGjzz7MJO7anAe/Ji3v65q8RqRNYs3PvucRQv/zaToX+4vfk9E2Nw27pdQhvYQPWby6jO/JaVkMX+ZNY+Dp+FI4ng0rdMu/IkbHvyJQ2HcbkrSGGbdM5uLehjZ8MxUnvihfXVt68c5oQbPUNaNN+bX1lr0YHPjx1O2Rj1umMPTlyVQsm4+Tz2/hGxny3ZKu+ZF/ntVd+pXP85NT/4QliN3GcxPkYxr/8sLV2ZSvvQebp0XygSBBM2CefEOZj6wvWlaI1wJoSV58Plk1n7J+tzwruvxij1jHL3rNrI+p/6Y3z6FiGDqY+9y04BKlt93M/N2h+fIXM6ZnwJCpDJ6RAZCVLN5vQzkUusUxUPp9q8oDdPldB2h6qfvWAetr/PXDmFAbxX+7P+xbJe/fb8H+BWRI3NJkqQwIE+ASpIkhQEZzCVJksJA2ARzOcUiSdLpLGyCuSRJ0ulMBnNJkqQwIIO5JElSGJDBXJIkKQyEXTAX2vH887MlLPzgLR6/7RwSj/ei0JIkSb8iYRfMwUZleR0+Qzx9fvNHrjtLe6oLJEmS1OnCLpgrntW8cMt1PL3SiqKYiU0wneoiSZIkdbqwC+YQuPRC4/0AHHb7qS2MJEnSSRCWwRxAr9cjhA+tVn+qiyJJktTp1FHRMQ+faCYmsxmH3dYR5ekw9f54hg3tQe9RFzN+3EVMGK5l63e7qQ/TK6ZJknR66/SR+egx556SdGtpHsXVToTKSGxKKskJke26B6YkSdKvSdhcAvdoo+76iHvPM5O98E7+vuAAbnk9aEmSwljYzpmr1WqE8FF6SAZySZLCX9gGc7vDgaKoMZqMp7ookiRJnS4sg7kQKnRaNQBanVzNIklS+Au7e4AK7Rju/O8sRidGIEQtxQV1p7pIkiRJnS7sgjmYiUuKRuMoZ9eK13h3U/jewFWSJKlR2K5mkSRJOp2E5Zy5JEnS6UYGc0mSpDAgg7kkSVIY0ERERnZIRo35JCentvm6kpKiDtmfJEmSdJgcmUuSJIWBkxrMn3rqaRYseP9k7lKSJOm0IEfmkiRJYaDDfzQkRAojLxlJgq2I3es3kWuVN1SWJEnqbJ3wC9BY+pw5hkFahXNGZvDGM5+w3y1/gSmFH0EEqX36kmCqI/+nPVT75HEunTodHswVZRcLHrifVRNmc/t5AxjY9RP2H+jovbROCA2pg8+lW7SXkm0rya5VEMJE12FnkR7hoeSnNWRX+05egVqUTxDX93z6pbRseiGsHFq/lgJn+4KCMHVnyIjumKwH2bIpG+cv/PIFqqQhnNk3Dk/xFjbuq0Jo0hlwdh+iXIf46ce9WH/h5W+isRARa0LvqsV/1BdQISLoduYoUg21ZK/ZQIlXaVd6e3R0/4vY/pw5MBVV2U7W7S5G/Fr64zTXKddmUfxuistqgBjU6s7YQxv7VrzUVNtQYiKIiImAWivapF6kRij4KvZzqMp7iq/VokerdmO3u0Gjx6RT43c7cHoF+Kuod7Y/R5XJghHw2+24Ory8Hc9gMqIoCs7GWw2aTZgA7HZ+TbffVrzF7PuxuPHRUYkWDHrAY8XhaZkcNL0dOrr/9SYzGkXB6qiTgfxXpNMutGU0GgAHDkdn7aF19qpKnN0smCKj0aAiPTMBtagn92ARXkVBCC2Rab3o2iWBCIMKn6OW0gM7OVTtRghIHHABveL9lO74loNVCqbM0QzJNFOXvZodh06sQoripnT3GkoBS/exDOqqpj5vAzsL3Y2vaLN8AEIxkdx7IOkJJhRnMQVVJlSKgs1hQygKAhOJvbPISLCguIoprImhW5qF2gPfsyMf0oeNpWuEg8KNq8mzK8T0GUe/ZBWVP3/D3k6+xI4QYDIaEcKLw+4EFDRGCzpFwWW34UMhvv/59EnwUnogF21qN6J0Puryf2JvXi1+RUEIDRFdepLRJYkIgwqvs5byg7s4VOkM1L/N/o2nz9jBRFXkURXZheiaXRxwdaN3mobynevJqYlpMz231tc0ctU0BDpRvosfdxYG9q1OY8CYvkQ3BkFdGgPGpQFQe/B7dhQltJm+M9/VUL/eZKYlYDGo8DnrKD+4i7wKR2AfQfo/eB+03X4GowkhfLhIoO+IzJbt3+bx5SI+K0j/YSSx90AyEs0ozmIKa+Lolmai9sD37CwIof6qCJJ79iY1LhKDVoXfY6e2aA8HcqvwnsYfPp22mkWjCXxOCH9n7aEN9RXUeEGJjCImuQdJRnAU7KHYEZjmMHcdQlbPVKL04PGC1hRLWlZf4lQCMGE0KoADhy3weqNBjxB+XPaO+2QSAoxGHUJ4cNhdzZ5vu3xCQHSPofRIjkCn+BG6FNJTjAjhx2m3IQREdh9Mz5QodKpAelqSASG8uOxOwITeAODE6QQhtBgMasCNyxH6yWqhjiXjjLGMGjOWfqkWhAh1WxNGc6B9GwfmpoYbiDgdNsCA0aACFGLTu2HRqdBojcRk9iReHWgfU/oQsnqlEWU43D5d+vcnXhtC/xrMGNSgxCQRp9egT+xL91QzOq2Z+HhL8HRAp1Hhdjiwu7wAuFz2w0FUr4FmaX6PE7vdjt1upb7eGTQ9UP6hZPVKJVIHXrdAY4whtX+/hvq33f9B+y1o+2kwGbWAj8iUzGO0f7DjK1j/gSVzCD1TIg+XP0mHEF6c9hDr33MIPVKiUbuqqSyvxas2E5uZRZeIEA/BMNVpI/OafbsoumACIy+fiTGvDl/Vzs7a1TFUU1PlIykxmrSuBlTuEnJzaxrecLGkpkeiErXkbNhIkSuS7qNGkmKwYDZAhc2MwQgIBy4XgAG9SQ3YcdoFJ/R9+AgWjKZAUHM1n1tQ4tounz2exGQDiFpyN26k0BlH77OHkIATh90PShxJySaUFuk2nA5AbUSvBTwOHD4AY6C+OHG2Y47DktGPtFgDADGpiZgL60OcIjFjNAB+a+DDBAWjUd/sQy2+oTxeynauJdcaS6/RQ0jU6tBoAX8cXbpGoW6qn5EuQ0aRbjZhMgLeIO2nM2IA3MXbOKgezMC4UvbuEvQZnonf4wFjkHTAU7aTrWWg7TKCkb2icTkO11yx57JrQy7GrmcytHsE9sKtbM+1Nqai0HY6SuD4VLtL2LNhB5VeLSmDz6N7tDHQbsH6P9jxqQRpP48FoynQ/qU7jtX+sW0fX5jb7j9fDEmpJhRhJX/zOg45k+hz1kDiseN20HT8t1p/WxQxsTqghvztWyn1KWjNcUToBc7jmKIMJ50WzP2lP7PxwCim9B/AqC4KIq+qs3bVgqJATVUtIjEWo9FHzd79VPsbDnJjNBYtYK2g2hkYTQb+9eB2A3oTehXgsBEYqJoCB1FHTxkpDQe930bDbENo5TNGYlYH0qsaRtJCgcCHzZHbH5EuGspvNqIHcDpwAigm9DrAZ8PhJeTPKmNgeA+A3+EIfa7WYMagAmx2As1paRip23HYAa0JvQZwV1BV7wf8BLrOjdfTsn6K4qBo60oCF4lQgrafJtqEBkGN1YY+UY+wWXEY4jAgqHTY0ZjaTj+iKgZDw4jS1aLhAmkCVyuj5VbTG8tPEn3OTqKxWuDE5SR4/wcTrP3UJoz60Nu/af+Nx1ew/jNEYtYC9goqbQJw4xPNtg9Wf5y47H4UQwzdzzyHZLsNe205pQX52E/gJHI46LRgbh4+man9jfy88FHe3VCDF4WnnprSWbtrwVtfg4NYTM5CDpU0i5YmEwZANJ4sUsyBE1FeW+BEVIwRI4DdHgh2GgsGLeCy4Qhh4BMyvRGDAjgagxohlU8VdVS63oxRDbjt2H2gOnr7xnSnPfDhZAgEc+Fy4oHASFQBnM52nTyrKS3EGpuCzlVObnYxvlDnKk2B9hWN7as0jNR9dhxOILKh/W0NJ0PVJgyaQP0cvmO0T4v8224/o8EMOHE6DBhNCs4qG3pzVxRcuOwCY1Lb6Y0HgBBgMOqgaUR6mBAa9EYN4MZ5jIOmzfSG8ruKd/FzobXZRh5cbfVvQ/8HPT6DtZ/RFPiwb6X9gx5fxiD9FxH45oOjYTDR+E3R1TB4ClJ/RXFRtHMdzuRkYiKiMEVFEp8eS3y0mq2bc37xK7k6U6cFc73RiIKVkoJAID/p9IZA0LLWY2s2O6LR6FArCl5FhQJo4+OIUEDU12EFUKlRQdMcqC4hDgvgq64m+IxkOzQGNVtDUCO08qm0+oZ0BQUFY3wCZgB74EOh1XSHI5CuVqNWFITBhFGtRZ2S1BRc2xPMvVV72L5mT7urrdLo0CgKPpSG+sUfUT+1yYQO8DhtgQ8IkykQHJyBdmrePipAxPRhYJ8kNPXZ/LQzH38b7VfvhzijDkQVDruZaAM4bTZM0UagHrs9cB6jtfQjv5mZMBqUwIiyxdd7I3o9gDvwbaqF1tMb6+fDg8NajyoyjS5xBrx1RRTZFdRB+j+YYO3nNZkxtNH+wY6vYP2HRhMIOloNahTUCYlEADicR/Rva/XXRqUSa1bhrs4muwiEOp0BY/oQpdejBU7nmZZOC+ZOhxOIaZg/O/m0Dcur7Eed4fda67CLWIwJ/Rl+Vi9UOh0q4aL4UMPo0mbFJiAitg/DzuqBSqdDLWzkF5QfkY8muiup0VpwV1FU2P6z6DpzoHxHr0AIVj7F7cQrBOqE/gw7qw9CraBWFDwOW+AN1mq6NbCSwGrFLhIwRXRnyDndcTocKIDL6Tgpy9D8dht2ITAm9GNYQ/3UuCnLL8KjKJiNpsCyxYYpDVVDcPDZ7HgUBdGsfYad1QtFp0OtuKk4UNYivUX7qcyBk9tuGw6dmWS1m3q7Gn2yJvCc10RsW+k+0KacwYCuEYAKrQEghm4jx9DVV8r+Tfsb1sh78ftAUSJIHzqWJJ/AXrCJvUWNH5etpzf1f8ogRsT6UOm0qISV/C0HA+0XpP+D8QZpP5M5sDKmtfYPdnwF6z+cThyAKbInQ0dn4lcFVmH4HPbASrMg9ddGZ9CzmwWfM5WaGieqiBgiAXdZGdZjVfg00mmrWbx+L6ALzMeeAiZjwwoJ21HjaWsO+w+WYHX5UevUeGzlFOzcSG51YHUBzgIO7i2k3ulDpVFwW0s4tH0LBc0uSyCEnsTuvUjLyCRScRzXciijwQSAy37URGeQ8vmrssktteHxCfyuEgpLAtsHVoK0nu5onO+15XIgu4w6q5Waop/JK/cF3nzODv3e0TprDvsPlFDfUD+fvZLCXRs5WOlBCIHBaEAIX8NgAIzGQHBxOK1N2+/bH9hepVXw2Sso3L2JA+WuENqvYSWPzY7DaMSIA6fDjNFMw8g2WDoYI2IwmUyYTAa0KgVFpUVvMmEUXpoWlyoOirMPUev0otIZMBoNCM/h7z1tpjeVX6DWKXjqCzmwZSP5Dd0TrP9Daf/W2k8IgdFobLP92zq+Quu/PA4V1OL2+fG7KygssTek20Kqvy1/F9mldXjVFmIT47Go3dQU7GLXwarTfk28kjVw8AlfPEWnN+AOnJ0gKWkYIy87h2H9BtM9uoyvnnqWbyoCjfzUU08DMGPGNSe6y1NKGLszeGR3zK4Cdqz7mfpTMY3UAQR6UgedTbdoN4WbfyDP+uush/TrJISWpIFn0zMOSn9aycHqU12iX7fOuTbLyKFkuMrZuWwh35fTcScNfyEsySmY8VGTm/2rC+RCRJM5PItYdWD+2qBT460roKyesOsn6ZdHCAvpgwaRYADUgeNP2HIpre7IZb+np065Nsu79/2t+RMdvYtTShBNYrIRHIc4VNJySdovntqCxWLEiMDvcVFXnEPuwRwcYdZP0i+UYsEcbcSoBH4wZS3P49DBbKy/tvfRL1CnnQANVwo15Py4gpyGR782ir+AXasKjn72lJRFOv0olLD3+5JTXYyw1OFz5vIeoJIkSSefvNOQJElSGNDU19WdcCZxCQYa8+mI/CRJkqT2kSNzSZKkMCCDuSRJUhiQwVySJCkMyGAuSZIUBmQwlyRJCgMymEuSJIUBGcwlSZLCgAzmkiRJYUAGc0mSpDAgg7kkSVIYkMFckiQpDMhgLkmSFAZkMJckSQoDMphLkiSFARnMJUmSwoAM5pIkSWFABnNJkqQwIIO5JElSGJDBXJIkKQzIYC5JkhQGZDCXJEkKAzKYS5IkhQEZzCVJksLA/wN/EizA62bYeAAAAABJRU5ErkJggg==;" vertex="1" parent="1">
          <mxGeometry x="560" y="49" width="371" height="165" as="geometry" />
        </mxCell>
        <mxCell id="P79QQE4CSqo_MEbkqaJE-21" style="edgeStyle=orthogonalEdgeStyle;rounded=0;orthogonalLoop=1;jettySize=auto;html=1;" edge="1" parent="1" target="P79QQE4CSqo_MEbkqaJE-17">
          <mxGeometry relative="1" as="geometry">
            <mxPoint x="750" y="200" as="sourcePoint" />
            <Array as="points">
              <mxPoint x="750" y="262" />
              <mxPoint x="163" y="262" />
            </Array>
          </mxGeometry>
        </mxCell>
        <mxCell id="P79QQE4CSqo_MEbkqaJE-4" value="" style="shape=image;verticalLabelPosition=bottom;labelBackgroundColor=default;verticalAlign=top;aspect=fixed;imageAspect=0;image=data:image/png,iVBORw0KGgoAAAANSUhEUgAAAYAAAACfCAYAAADwMA5FAAAgAElEQVR4nO3dd2CV1fnA8e9798peJCQk7BEQkKUIWieruOqso9bW0lqt1V8drW21trbuaq2jaivWVa2ViuCuAoKyQQFlJoHsPe8e5/fHTUIg614SDCHP5w/l3nPPuc973pvzvO95lzYke5giSkkpqVRXVkRbTQghxDFE19cBCCGE6BuSAIQQYoCSBCCEEAOUoa8DEP3byFFjuizfs3vnNxSJECJasgcghBADlCQAIYQYoCQBCCHEACXHAESvMqdP4KQTckjw7OTdFbv7OhwhRBeOmwSgGMmIC+8gx76Tr998gBKn1tchDTypp/PjG+eTadRQ+xv4WBKAEMe0Pk8AKnkR837yA2KqnufdJ5+kSTt04M6+bD0zRh18z7VhEcve3dy+IV0MtuRMYqxOrCbAeZQDjza+PqKyruCvj19GZuHr3HjDPyk0nM1d/7mJya6V/PHyB1k/9GqefPQSBmsaSgUJuuoo3LGC1/6+mLVl0V0kHj8ul8EGF1tfeoCXtzaBJklYiGNZnyeAVqrjwcbfVERTNWiWFOx2S6fVtdBmtj0zh23hV0clxI5EGt+xTvkbqKxyYYhLZuj07/CL9BC337CYfVH0pU6vB5qoKpPBX4j+oMcJoHULvuhVtlRNITd3MKHKT9jy5h8oqg2h0m9kwQ+vwl76DMuffRYnc5n569+TqT7hs3tvo6iloWAsGQtfZuz4Q+uXLLuQEsAy4xnOnTO5/ferVMb8cBkTB2vNryvYs3g+WwvbDEDxZzBh7o8YmpOFIVBFfd4Str73PNWuCAepLup3Fx+Ask5i9LybGDV8OCbVQGPBf/ninWepaP5+66ifMfXMuSQnJKIL1eEs+pjtyx+hqDYQUXmv2L+U39zyKmW2Kdz0199xeuZMZg5dzL78yJvwerxADGZb74UlhDh6eu8soOQFjBubCFixDl7ItHnnY+pkq75DcXMYM+5I6gfw1RfRVF2I2xtqV6rUKHIvu5exo4ZjDNTi16eSNP6nzD73vIja73n9OHLOfZhJ48dj0fsIGVNIGLeImd/+NkalUPqzmHjhlQxKjkc5S/GGYokddjEzLrwaRwTlvS4UJBgC8OP3RVdVKQUYMep7PywhRO/rxSmgzWx67FaKrddw5g0/JXHIZJL4DyWRVtc2Ndf/PmfecH1r/dLuqmk15L9xIfnA4AtWMXP8YR9IPZ2sFD2qfgmf/vVeys0LmXndzaRlTCPF8BbFwW6+oKf1taHY+IqyXbvY/dbjlGqXcvr//YKUIdNIZBlltnTsRqD236x8/BFqDCcw7LRv4aAsnJ27K4+QNuRS/rr00tbX7VJH9rn8/m9nYohNJtGu4du7klVFdDubplQ60887iUyDhfSxwwjVbearwigCE0L0md5LAE351HtAefJo9EOiKRZzNFuCrfX3HVq//UZ9dGyxGAHqCqgNgBZcxuePLWsubD+6zZx1Gp+tXnnE9dtR2ynZVUrazPmcfMsV6DUtPD1usoY7v2ElBw58n8QhF3Pq9eOoLsunrmgN+VtWhA+Id1feXfwtYfgbqapqJICFhEEJmA8r14yxpKbHAuDf/y5/uvfflETUfiKjT5rJRKOGCjk5sHIzBzyRdY0Qom8d/QvBlGq/tRku6OT9vtXR4NkjSdcwY8H5JLOWDS9dy0f/eJryNklN0w6w+4Xv8OG/H2b37r14zRMYPudB5vzgJ8Shui2POP7Sd/jdouv48U//yVcdFKu9L7HoJy9REFIY7BCo63jtHN6+pu3gpV/dyi9u/zXPrXMx5FsXcmpmpJ0jhOhLvZcAHEOJs4CWMJwYI+BvwBsE6ivxAMRlE2sALW0ocTqgsQJXJPWbBYJ+AIzWRLRo5r5djfgA4nNIMICynMP0G97h3JvuJkMfQTsR1u80voxRxOpANeykYv9X1KtYbG16XaUtZNKcaxli38vOj+5j/at3klcNutSZDIrrvrxXFX/Aip0BSDqVeadEd0aTFvKwv7gasGGz9nJcQoijovemgLQpTL3pXabqEjHrNAKFW6kGcK2m6MANpGTP5ZSbJ+M3JGNG0bT7E+oPaWAqUzqq38xftI2G4DRicn/HeZnX4wtC2f8uYtOBhcz8/vdIAPQOM2Ak58IlZAQ8FC2/nC/yP6ao8mpyUy9g9s0n49MlYbUY8e3ZSk2A7qcqKiKr32l81QdwAo6hN7Pg/65B6TVCfg6mXl8iyVMuJVF/EcNnl+HTJWK1A95CGpsAXTflvaqaj1Z8wRVjpzD9nHOIX7WUuihO57RYLIAXj6e34xJCHA29twdQ8wE7d9Wh4cFdvJxN7yzBp2loWjF7ltzO17v34NXFofcXU7nlXtb8bzOq7eBStYyvOqjfqvQZVr/zPg0uhSEuE0dSFlazDvRx2BIPvtY0A6a4LOyJmVhMoGm72fGv37Jrbx4BQxJGVUX19qdY89YSPBEMbhHX7yy+khfYtGotTR4/mq6Bko+ep7Tt2Zs1/2Ttklcpr25As2dgNQXxlK1ixxuPUBLUui/vZY0rPmKjC/Tjz2HukOjqmo0moOUsIiHEsU7r6TOBW68DqPw77zz1NE65AGhAafs8ANOk73HXd8fjL/6CbVvXsWzFbrbv2dWH0QkhutJ7ewCaTk78GOC8W97gldUFBFImMGNCRrszjYQQx5Zj51YQot/TNCc7lj7BjqWtb/RpPEKIrvU4AWhVf+O93/+t+YX8wQshRH8hD4QRQogBShKAEEIMUHIMQPTInt07+zoEIcQRkj0AIYQYoCQBCCHEACUJQAghBihJAEIIMUBJAhBCiAFqwCaA715+yVFvr7e/QwghetNxcRqowsSgcZMYl9LAlyu+proXrkiOZPB+5dXXD/n3dy+/5JD3hBDiWNbvE4CyZjD11BMZ5HFiSIFIHmPSMlB3N2C3LTv8sx0lCBn8hRD9Sb9PANjN+LZ/wjvVgzn72/HdfrztQH40ttoPTwxtX0uCEEIcS/p9AtCq8tkGqAg2/dsO9i3/7ioJdDWYd9ZuV3sNQghxLOn3CSASLQN3Z4NxSxI4/DORTgHJ/L8Qoj8aEAkgkoG5p4N32yTS1uHvSZIQQhwrBkQCOFKRTgG1kOkfIUR/MmCvA4hEyzGCtvP7bV8frqtjBEIIcayRBNBLOjrA3KKz6SEhhOhLx80UkObZzQdv0CePpTx88G/7/84+J4QQfe24SQC9qaOB+vABvqOyw//dUbtCCHGs0IZkD1PRVkpKSaW6suJoxCOEEOIbIscAhBBigJIEIIQQA5QkACGEGKAkAQghxAAlCUAIIQYoSQBCCDFASQIQQogBShKAEEIMUJIAeoliJMMv/DtnXnUrGfaor6076o71+I4VluzTuOoX93HN9IN9lH3+Hdy5aCG58T27zYiKmcgVdz/Di2+8xZInriFHyXoQfWvA3wpCJS9i3k9+QEzV87z75JM0HXYvoezL1jNj1MH3XBsWsezdze0b0sVgS84kxurEagKcRznwaEUYn9ItZPadvyHd9z6f3vdryrq5t5JK/iFzF11DTNWLvPf00+36r7cp3QJm//KXDPJ9yOoH7sZ86Rqmt10/G29g+Xtbom9XGciaeyt3XTeTZEOItesOlhnicpg2fxYnzp7NG/fdw6vbm44o9hEX/oSLJ2eg/E1UVTXgO6JWhOg9Az4BtOpka8zfVERTNWiWFOz2zp87qYU2s+2ZOWwLvzoqIfbEsR7fkfI5i2mqAc2c3OX66Y4x9xp+tWgmycEiVj73NC9/frAsb8kDPGL4MT9aOJZL7riZ0hvuYUVd9H2YnJgAwPbF1/GbZY19cuNCIdrq9wmgdQu+6FW2VE0hN3cwocpP2PLmHyiqDaHSb2TBD6/CXvoMy599Fidzmfnr35OpPuGze2+jqKWhYCwZC19m7PhD65csu5ASwDLjGc6dM7n996tUxvxwGRMHa82vK9izeD5bC9v8ccefwYS5P2JoThaGQBX1eUvY+t7zVLu6HwDiz/4P55w8hIbVV/Dex7tRyszQyz9h2sgAhf85g7VfBdASzuKEedeRMyQLQ7CCul0vs+nd16nzaxHFZxp2PSfN/w7JtnrKVnwERzIzEYolfcE/GDN+CFR9whdL/sSB2nBDynoCo+fcwMjhwzDRSGPBUr549x9UurSDexBFr7C5cgq5HdQ3DV3ESfPOJ8nWQPmqjw/J1aXLL6UUsEx/koXnTOwwNC3+dCbMvZbs7CyMwRrq977JlvdfpMbd0id2Tr9oHum6ANuf/y2PLqukbZJUDXmsfO43+OKe447TZnDB/KGseKUg6i5qcjoBOyoUirquEEfD8XMMIHkB48YmAlasgxcybd75mKKZY42bw5hxR1I/gK++iKbqQtze9n/YSo0i97J7GTtqOMZALX59Kknjf8rsc8+LqP3a3etwK0XM0JOxKAXadFKzDBDcSukef7j9S+9h9IhhGAJ1BPSDSJp0G6fOPw1Nqe7j009nwrnXMCgxFk1ZSJ19AclHMj7FnsGYccnodBYsGQuYcvZ8jEqhVBw5376fieNzseh9hIzJJIz9ITPnz8PYdvmTvk3uuJT29fVTmXDuVaQlxqIpMymnnBdVfEqNJPfSuxk1PAeDrxa/lkTi+J8we8E8DK3fP4oxo0zATtau6Pgmh5rm5fNVm3ApxZAxudH9tghPMZmM4e0ts9kaVV0hjpbjJwGwmU2PzeOtp5+iOqQwDJlMUjTVtU3N9Z+Oqr6m1ZD/xoW888SFbN7tbf+B1NPJStGj6pfw6Z8XsPTxeymsb4CMaaREsv+1/1PK3MCgqaRbgMFTSbGAKvqMUl+4/cwUQ3P7B+M3jzmLQZHEl3QiKTGg6paw6pF5vPXKMrz6COJqZwubHz+Xpf94iQal0GeeQDyAloNN20XZ7pdY/Zd5/PexRykPKYzZU0lsW13byubHF7avn3giyQ5QdW/x6aPnsfTV5dHFl/otBifroeQZ3vvz+Sx99G4K3QrjiFmktn4oBocVCNRT29BFW7V11APYHeHYIqCMs/jZ08/w9D9e4s6zE/BVbWTFxuooFkCIo6fXE8DMWaf1TXlTPvUeULV5NPoBYyzmaAaK1vr7jqx+Z2yxGAHqCqgNgOZaxuePncl/H/kNxcH2U0Dtlk9tpCTPBbqJpA034hg2BbumUbt3FT5Na9d+a/ymuMjit8ZiAqgvoC4AofI8Grv4eOf9v596T7h+Qwgw2cNxqR0U7ypBS5zLyT9fxUU/v4lUDTBa0EdS3xbTHN/+cHwVBUR1CNYaE24n/Trm//JTLvrF78i0AHorxtYAtCgPi2idfrx9/9hJGpROerIDPQEaS/ZRVCNTQOLY0OvHAD5bvbJPy9tRqpMp7c7e71uHL5+m+Snbu4lQ7mxSh32LQfHDUSqfsj3F9MXB3Kj7P+kqZsw/l9jad1j38ps0+acy4fs/Ju3ohNepUMGzfPzx+jbvNOEM0tyFQUIhQDOg76pLdYbmpBUk0MlH2q0///vcdf77KH0S8371BIumXMylZ7zFtre72tUQ4ptx/EwBOYYSZwEtYTgxRsDfgDcI1FfiAYjLJtYAWtpQ4nRAYwWuSOo3CwT9ABitic1z6xFyNYZP94vPIcEAynIO0294h3NvupsMfWTtBPZ8TmUIzOkXk5Whh/p1lLRMVbsa8LdpvzV+X/0h8XfK3Xw6YlwO8QbQpQ0jJvKl6176CGJ1oBp2UXHga+qJxRbNr66l/+Kyw/Gl5uDo4GOt68eScOj6cTfiB3RxSWiVO6ltiCF53Blk5gxpswdSQ109oE8nM6vzUKzZg0kAArW1RDt8a8Fq9hU2oGk6DAZjlLWFODr6/VlArbQpTL3pXabqEjHrNAKFW6kGcK2m6MANpGTP5ZSbJ+M3JGNG0bT7k/B8bqupTOmofjN/0TYagtOIyf0d52Vejy8IZf+7iE0HFjLz+98jAdA7zICRnAuXkBHwULT8cr7I/5iiyqvJTb2A2TefjE+XhNVixLdnKzUBItuId62grORW0gZPIkUD71drqG05hbBiBcVV1zA25QJm3zyLgCEcv2fXx5QBynZe1/EVbqWqCWLjL+DUW2YRVEY63bw9EtVFuAD70JuYf/NVKL2OkJ/INz1qtlLddDWx8ecx++czCSoTdJDY/MU7aAhOISb3N5ybuQhfCMo/vpxNX6+kuPpKxiZfzOk/P52AIQGTQdG0bg3bW2vvZOPWOuadlc3ZV57FB/d/RHXo0BWjbLlcdd5kDATYtnkT/iM4hdNuDx/89biP7DoCIXrb8bMHUPMBO3fVoeHBXbycTe8swadpaFoxe5bczte79+DVxaH3F1O55V7W/G8zqu0fcdUyvuqgfqvSZ1j9zvs0uBSGuEwcSVlYzTrQx2FLPPha0wyY4rKwJ2ZiMYGm7WbHv37Lrr15BAxJGFUV1dufYs1bS/BEOIhoWhXFeXvRdDrASdnujW3KdrH9X79l974CAoYEDKEKqr98mE/f/SS8fN3FF1zL9qUvUlbTiNL5qFrzL8p6c4q69EU2rlpPk8eHpmug9H//pCySPZOW5QuuZ/vbL1NW24jS+an+7PWO65c+x+r3PmxeP4NxJGZiMenC/f/aPezO20/AEIfeV0z5hnv49OMvWs/D17QQG/+1mHW1QRJm3MhDD97K2dkH9yLip17FPY/czYIhBjz7XueFD2qOqCssZlP4/9Ze3ccS4oj1+2cCt14HUPl33nnqaZxycY04QlraLBbddgNnD7ey/uFzuf/T8G9p+Pee5qELUihbu5gHH11KnufIfmNDLvsLf75sKLqQi9ptr/Hr3/6HEvm9ij50HE0B6Y6j61tFX1Dlq3nqlnUsmXQGOW3mB2u3vMb9KzewLr/x0L3GKO3/94P8PeuXXD5jMAnJzWdfCdGHjp8EIEQv0DQ/5V+8T3mbzYmaLz9hbbiwZ20HC3nnwet55+CX9ag9IXqq308BCSGEODLHz0FgIYQQUZEEIIQQA1S/TQBJKandf0gIIUSn+m0CEEII0TOSAIQQYoCSBCCEEAOUJAAhhBig5EIwMSAo4rjwxydxdkwVrz6zkU/rj82LsCzZp3HxxfPQr7qdxeuPLMZrXr6GxVcsjrpOZ7pr6/C6HX2+o5iOJE6A7PPv4Mq0Hfz3tWXsqDsWb+ref0gC6AWW4XP4wTUXMHV4KhZ/FQWb3+Yfzy1lj7P3BpnTf/kWP5sRYs0D5/PQZ8fm4NUVpUYz6dkHGZG8k63X3sq+I3ioeo/oTKSlOchy+Eg2R199zk+/yx2TFZ889Qr3bDoY+7yfXcHtEw++rvj4fS55uTLq9pUykDX3Vu66bibJhhBr1x0sS7/2Yuacaafo7/9k25ALmXe2g5LnX+KDj478tq1tB+2WQbjl/20H5sMH944SRU+STcu/27bR3fIa4nKYNn8WJ86ezRv33cOr2+XuqkdKEkAPKeOJXPern3JGEvgaanBb0hh7xiLuNNdzw/0raZLL/cOMWTgSAWcxjbV848+y0UKVPP27//B0+FWvtdtU10BxOeisdtJjj/zPyZh7Db9aNJPkYBErn3ualz/vtRA7tPiKxUe0Bd7RVnx3Dv+ejhJNNPKWPMAjhh/zo4VjueSOmym94R5WfNMbFMcJSQA9NXIqE5M0KHiNm295kZL4b3P3X65m1OhJjGYlNVc9yZ8vGkLjx/dw9aPrCOFgwe9f4roTgqx9+HLu/9RPyozvc/2VpzM6PQ5ToIGyPWv411PPsLokxPhFi/nD/OTmL9Mz6/blzAKUZyX3X/IAazUN/aBZXL3ock4bl4E9UEvBlnf4x9/+zdeNGhmXPsYTl/v55B0d02a5+dcjnzL5Z9cytPAl7rrrLYoiGAyViiX5gh9wwpxpxCebCJR/Rf4/H2P7+mqUMjD0N28w5UQv+/90CRs3aMRd9RRnX5hJ7as/5qN3J3P6Cz8iuSUROs7i1P+eBUD1iz/gkze7vqWISp/A4t+fQM6+r3i8NJ2rpzkIlOzn6WfX8VEFKJXBr584nbO8e3niQysXLBhEnLeBz5et4YFP6vBh5cpff4frhmnNy+Lkzfve5PG92mHt7+DRonS+d1IMqnQ/Tz+zjg8rYNIVF/DoGfbWeM64/irOAJQnj99ev4ZP//k2nwKJ55zNm5e2f85Zd+2HY7Jz+kXzSNcF2P78b3l0WSVtk1TAH0SpEEFPqPnfisBhT/vpaks90kG2oy3znjp8b6Il8XQVZ3fLqxryWPncb/DFPccdp83ggvlDWfFKwSHfqwYv5A9/upbhdcv54y3Psj0gCaIjkgB6qtGJGyBxOBMHWygpXM7dVy4Pl2kaatVnFH0ni8GTppHLOraZpjFxjAH8W9mwwYcyzOb7N1/IJEsAV3UF9ZZkMk/4Njf9Xw15t7yG39tIY6MFg8WO1agRcDXhDgJeD35AqaFcfuf/cW6WHl9DDY2GBEbOvoY7jTUs+uP/moPMYtoMDXOslYtvTMHksGKdeD5zxrzF33d2vXhKQfzFd3Hqd0ei8zficSksGZMYfdMian9wL0XuwTjSdEA5jUXhzzsGpaBUgKbSEkg5BcrKcFoTsMdbCDqrcTf4AB/V+eVEvDU+aDhXpAdRGEgeNpL/u6KKjY/spbal3JTJFQs0QiENR0IiZ11+Mnlfvcsr5YrG2vBWujk2liRLZ+2P4Or0EDrNSPzQkfz8sgrWPZZHwOujocmAwWzCZtTwub14goAvEH4SW6Q6ab9B04BRjBllArazdkVFuz5x1XsBI+4GhaveA1hw14cO+VzbQb6rKZyuHOkUUHfHAA6f5unsGEGLSJZX07x8vmoTrlPPZMiYXEwq/5Dnd1gnTGNCnBEVO43JWc+yPb+bhR+gJAH01IH3eGvjfK6fOpUf/eVffLdkF5vXLOW119dQEtCgYCVrCy/lO1knMm0U7EiYwgQTBLauZ60bSEoh2QKUL+fuHz3LbtNY5l52EmlUYgR2Lb6RqxYfPAaw9vFLDx4D0DTIPoUZWQbU7he44bZ/U2Gdze3P3s7JU6Yzkf8R3i5SrH3iZmqu/hsLD/yDm/dfzNNXZWKP5Lkk+qmMPHckusAutv38NnaVj2XyU/cxPCWbhAwoyhuMPRUIlNNUDpCGY5AJKMVZHELLe50V17+O4/K/MPeSoTjfu5sPXmrZWotiq0yr4K+3rWSFI5cn/jSZsSPSyGUvq1vKrT4+vHcZTxQm8fN75nB+aiK5w3VoFV6WPvk2S4Fv/ehS7preeftP3LaSlSkTee6uCeQMS2UkeWx6YznnvtFyDCDE6udfP3gMIJrpvc7aByAGhxUI1FPb0L5bnEuX88JSwgXb3+WFZbT7UHfTKYeXtwy40U7DRHsgt6tE0nYaqm0bkSwvALV11ANWu4N4oO2+pHvdB7x/ehIja99j5f6IF2/A6fXTQGfOOm1AlWtaNR/+6Rbue+UjthU1YErP5bRLf8X9t59FvFJoWiGrPi9A09KYPH0oJ0w9ASshvt6wBpemQfV61nzlgrQF3PnXB/nNTWeSUvc1H73+MfsjGWBi7NgBbeRVPP3mUt58+VZOcgAGC9bW9O4j4PfiD4Df68MbiOLgYdYYEh1A8RaKS0IQDBI+76IRbx2QNhiHEagspSkIkEFMCqDKaSpsE2ZaKkqFcJYXR/7dbdXXkeeGUGUdxV7AbCZW3/YDTeQfCKEFqlj9eTGff1nCAXcU2zf1dexzQ+BAHcUhwGLq3Wcjd9m+dtSPiRw+9dLR1vg1L19zSGI4GtNAbV/3Vvugtes+rXY1T93+U265720OhGT6pzO9vgfw2eqVA65cC5az/vXHWP86WLLP45f3/pATps3ltISPeKsO9n+6lsJLcsjMncNJjkQIfc3Gz+qB8CMr//vr69gxfRaTRmeTOWQcc74/l/POfI3bfv4i+RGODKFtL3LbC1vavNNEeQBiI6rdhcHp2IFQWQlOCB/MTQLcpTRUAycOwg5QURp+UHpcJg4HUFNCgw/QwscQHGk2oA5nWfObR9Gmt1c0b1n3F0FCIUAzoO+jsaqzKaS2OhuwuzozqG1CaXm/7ZZ/j5KAzkB4GyDYq4+xHkhkCqiH9CffwBPXTia461XufOhDaksKqPACDitWO1AHHFjBZ/sv45JhpzPbCCp/A2trCA+Ow87kB2cMRxV/youLl+Mnm6ufeIILc6ZyYuqL5Dfv13r9fsCI1WEBvAcDaHTiBBKSk9Dv38su+yTOO28y8Y3bWba3LOLlUMkz+emtVzCi/kMev38J+cHwSGSMjUGvaQR1evSA7uSpJOoglLeLGgCzGT2g9Hr0aJhnTiEeCHy9/eD8PGlY4wHqcFdF9/2t4uIZZoUDjngGmwGvl4Yoni3cU15/ENBjt+mB9g9N9gXC79kcFgxKEYjq7K8a6uqBpHQys4DC7j5/qI4OtEYrkoPIkZ7f31ZXZw11lByiYc0eTAIQqK0Nb3yIqEkC6KHA13soc8xh4qyf8beJV+DUxZPo0AgUbmB982yHphWzam0+l142DAeQt+EzKloGCHc8Y+cuZIRhAWdfXEGjLo7keMBVTHGbZ4/n5e8nNGsUJy56mZevDhAqfYtf/uIVCgs+Y33RRWRlLeSPi0/BaYwj1qwoXbqeF4H0CJfDOnUu54zJRqn5nJqzhPx94ff9eQdwqUlYp93Agn98D11cPPpQJXlvfohf02B/AQ2hU4kffy3zn7sYXUIC+uB+dr29ts3jE50EPKBpQxn3x+cY6lbUL/81ny+v6Pb7D0rjpgcu5Gd6Kwk6Dc++Sr6KYLlU7DB+f0cuwwFzrAHQcc6icznJH2L1i8t4si6y/tldVEdwejLTr7yYty8KoSq+5sY/bGudpmvcV8n+4CCGTJvFf4Y30RSAzW+8zUOlkbS+k41b65h3VjZnX3kWH9z/EdVRTFtEOnB2NYBHsgfQEx0N8j35HmXL5arzJmMgwLbNm8K/RRE1uRVED2l17/PIvYtZvbscn2sJTK0AABMaSURBVCWeWF0DBRv/y0N/+Cd5baY6ilZ+ToFSKFXIps+LDjZQ8iYPP/IWXxY3oo9LI9kWoiZ/Ha89+Bxr25y6Vrr0SV5YW0BD0Ig9xoHDZsYAaFoer9z7MMu2FuI0xmD2lvLFsof5/eIdUT2/1r1tA1/WeHDtX8/WNuGx6xXW/vMzGmr96GMt+As3sOuhX7F1s6c5/qVsfG4FtZUe9DEGfPmf8dUff8f2XQfPkdG0Eva+upzqahfEpWEflAJNVZF9f4uKfF7f6kOnBajK38ufX9pDbSTLpzeTnBrL4LQ4kq0amqYnJjGOjFQHiZ2dEdSB4g/X87fNddQH9cQ4zMRYDIduPRV8yW9fzCe/QWFPDH9fkjWy/te0EBv/tZh1tUESZtzIQw/eytnZ0V/hGs2AeqRb3dFqOZbQVZKJdhoofupV3PPI3SwYYsCz73Ve+KCm3WdU7iL+/t+3WfLGH5kfL1cLd6bfPhLyWIghGmr4NTz18HdIL3uLXyx6ln2yxRKR1vPoi7/ke7/9kgPHcb9pabNYdNsNnD3cyvqHz+X+TyNf1s4G1EgG+O4G4O6OB0STRDpLPNEkr+Hfe5qHLkihbO1iHnx0KXme9v2U+d2/8NdLh9G4+j6ufeBT2UPohEwBfUNyTppKhqZRuekzGfyPhK79mR7HG1W+mqduWceSSWeQUx9d3Y6utD2SukezTlf1ommvdstr3L9yA+vyGzvcy1UqhsnjslGqglXL18jg3wVJAN8ApTKYOS0bpWrZtC6SmWsxUGman/Iv3qf8uE93R67my09YC51fh2GczPhROkJ5H7J8Ryi66zUGGJkCEkKIAUoOAgshxAAlCUAIIQaofpsAZPpHCCF6pt8mACGEED0jCUAIIQYoSQBCCDFASQIQQogBqt8nAGWcw+/+u5Q3Xn2e+64/lVTkvh9CCBGJfp8AwEl1ZQNBSzKjz/kpV55s7OuAhBCiX+j3CUDzr+axH17JQyua0DQ7iSm2vg5JCCH6hX6fACB8qw/VPPPjdrn6NhghhOgnjosEAGA2m1EqiNFo7utQhBCiX9DHxSfcHW0lm92O2+U8GvEcscZQMlNOHM6oGd9mzulnM3eqkS2ffEWj3AlQCCE61Ot7ADNnndYn5U3l+ymt9aB0VhLTMxiUEoup61CFEGJA67e3gz7cjJtf45ffspP3xk3c8eJefHI/dSGE6NJxcwxAr9ejVJDyAzL4CyFEJI6bBOByu9E0PVabta9DEUKIfuG4SABK6TAZ9QAYTXIWkBBCRKLfPxNYGWdx018XMTM1BqXqKS1q6OuQhBCiX+j3CQDsJKXFY3BXsuOjv/HSRnkItBBCROK4OQtICCFEdI6LYwBCCCGiJwlACCEGKEkAQggxQBliYmOPqGJLvUGDMrr8XFlZyRG1L4QQ4uiSPQAhhBigjmoCePDBh3jxxVeO5lcIIYQ4QrIHIIQQA1SPLwRTKp3p500nxVnCV+s2UtAkD2UXQoj+oBeuBE5k9EmzmGjUOHV6Nn9/+N/s8cmVuOL4o4ghY/QYUmwNFH65k9qg/M5F/9bjBKBpO3jx13eycu4N3Pit8UwY8m/27O2N0CKjlIGMSacxND5A2dYV5NVrKGVjyJSTyYrxU/blGvJqg99cQO3iUySNOYOx6e27WqkmDqz7jCJPdAOJsg1j8rRh2Jr2sXljHp5j/NYXurTJnDQmCX/pZjbsrkEZshh/ymjivAf48vNdNB3j8bcyOIhJtGH21hM6bEdXqRiGnjSDDEs9eWvWUxbQoiqPRm+vf5U4jpMmZKCr2M7ar0pR/WV9iB7rlXsBaSEfpRV1QAJ6fW+0GMV3awHqap1oCTHEJMRAfRPGtJFkxGgEq/ZwoCbQx/cGMmPU+3C5fGAwYzPpCfnceAIKQjU0eqJvUWdzYAVCLhfeXo+391lsVjRNw9PyGFG7DRuAy4WrLwOLkhYoZffnpS2vDit0YDED/ibc/vbF3ZZHobfXv9lmx6BpNLkbZPAfYHrtZnBWqwVw43b3VouRc9VU4xnqwBYbjwEdWTkp6FUjBftKCGgaShmJzRzJkMEpxFh0BN31lO/dzoFaH0pB6vgzGZkconzbx+yr0bDlzGRyjp2GvNVsO9CzBdI0H+VfraEccAybzcQhehr3r2d7sa/lE13GB6A0G4NGTSArxYbmKaWoxoZO03C6nShNQ2EjdVQu2SkONG8pxXUJDM10UL93FdsKIWvKbIbEuCnesJr9Lo2E0aczdpCO6q//x66jfEsnpcBmtaJUALfLA2gYrA5MmobX5SSIRvK4MxidEqB8bwHGjKHEmYI0FH7Jrv31hDQNpQzEDB5B9uA0Yiw6Ap56Kvft4EC1J7z8Xa7fZEbPnkRc1X5qYgcTX7eDvd6hjMo0ULl9Hfl1CV2WF9QHW7eQDc2Do6rcwefbi8Pfrc9k/KwxxLcMnKZMxp+eCUD9vlVsK0npsnx7obd5+UaRk5mCw6Ij6Gmgct8O9le5w9/Rzfrvfh103X8Wqw2lgnhJYcy0nPb93+Xvy0tybjfrDyupoyaQnWpH85RSXJfE0Ewb9XtXsb0oguXXxTBoxCgykmKxGHWE/C7qS3ayt6CGgCSsHum1s4AMhnAuUaHeajEKjVXUBUCLjSNh0HDSrOAu2kmpOzwFYx8ymdwRGcSZwR8Aoy2RzNwxJOkUYMNq1QA3bmf481aLGaVCeF29l82UAqvVhFJ+3C5vm/e7jk8piB9+IsMHxWDSQihTOlnpVpQK4XE5UQpih01iRHocJl24PDPNglIBvC4PYMNsAfDg8YBSRiwWPeDD6478gL3SJ5J9wmxmzJrN2AwHSkVa14bVHu7flh0AW/NDezxuJ2DBatEBGolZQ3GYdBiMVhJyRpCsD/ePLWsyuSMzibMc7J/B48aRbIxg/VrsWPSgJaSRZDZgTh3DsAw7JqOd5GRH9+WAyaDD53bj8gYA8HpdBwdeswHalIX8HlwuFy5XE42Nnm7Lw/GfSO7IDGJNEPApDNYEMsaNbV7+rtd/t+ut2/4zYLMagSCx6Tkd9H93v6/u1h84ciYzIj32YPxpJpQK4HFFuPwjJjM8PR69t5bqynoCejuJObkMjonwJyg61Wt7AHW7d1By5lymX3QN1v0NBGu291bTEailriZIWmo8mUMs6HxlFBTUNf+RJpKRFYtO1ZO/fgMl3liGzZhOusWB3QJVTjsWK6DceL0AFsw2PeDC41L0aF/9EA6stvBA6G0776EldR2fK5nUQRZQ9RRs2ECxJ4lRp0wmBQ9uVwi0JNIG2dDalTvxuAG9FbMR8LtxBwGs4eXFgyeK+RdH9lgyEy0AJGSkYi9ujHD6xo7VAoSawgkIDavV3CYRJjfHE6Bi+2cUNCUycuZkUo0mDEYglMTgIXHoW5fPyuDJM8iy27BZgUA3/WeyYgF8pVvZp5/EhKRydu1QjJ6aQ8jvB2s35YC/YjtbKsA4eBrTR8bjdR9ccs1VwI71BViHnMSJw2JwFW/hi4KmllI0ui5HC/8+9b4ydq7fRnXASPqkbzEs3hrut+7Wf3e/T62b/vM7sNrC/V++raP+T+z694W96/UXTCAtw4ammijctJYDnjRGnzyBZFz43LT+/jtdfmccCYkmoI7CL7ZQHtQw2pOIMSs8RzB9Kg7VawkgVP41G/bOYOG48cwYrKH21/RW093SNKirqUelJmK1BqnbtYfaUPMfhjUehxFoqqLWE95qDf/Xj88HmG2YdYDbSXiD2Bb+4fX2dJbW/IcSctI8ExJZfNZY7PpweU3zFrvSIJygDq1/SLlqjt9uxQzgceMB0GyYTUDQiTtAxPnNGt6NACDkdkc+92yxY9EBThfh7nQ07xG4cLsAow2zAfBVUdMYAkKEV52PgL/98mmam5ItKwjfYETrtv8M8TYMKOqanJhTzShnE25LEhYU1W4XBlvX5YcsisXSvOXqbddx4TKFt5Ot8k7LW+InjdGnpNGyWODB66H79d+d7vpPb8Nqjrz/W7+/5ffV3fqzxGI3Aq4qqp0K8BFUbep3t/x48LpCaJYEhp10KoNcTlz1lZQXFeLqwYF0EdZrCcA+dQHnjrPy9Rt/4KX1dQTQePDBhb3VfLcCjXW4ScTmKeZAWZsR1mbDAqiWA2aaPXwwLuAMH4xLsGIFcLnCA6TBgcUIeJ24I9jAipjZikUD3C0DIRHFp4s7rNxsx6oHfC5cQdAdXr+l3OMKJzRLOAEorwc/hLd4NcDjieoAYl15MU2J6Zi8lRTklRKMdO7VFu5f1dK/WvMeQdCF2wPENve/s/mAsN6GxRBePnewg/5p137X/We12AEPHrcFq03DU+PEbB+ChhevS2FN67q85QegFFisJmjd8j1IKQNmqwHw4engR9NleXP83tIdfF3c1KaSH29X67d5/Xf7++yu/6y28AZCJ/3f7e/L2s36iwnvYeFu3gBp2SP1Nm9wdbP8mualZPtaPIMGkRAThy0uluSsRJLj9WzZlH/MnwF3rOu1BGC2WtFooqwoPPh/48yW8EDX1IizzcyNwWBCr2kENB0aYExOIkYD1dhAE4BOjw5a53RNKUk4gGBtLd3PsEahZSB0Ng+ERBafzmhuLtfQ0LAmp2AHcIUTSaflbne4XK9Hr2koiw2r3og+Pa11QI4mAQRqdvLFmp1RL7bOYMKgaQTRmpcv+ZDl09tsmAC/xxlOKjZbeEDxhPupbf/oAJUwmgmj0zA05vHl9kJCXfRfYwiSrCZQNbhdduIt4HE6scVbgUZcrvBxmc7KD90DtGG1aOEt13ZTD1bMZgBfeK+tnc7LW5YviB93UyO62EwGJ1kINJRQ4tLQd7P+u9Nd/wVsdixd9H93v6/u1h8GQ3iQMRrQo6FPSSUGwO05ZP12tvzGuAwS7Tp8tXnklYDSZzF+1mjizGaMgMwC9UyvJQCP2wMkNM8HfvOMzaeyuQ47MyLQ1IBLJWJNGcfUk0eiM5nQKS+lB5q3Yp1NOBXEJI5mysnD0ZlM6JWTwqLKQ9oxxA8hI94IvhpKiqM/+8BkD8d3+Jkb3cWn+TwElEKfMo4pJ49G6TX0mobf7Qz/UXZa3hQ+A6OpCZdKwRYzjMmnDsPjdqMBXo/7GznlL+Ry4lIKa8pYpjQvnx4fFYUl+DUNu9UWPkW0ebpF1zygBJ0u/JqGatM/U04eiWYyodd8VO2taFferv909vABfp8Tt8nOIL2PRpce8yBD+L2AjcSuyoNgTD+B8UNiAB1GC0ACQ6fPYkiwnD0b9zRfwxAgFARNiyHrxNmkBRWuoo3sKmlJsZ2Xt67/9IlMSwyiMxnRqSYKN+8L91836787gW76z2YPn1HUWf939/vqbv3h8eAGbLEjOHFmDiFd+MyToNsVPkOvm+U3xmczYqiDoCeDujoPupgEYgFfRQVNHS2wiEqvnQUUCAUAU3h+uQ/YrM1nljgP225vymfPvjKavCH0Jj1+ZyVF2zdQUBs+KwNPEft2FdPoCaIzaPiayjjwxWaK2tzSQikzqcNGkpmdQ6zmPqJTz6wWGwBe12ETt93EF6rJo6DciT+oCHnLKC4L1w+fQdN5ubtl/tpZwN68Chqamqgr+Zr9lcHwH6ynV/dvOteUz569ZTQ2L1/QVU3xjg3sq/ajlMJitaBUsHkDAqzW8IDk9jS11t+9J1xfZ9QIuqoo/mojeyu9EfRf8xlQThduqxUrbjxuO1Y7zVvQ3ZWDNSYBm82GzWbBqNPQdEbMNhtWFaD1RF7NTWneAeo9AXQmC1arBeU/uH/VZXlr/Aq9ScPfWMzezRsobF493a3/SPq/s/5TSmG1Wrvs/65+X5Gtv/0cKKrHFwwR8lVRXOZqLndGtPzOwh3klTcQ0DtITE3GofdRV7SDHftq5JqFXqDlTpgU9c17TGYLvvARGtLSpjD9glOZMnYSw+IreP/BR/hfVXjFPPjgQwBcddV3ezHkb56yDmPS9GHYvUVsW/s1jX0xxdULFGYyJp7C0HgfxZs+ZX9T/1wO0T8pZSRtwimMSILyL1ewr7avIxK9cy+g6SeS7a1k+/I3WFVJ7x04PUY4BqVjJ0hdQV6/G/yViidnai6J+vB8vMWkJ9BQREUjx916EscepRxkTZxIigXQh39/yllAeW1vnmItjlSv3AvopV/d3vaNnjZ5TFHEkzrICu4DHChrf/rfMU/vwOGwYkUR8ntpKM2nYF8+7uNsPYljlObAHm/FqoUvgmuq3M+BfXk09be/o+NUrx0EPl5p1JH/+UfkN7/qb7RQETtWFh3+bp/EIgYejTJ2rSrr6zBEJ3p8DECeCSyEEP2TPBFMCCEGKENjQ0PUlZJSLLTUO5L6Qggh+p7sAQghxAAlCUAIIQYoSQBCCDFASQIQQogBShKAEEIMUJIAhBBigJIEIIQQA5QkACGEGKAkAQghxAAlCUAIIQYoSQBCCDFASQIQQogBShKAEEIMUJIAhBBigJIEIIQQA5QkACGEGKAkAQghxAAlCUAIIQYoSQBCCDFASQIQQogBShKAEEIMUJIAhBBigPp/ZNFeebUj1CQAAAAASUVORK5CYII=;" vertex="1" parent="1">
          <mxGeometry x="180" y="55" width="384" height="159" as="geometry" />
        </mxCell>
        <mxCell id="P79QQE4CSqo_MEbkqaJE-24" value="" style="edgeStyle=orthogonalEdgeStyle;rounded=0;orthogonalLoop=1;jettySize=auto;html=1;" edge="1" parent="1" source="P79QQE4CSqo_MEbkqaJE-17" target="P79QQE4CSqo_MEbkqaJE-23">
          <mxGeometry relative="1" as="geometry" />
        </mxCell>
        <mxCell id="P79QQE4CSqo_MEbkqaJE-17" value="" style="shape=image;verticalLabelPosition=bottom;labelBackgroundColor=default;verticalAlign=top;aspect=fixed;imageAspect=0;image=data:image/png,iVBORw0KGgoAAAANSUhEUgAAAiIAAAIPCAYAAABOhrXCAAAgAElEQVR4nOzdeXhU1f3H8fedJZPJSnbIQgghQRJ2CAgEXChlk4pUENxAUVFqtWKrrbZobbX92VKtS1msAmqlCsoioFKsgIDsm6xJSAhZyb5vM5nz+yMJDCGQoSQzgN/X8/Awc+895557ZpL7ybln7mj9+/dXBYUlOIvBP4becWG41+WTfOgI+TVtW39AUDCF+XltW6kQQggh2oXBmTtTxlB69AjDrClqqm34demBH1BXmMqp/FpnNkUIIYQQVwGnBhGMRow60DQdZr+OmBsXV9WcliAihBBC/AA5NYhoVens+zbdmbsUQgghxFVM5+oGCCGEEOKHS4KIEEIIIVxGgogQQgghXEaCiBBCCCFcRoKIEEIIIVxGgogQQgghXEaCiBBCCCFcRoKIEEIIIVxGgogQQgghXEaCiBBCCCFcRoKIEyhiiJ70LiPv+xWhnsrVzRHXIOXdh3teXMQHK1az8u0ZdFHyPhJCXB+c+6V31xgVOIuxj83Eu2AxX/zjH1Ro2nnrI6fuYnDsuWVVu2ex9ot9F1ak88YjMBxvcyVmN6CynRt+ue1zAaW6MOMfbzKxeikPPX2Mye/9mdGZC5gyt5Q5nz5Lvx3/x9S/br2yfYTcyWsLpxOVu5pfznqHk81ePxU4ib/88wFimy9Xe3jrpy/wdf35y12p26THmNwvFGWpoKCgjDpXN0gIIdqIU4OIUgF0T+xFsF6zW1ZO+p7dZFZfPb/0L3CRvz4tFZlUFILmHoSnp/tFi2u2fXy/aDTfNzxrlya2xNH2uUYRpWWArw8+WiB+Hlasfn4EmW14GqC0uNBpLWk6uVvt2lZ5lQ04BPr7AXB4ycP8bm05aFfxz4sQQlwGJ4+IVFOcdRqLDtA88OsUiNlaRZWlffZ2dkQjcxn7CwYQHx+GLf8b9n/2RzKLbahOP2f8Q/fhmbOIde+8QyVjGPrbPxCuvmH7y8+Q2VRRvQ+hE/5Fj57nl89eO4lswH3wIn4yut+F+1fB3PDQWvqEaY3P80heMo4DGXYnkQ630mvMI0R1icBgLaA0dSUHvlxMYZWDJ5pLlG+tfQDK3JfuY58kNjoaN1VG+alVHFz/DnmN+zfHPsHAkWMI9PNHZyuhMvO/HF73NzKLrQ6tvxhNK6Ok1AphXvj4++NXnEe+rz9BPjV4AqXFBQDoOyYyfdY0RsSF4mEtJHXnKt5553NOVmsolcCcZXMZUbuRxWv8GDu5F77Vmexe8Rpvrk+j+dtKGQcx593fMcKnkC9/9xALchpXnPmSl2cv5tR5J/fG18w7jkmzZjKubyQ+lJN1+CuWLFjGoZKG9VrIEO6fdQ83x4fhUVdE+sEvWPrOco6Uamfbf/+sadwUF4qntZhT+9fz3sLlHCu/vCBRUVkJeKJstssqJ4QQVzunzhHRtCryT6WSmnqGGrM37pZCTh48SpG1nf+6CxxPXA9/wIw5bAIJYyfidjnX2H1Hc0Pc/1LeSl1pJhWFGVTXXngCUSqW+Kkv0yM2GqO1GIs+mICeP2P4T253qP4rL+9Ll5/Mo2/Pnrjr67AZg/CLm8XQ227DqBRK/yP6TLqXjoEdUJU51Np88Ok6mcGT7sfLgfWtKS4rBw8vvIID8CvJIEPvR0AHbzxRFJcUolQU055/mp/0j8TLUka1IYgbRj7K848MxmhfvymBSZNjMdl0eARGM2LmE0wIvXB/IePvZKgPWI98xopDradfpXwY+cRcpg/vjr/RQp0pgK5D7uWZx0Y2HL/qwrTnn+GOAV3wspRQqQ8gdvgMfvPEaDooda79/SIw15ZSrvkRM3wGzz8+Es/LeP8pZcDN2PA3g8lkdricEEJcC1wyWdUzsgfR/u7UW6wYTG4XvfTRdvax9+9jWb1gPoU2haFzPwIup7i2t7H8gssqr2lFpK2YxPq3J7EvqfbCDYJvISJIjypdybevjWfNmy+TUVoGoQkEOTJWdaXltSg8OEruiaVsfX0kK1+fR55NYeycgD+ARyc8jUDxcja/PpHP581i99b3SUrLbXjjtLa+FcUlpWDwwifcH4/iNLLL/PDr7Ikn5ZQW1UOXYQyOMKDyv+SlGfcz44kPSKpX+N04gr72FXlUsfmF+3lgxnOsz1FgiOaGHsbzd6aP547xPTBQzKbl6ym0G/3Qwu/k9TXrWLV6LatWr2Xl3NHolQItgkAtiYO7V/DKg1O598FFHLYpPOP7EAPQJZEhnRva94cZM3jgsTf5rqACFd2HOCPn2p/0Po/fP50HZs5je7nCc8Ag+jjQP8qYyBMLFrHgvQ95fpQfdQV72LTHeZeshBDCGVwyWdVWU0Z+YR2ePiFE9vREt383p9tzAmdFGqU1oGpSKbeAv5sPJv3/Uv7k+eWvdJTcwwcjQMkpiq2g1a/lu7+vbVx54SjR0MSb2L518/9c/gLqMNkncggZOo4hc+5Br2kNUw/czA1vjLLNnD79AP6dJzNidhyFuWmUZG4jbf+mhom7ra1vpf1FpWWAN6GReiqKNlHi92OCO3thppTiIsDHE0+AvAxSLWDLTSenBmI8vPDRA/VNNWVzOtWCVn+Mnd/sJigGMitM53Yc+CN+vWgkfoFgTVrNiv2W8+ZYXDBHpLCy4aVVJ9i1I4/ed9zK00snYtI19o+7CTOA9/nt00q/5v9mfn2u/xvXazH3seCz+xqW6gDcMRvs299y/4AnAR070UnTUMpCafZJMotsOHOekRBCtDeXBJGaM0mcOANax94MjfGng7+J05Uu+ByAUrQ8FnOx5a51/kmqDQTMYPD4ifgUr2XHh8upsAym94OzCWlcrWmnSVr6U/JvuJVOYd3wCupL9OiJdO//HhsXzqe0tfXNTpjN219eXIKVjkR0dqf4QCrFQWZ6h3uip4TSAsDn8g/p4McvcbDpSeOBaEYvgoIaHtfW1HDB2FTxf3l11kKS7cOTpkHYnfxi9mgicjby+ty1ZNf2Y/pfptPrMttk+/4Dnlm6325JBWesXJAnmvePZvmKFyZ+hdIHMPa5t5k1YDJ33bqa7z8vu8wWCCHE1cupl2aUdygxsT2I9HdreG5r+JNQa+9PAHhF4esOml803kbAUkZtPVCaTw2AbyQ+BtBCovDVAeV5VDlSvpG1vmG+gdHsj3Y5l5mqyhs+htmhC34GUO4/ZtDj6/nJky8SqnegHgfLX7R9obH46ECVHScv/SilygcPu3eECplA39EP0tkzheMb/8yuZc+TWgi64KF09G19fatKyijDTGioDyXFhRSXVNOpYwjUFlNUCZRXNnzSOTiCrkbQdYykkztQXUFZ/aWrtqdyVvH0XS+ztUzh1vtO7uptbL0QoHWLIkIHqvAkB4+kcBpv/Ox/YsoqqQAIaWif8h7BUwve57135zDEoM62XxcYgD49hZQCL+KHDWdY7wjcHG8+Wn0hJzPK0DQdBoNjbRdCiGuFc0dELHrMQSEE+5sxFVRi9AsEaigvraFdh5u1AQx88gsG6vwx6TSsGQcoBKjaSubpxwmKHMOwp/phMQRiQlGR9A2l51UwkAEtlW86rMzvKatPwDv+99wePpu6esj9+k72np7A0Aem4wfovUyAkS6TVhJqrSFz3TQOpv2XzPz7iQ++g+FPDaFOF4DZ3Uhd8gGKWviL+QJ5jpW/aPsKT1MJeEU9xfinZ6D0GjYL5+JpnT+BA+7CX38n0cNzqdP5Y/YEajMorwB0raxvTVExpZiJ8CujqMBGYXEJwcGdoXhPQ/+e2s6uzDuJiBjD3CWDqDT64qvXKNn5LQccqP481dv599pUhkzryo+m3cZnh1aS10oRlZnDGaBT74dZsHQKNgNYaoGmy3rpW9lx+qd0jhzD75b0p1znh7+nkcq9RzhusW//BF5ZMoxKoy8+JkXOml18cJnN9/RsmKRaU+1IxwohxLXDuZNVqzNIOnGaUqsJ/5AQvCglL/kwaSXtvN+iDRw/UYJGDdVZ69i7fiV1moamZZG88lmOJSVTq/NFb8kif//LbPt6H8p+lKZgLUdbKH9WziK2rv+KsiqFwTccr4AIzCYd6H3x8D/3XNMMuPlG4OkfjrsbaFoSR/49lxMpqVgNARhVAYWH57Nt9UpqHBglcrj8xdqXvZS9W3ZQUWNB05WRvXExOfafui16nx0rl3GmsAzNMxSzWz01uVs4suJvZNdrra9vTUEpZRgwGEooKoD8kmIMRiOUFlEEaFoqH708j7UHMqg0euNhLSRp00JeXrgDy/8wipaxehnflYMhbhJ3DXRgTCJlOQs+3kdOhQW9vox97y/noN2HbTTtFMtemcfn+09TafTD01ZM8tb3+fMbX1KsaRe031Sbw8G18/jDkiPnv78c4G5qaK+72fuyygkhxNVO69+/vyoobO8k4DwBQcEU5jf8rXv2PiL577J+/gIq5SZQ4hrVeeobvDY1Cp2tiuLvP+a3cz8lW97PQojrwA/ju2Y0nXzOQFzT0pf/hXe3ZVBhc8cv0Oey5pgIIcTVTL5rRohrgFafwfq/zGb92QUSrYUQ14fr+tKMEEIIIa5uP4xLM0IIIYS4KkkQEUIIIYTLSBARQgghhMtIEBFCCCGEy0gQEUIIIYTLSBARQgghhMtIEBFCCCGEy0gQEUIIIYTLSBC5St09bUq719fW+xBCCCEul9zivZ0pUwDde/Ug0t8dW2UeKd8fJr3MdsX1OhIiPlr2yXmP75425bxlQgghhKtJEGlHSrkTOyyRmKrD7N1dgiE0joSb+1Kzdi9nbBf/rpCmwNBacLBf13zbloKKhBAhhBBXGwki7UnzwYPTHNibQq5FQxUdJqjrjXT0hTPFLRexDxTtMYrRPKDYP5egIoQQwtnkS++cSJm6Mmp8MMdXfUdmCyMi9qHjYo/tt23NpcpfarkQQgjhLDIi4iQKb25IjMeQvIWsesAuhzSFiouFgqaRkebbOHppRuaHCCGEuFpJEHECpdwIvzGRG2oOsuFQCUo7fzTEkYBwpSHCPszYa75MwooQQghnkiDSzpQy0LH/TQz0PMmmTelUaxefpHq5LjXfoyWXGkERQgghXEHuI9KOlNLwjxvOjUFZfLv5BKWX+KTM/+KjZZ+c/dfS8+YuFlTkfiJCCCFcRUZE2pO5Gwl9AnG3+nDz7TFnF+cdWM/WVItTm3Kpya8yh0QIIYSrSBBpR1pNMhv+nezqZlwQQuz/v9h2QgghhDNIELkGtRQYmgeNltY1f9xSvUIIIYQzyX1EhBBCCOEyMllVCCGEEC4jQUQIIYQQLiNBRAghhBAuI0FECCGEEC4jQUQIIYQQLiNBRAghhBAuI0FECCGEEC4jQUQIIYQQLiNB5BqgiCF60ruMvO9XhHoqVzdHCCGEaDNyi/drgc4bj8BwvM2VmN2AyratPnLKdwzqrji9Ygg7j7XtNwTrOyUy4+FpJMaH4lVfyukDX7J00TIOlbTtfoQQQlybXBZE3Dr2on9MANbcQ+xNKkRpcmK6GM22j+8Xjeb7hmcubo3jFLHc99tfMiHcgLW8iHJdB6KH3ctvvCt4/LefUyivuRBC/OC5JIgoY0diowLQ150hKfX6DSEqcBZjH5uJd+Yy9hcMID4+DFv+N+z/7I9kFttQajiDfz2PyLq17N/hT+zwAZjq0sna8nt2703CRgg3PLSWPmEN/aNUHslLxnEgo+F5h1Gf8uMhnSnbeg9f/jcJpUxETfuGhBgrGZ/eyo6jVpS5L93HPklsdDRuqozyU6s4uP4d8qo0gsau45aE4LPtjZy8h0hA1W1g25+eI1vT0Px+RK+xD9OlcwRGWyElKZ+y/4vFFFU78Jp1HcKgMD0qbz0vzH6bw24389yiXzKoVyI3+nzOunJQ3nFMmjWTcX0j8aGcrMNfsWRBw4hJ6F1/5+1pFr5ZryMhsZp//+1b+j3xIFEZH/LCC6vJREPfMZH7Z03jprhQPK3FnNq/nvcWLudYuYZSCcxZNpcRtRtZvMaPsZN74Vudye4Vr/Hm+jSsmnbF+79UeRVxD2+9OZXwE5+xML0PU28KxZa5jSV/fYMtOQ5eYgsZQs9H7qFLfBjGuiJKDn7BoX8up7C08T3hHUfsIzOJ6RuJiXLKDn/FoYXLyC/R8Jzyd8ZMs3BqvY7QxGqO/u1bQp54EL+MD9n84moq0NA6JtLzkWlExoVirC+mdN96DixaTlFj/yV8NJfI2o0cWONHzORemGoyyV7xGnvWp6Ea++9K9n+p8iriHka/MRXvE5+xL70P8TeFQuY2Dsx7g0y7/lNhE/jjnx4kumQdr8x5h8PW6/P3iRDXK6fPEVHKjY7du+FrqCP/ZDJF9T+AXxqB44nr4Q+YMYdNIGHsRNyU3YnImEj88J4YbDqMPt2JHPNbYvwBrNSVZlJRmEF1re2CaouTdlKtFN5RQ3BXCrRBBEcYoP4AOckWlPKly0/m0bdnT9z1ddiMQfjFzWLobbdhVIp6Sxl1VWVYrA1tqa9tfF5dhQ1QKpb4u16ie3QXDJZiLFoAAT1/xogJt2FQDpxIPc24A+RnkV4HWuVm/nTPBO6Y+GvWlWso5cPIJ+YyfXh3/I0W6kwBdB1yL888NhKvs/VHkDA4HJNPbyb/fBJxXmb8+0xk9A2gVBTTnn+an/SLwFxbSrnmR8zwGTz/+Eg87dtnSmDS5FhMNh0egdGMmPkEE0Jpg/07Uh4IG8WUYf7oNHf8u43i0ZnN1l+EUl2Ie+4ZbhjQBaOlhDp9AAHDZzDs56NxUwqlfOjy87n0Gd4dd6OFelMAfkPuZcijIzHatT/0xnAMPr3p8cQkgr3MuPeZSNfG/ot77mli+0VgrC3Fgh/+w2eQ+LOR57++pgTiJsc2vD8Douk88wm6Nfbfle3fkfIN/Ref2NB/7t1GMXDm+evNvRLo5WvE3DmBfhGtvy2FEFcXpwcRt46xdPEzYC1MITXf4uzdu8g+9v59LKsXzKfQpjB07keA/WpTOWkfjmX1a7NJLlSg705ghBuaVkTaikmsf3sS+5JqL6w2/Vtyq4GOA+nkDoQNJMgdVOZ2cuoALQoPjpJ7YilbXx/JytfnkWdTGDsn4A8UbZzGqr+OZF9KPUpZyFxzK6v+OpJVf3+ZXE2D4FsIDzJA1ny+mDeO1X+by+kqhbHbCELaolu0CAK1JA7uXsErD07l3gcXcdim8IzvQ8zZjRQ73v4FK0+B25H3eOrjJMATT2+gyzAGRxhQSe/z+P3TeWDmPLaXKzwHDKKP/X48qtj8wv08MOM51ucoMERzQw/jle/fofKAdph3H7qPB55ZToZSmLvHEe1I/3RJJLyzAZX/JVsfmMHa2W+SWVgB3foQaGzYv7uWRO7uFWybOZXVMxc1vL7xffCza3/W27/gxCnQH36PDZ80tN+tsf/CIgyQ/D5fTp/O5w/NI6NcYRwwiGD7dnhUcerF+/n8gedIyVGgjyawsf+uaP8OlW/ov/0P3cfnzy6nTCn0sXF0sFtdvXMDXx1PJ23HWjanO9KxQoiriVMvzShjMDFRgRishSQln8EUNYjBER7kH9tEUkH7j4wMTbyJ7Vs3O399RRqlNaBqUim3gL+bDyY9UN+0QRaluXVotoNkHdqKRxiUV5uAVoKa2kN2ahVd4vsQEm0kL2AAnppGYcoW6jQN1GGyT+QQMnQcQ+bcg17T0DTAzezYC+/hgxEg9FHGPz8LAE0HYMagB5oN0rTWPxe2/wS7duTR+45beXrpREy6xva5mzCf3agOq6UWixUstXXUWq3nynt74gloMfex4LP77NrnjtkAnN00m9OpFrT6Y+z8ZjdBMZBZYbry/TtUHijKIL0KrGmnybZBuNkDzxa644L+8/Zs6P+8DEosoJV+zY6ZXzeu1ECdIGdnHsF33MqNSyaib9q/2WT3+tZhq6ul3gq2ujpszfrPCNDtPsZ+en7/GZr1X2lj/2V9sxtzLJQ39t8V7d+h8kBxBqVVYEs7TZkNvD08Gtrd1BPFW5n/7NZz/SKEuKY4NYhofsH4u2mUnUwi36K1+Mu4PbV2kmzv9Y7I+3YOeQ5uq2kWclP2YosfTnDXm+nYIRql0shNzgI0CJjB4PET8Sley44Pl1NhGUzvB2df9miG7dQCvv56h92ScirrueB3/mUff/id/GL2aCJyNvL63LVk1/Zj+l+m0+ty2/f9BzyzdL/dkgrOWFve9uDHL3Hw7P6nXtn+26j9Tf6X/hv82Gi8czey84W1VNb2o9er088fzXCA7fAHfNOs/yov0n/5n7xE/tn9T72y/bdR+4UQ1zaX3EfEJ3ooiSNuoV9nL1fs3vm8ovB1B80vGm8jYCmjtr7VUg6xJn9Hvg1MnSYTEaqH0p1kNyWZ0Fh8dKDKjpOXfpRS5YNHC6+41WIBNIzu5vNXVJVhAXQ+gWh5xygu9SEwbhQRXaLQO9K4ympqAILCiHQD5XkTv/nX56xc9WfGeyu0blFE6EAVnuTgkRRO443f5bwjyyupBHSBAejTU0gp8CJ+2HCG9Y7AzYHiV7r/K25/a8oqG8bEQiLoYATlPYKE+e9z2z/nEGpQ0C0K78b95x1JoRRvzJfZfxZAFxCAlp5CcYEXgcOGE947wrHX90r3f6XlhRDXBed+aqamhLy8c2dgg2cAfh4O/cq7tmkDGPjkFwzU+WPSaVgzDlDoQDHlcTtDH5iOH6D3MgFGukxaSai1hsx10zh0SoOqTeRm/4qQsL4EaVB7dBvFTZ9CKjxNJeAV9RTjn56B0mvYLFwQP0vOnET1jKfTuA1MHGmB4o/Z+M+FlOdtIqtgBj2C7uLWp27FavDHzaio2Lml8aPErUj9jl1ZdzAxfBy/X3wj5Tof/Dw1qg9tZUcZqMwczgCdej/MgqVTsBnAUguOnQWBU9vZlXknERETeGXJMCqNvviYFDlrdvGBI/17hfu/4va3Jn0rmad/SlzkGBIX96dO54fZ04hl3xEKLEBmDlWAZ6+HGbdkCsoAtloc/6k+tZ3szDu5IWICNy8ehtXoi5tJUbFmF4cdKX+l+7/S8kKI64Jz//4oyyTp+LGz/9ILW5iAeT0q2sDxEyVo1FCdtY6961c2zOFojd4XD/9wvAIiMJt0aJoBN98IPP3DcW/8k1/TCshKTUHT6YBKcpP2nCufvZS9W3ZQUWNB05WRvXExOS0MuVfsfJUDx09SV++Gm4cPRpMJPaBpJzj877kknTyF1dABnSWT3F1z2bLxADjQfo0kPvzj31h3IIMKozfelJC6/UP+NK/xHiIpy1nw8T5yKizo9WXse385By9j/rKmpfLRy/NYeyCDSqM3ptocDq6dxx+WHHHsI+FXuP8rLt8KTTvF0T/NI2n/aaxGP9xsxRRte5/tb3zZ8P5JWc7ej/dRUWFBpy8j54Pl5F5m/x15ZR7JBzOwGr3R1+ZwZt08ti494tDre6X7v+LyjVT8LN5d9TkrV7zCuA5y52EhrjVa//79VUFhiavb0WYCgoIpzHd0lkX7Onsfkfx3WT9/AZXX6f1ShHCl8Lvf4K27ulK+9c88+Oq3WOTnTIhrilyRdQZNJ3P5hWgHSnnTLy4SpfLYsm6bhBAhrkFyNVaIq9Thj4a6uglXtZ53bwdjP3rG6rCl/od1R2yOXVISQlxV5NKMEFcpCSKX1vPu7a5ughCiDciIiBBXKTnRCiF+CGSOiBBCCCFcRoKIEEIIIVxGgogQQgghXEaCiBBCCCFcRoKIEEIIIVxGgogQQgghXEaCiBBCCCFcRoLIVeruaVPavb623ocQQghxueSGZu1MmQLo3qsHkf7u2CrzSPn+MOlltiuu15EQ8dGyT857fPe0KectE0IIIVxNgkg7Usqd2GGJxFQdZu/uEgyhcSTc3JeatXs5Y7v4d2I0BYbWgoP9uubbthRUJIQIIYS42kgQaU+aDx6c5sDeFHItGqroMEFdb6SjL5wpbrmIfaBoj1GM5gHF/rkEFSGEEM4mX3rnRMrUlVHjgzm+6jsyWxgRsQ8dF3tsv21rLlX+UsuFEEIIZ5ERESdReHNDYjyG5C1k1QN2OaQpVFwsFDSNjDTfxtFLMzI/RAghxNVKgogTKOVG+I2J3FBzkA2HSlDa+aMhjgSEKw0R9mHGXvNlElaEEEI4kwSRdqaUgY79b2Kg50k2bUqnWrv4JNXLdan5Hi251AiKEEII4QpyH5F2pJSGf9xwbgzK4tvNJyi9xCdl/hcfLfvk7L+Wnjd3saAi9xMRQgjhKjIi0p7M3UjoE4i71Yebb485uzjvwHq2plqc2pRLTX6VOSRCCCFcRYJIO9Jqktnw72RXN+OCEGL//8W2E0IIIZxBgsg1qKXA0DxotLSu+eOW6hVCCCGcSe4jIoQQQgiXkcmqQgghhHAZCSJCCCGEcBkJIkIIIYRwGQkiQgghhHAZCSJCCCGEcBkJIkIIIYRwGQkiQgghhHAZCSJCCCGEcBkJItcARQzRk95l5H2/ItRTubo5QgghRJuRW7xfC3TeeASG422uxOwGVLZt9ZFTvmNQd8XpFUPYeaxtvyHYPXo0M2fcwcDoYNwtBZza9znv/XMNyZXn9nPLb1bzxGAb216dyF+3X/7+lQpi6MNPMf3mGwjyMqIjifcfmsPKAu2S6z8z38tbb04lQmvYrr62lDMpu1m/+B3WJrdxJ1/FOv96NQmDbWT8ZSK7/sf+D3v4KfrcdANmLyMaSRx6eA7Jdv3f0vok872MfmMqPnb9X31yN8mL3+HkD6j/hfihc2oQUboQeg7rgZ927pedUhVk7N3F6aq2PQFeTzTbPr5fNJrvG565uDWOU8b+PPzcz7g1AOrKiqh2D6HHrbN43lTK4/+3mQqtbY7FOGImv7itF27WSgpyC7BSQIXV8fXKUk5BQTl4BdIxbiQzX/Si7LE/sKXs2ulrV9INn8ng8b3QWSupyi1AUYDF6vh6ZS2nOr8c5RWIZ4+R9H3Bi9rZfyBT+l+IHwQnj4hoaICqKSa/rLZxWRWggnoAACAASURBVC0VFue2wllU4CzGPjYT78xl7C8YQHx8GLb8b9j/2R/JLLah1HAG/3oekXVr2b/Dn9jhAzDVpZO15ffs3puEjRBueGgtfcKa/rLMI3nJOA5kNDzvMOpTfjykM2Vb7+HL/yahlImoad+QEGMl49Nb2XHUijL3pfvYJ4mNjsZNlVF+ahUH179DXpVG0Nh13JIQfLa9kZP3EAmoug1s+9NzZGsamt+P6DX2Ybp0jsBoK6Qk5VP2f7GYomoHThIxA+kToMGpj3lqzgdkd7iNF9+4n9jufenOZmpnLeGP4wIbN9aT+Ow6EgFVs5n/m/IqOzQN5R3HpFkzGdc3Eh/KyTr8FUsWLONQybn9h4SHYtI0stf+jtlLmr7t2IH13o0Pc9bz+8ffJ0MfzO2/X8gDvRJITDCy5Wsr+o6J3D9rGjfFheJpLebU/vW8t3A5x8o1lEpgzrK5jKjdyOI1foyd3Avf6kx2r3iNN9enYdU0ggY/wOx7b6F7J1/crGXkJm/j3/MXsTXb1nDUHROZPmsaI+JC8bAWkrpzFe+88zknqzVUxD289eZUwk98xsL0Pky9KRRb5jaW/PUNtuQ4donOPOgB+t93C4GdfNFZyqhM3saRBYvIyrYRMGsJt4w91/+dn1lH58b+337Xq+Q09n/sIzOJ6RuJiXLKDn/FoYXLyLfrf4/wUPSaRvm63/FVC/1/0fV2/b/l8fcp1wcT8/uF9OmZQESCkcyvrWgdE+n5yDQi40Ix1hdTum89BxYtp6ix/xM+mktk7UYOrPEjZnIvTDWZZK94jT3r01CadsnjB9A6JtKrsX6DtZCSnavY/8/PKWns/9FvTMX7xGfsS+9D/E2hkLmNA/PeINOu/1XYBP74pweJLlnHK3Pe4bBVApQQl8O5c0Safj4rs0k6fqzxXypFluv8BzdwPHE9/AEz5rAJJIydiJuyO5EYE4kf3hODTYfRpzuRY35LjD+AlbrSTCoKM6iutV1QbXHSTqqVwjtqCO5KgTaI4AgD1B8gJ9mCUr50+ck8+vbsibu+DpsxCL+4WQy97TaMSlFvKaOuqgyLtaEt9bWNz6ursAFKxRJ/10t0j+6CwVKMRQsgoOfPGDHhNgzKgRNheSXVAP7R9Alzh6J1vHjvXdw98w32ahqW2nLKyyuotjTUZa2qoLy8goqKGiyAUj6MfGIu04d3x99ooc4UQNch9/LMYyPxUgrjsCeYv2ARL46PACD4R79h/oJFzF/wG0Z1aH39pSgFSkUx7fmn+Um/CMy1pZRrfsQMn8Hzj4/E0/74TQlMmhyLyabDIzCaETOfYEIoKEMiDzw1ib4R3qjSPErrvQjvfRtPPn0noUqdq79/JF6WMqoNQdww8lGef2QwRvv6w0YxZZg/Os0d/26jeHRmw/G3RhkS6f3UJDqGe0NJHnU2L3x638agOXfipRS2mnLqyiuwNvZ/fVUFdeUVWCpqGl9/H7r8fC59hnfH3Wih3hSA35B7GfLoSIxKoQ17gjHzF3FTY/96jPwNY+YvYsz839ClQ+vrL934hv6Pe+5pYvtFYKwtxYIf/sNnkPizkee//0wJxE2Obfj5CYim88wn6Bba+vGfrb9/JAZLGVZDEAEjHyXxkcFozfo/PrGh/927jWLgzJHnvT7mXgn08jVi7pxAv4hWXxYhRDNOnyOiAcoYROzAWALcrFQWpJJ04gw1bTRMf3Xax96//4os8wxGPv4z/Dv3I4BPyW5abSon7d2pHDwTR/9H36Gbf3cCI9xIKi4ibcUk0oCwO7YwtGezatO/Jbf6Trp0HEgn9yWkBg4kyB1U+nZy6gAtCg+OknviBEmr3yRHu4tbnv4lQZ0T8GctZzZOY9XGc3NEMtfcem6OiKZB0C2EBxkg6x988d5iqoyjGPLkK0R0G0EIa8lq7bBPf8nqPeOYPXAgj7zxb+7OPsG+bWv4+JNtZFs1Tiz5OfctOTdHZMebd52bI6JpQASBWhIHd6ey5rXF7NFN4OX3ZxEf34cYvuawlz+dOoWe3Z3BO5hO3qBUOV4GoLX1TTqN44WFw8ErkAAvI1Ts4NvdFugyjMERBlTSUh5/Zjl55uE8+86zDBkwiD58zbam8h5VbP7VbN5Li2HWW68ytmM0N/QwQm0Qge7AmXW8+Mg7JLn1YMzUGwkhHyOcqz//S1569E2+D5jM/82fTsyNI+jLTnY11a8d5t2HXmZHyP28/voUwrvHEc1/ONha//sE4dG4/82z3qHYrQdRU2/ES+WjA4qX/pw1S8/NEcl6665zc0Qa+99dSyJ3dyrJry8mVzeBm5bOIii+D358Tb6nP152/av3DsarsX+NBqC19Xb9P2JBQ/+bG/v/dGP/h0UYIHkpXz6znCrzcG5c9CzhAwYRzNfn3n8eVZx6ZjaH0mLo9+arRHeMJrCHkaTaSx9/U/0q/0u2PvYm+QGTueUf0/EfPIIQdpJj1//7H3qZ7JD7GfXaFLxj4+jAf8hvXF29cwNf3RJATPGXbE5v7UURQjTn3CCi6VA2G8rsgVtpCVX6ALxDutO5KI+kgvbf/dDEm9i+dbPz11ekUVoDqiaVcgv4u/lg0gP1TRtkUZpbh2Y7SNahrXiEQXm1CWjlmpXaQ3ZqFV3i+xASbSQvYACemkZhyhbqNA3UYbJP5BAydBxD5tyDXtMazi9uZsdeeA+fhhNm6KOMf34WAJoOwIxBDzQbpGl+/JpWyH/+NIeyn07ltuH96R4Wz0139aR/1Gv8/I8bKWktfKoT7NqRR+87buXppRMx6Rrb727CDFi+epGJX0H43W/w1l1dyVj+OD//8FTT3qG19Y1/vWpGb4I6eVNfW0bu0U2sfe9dtpZrEOmJJ6DF3MeCz+6zO353zAbg7DyHbE6nWtDqj7Hzm90ExUBmhQkKd7Ht6FRi4sbz/FuxpKSnc+rEHjZu2EG2poF3Q/3kZZBqAVtuOjk1EOPhhY/erh+KMkivAmvaabJtEG72aCjXzAXvv8JdZBydin/ceIa/FUvhqXRKT+zh1H92ODY/R50gZ2cewXfcyo1LJqJv6n+zCQOgNrzIig3gNe0NxtzVlbLlj7PhX3b929r6pv43eOPR2P+VRzeRtPhdshr73wjQ7T7Gfnp+/xua9X9pY/9nfbMbcyyUN/b/JY/fu7H+vAxKLKBy0ymvAX8Pr4afzybFGZRWgS3tNGU28PbwaCjXdCTFW5n/7NZzxyWEuCxODSKaNZvD27LPLQjpybDYQDw83IGadt//pUKEM9Y7Iu/bOeQ5uK2mWchN2YstfjjBXW+mY4dolEojNzkL0CBgBoPHT8SneC07PlxOhWUwvR+cTchltsl2agFff73Dbkk5lfVc8Du3pePX6s+w65O/s+sTcI+8nd+8/BC9E8Zwk99GVpe0suPwO/nF7NFE5Gzk9blrya7tx/S/TKfXZba/Ner0x/z88ffJvMjJ2fb9BzyzdL/dkgrOWFvclIMfv3R2pELTKln124c5MiiRvt0jCe8cx+gHxnD7yI955hcfkNqmR3Fh/2taFsm/e5iCQYmExEbi3TmOrg+MIXbkx/z3qQ8obe2kGX4ngx8bjXfuRna+sJbK2n70enU6wZcuddlUxsd89fj7Fw1HtsMf8E2z/q+8SP/nf/LS2ZEKTau85PG39vYTQjiHU+eIKJM/YZGRhAW6o+yusSpH5htcy7yi8HUHzS8abyNgKaO2vtVSDrEmf0e+DUydJhMRqofSnWQ3JZnQWHx0oMqOk5d+lFLlg0cLr7jVYgE0jO7m81dUlWEBdD6BaHnHKC71ITBuFBFdotBfWM0F9EMeZ8E77/L2L39EBxTV2afIqwUwY7b7k77WYgF0mL3czyuvdYsiQgeq8CQHj6RwGm/8nPmOLa+kEtAFBqBPTyGlwIv4YcMZ1jsCNweKq64jmfngVIb7pbFqyT947aW/sCEbDF0G0j/4XP0ER9DVCLqOkXRyB6orKGuD94fqOpI+D04lwi+NpKX/YPcf/kJaNui6DCTELk1YG/vf2Kz/6RaFd2P/5x1JoRRvzE7ufwugCwhAS0+huMCLwGHDCe8d4dD7r9Xjb6yf4Ag6GEHrGIlPY/+31c+nEKJ1zr00U2/ANywKP60j/iFV6L39gRrKSmu4roc0tQEMfPILBur8Mek0rBkHKHSgmPK4naEPTMcP0HuZACNdJq0k1FpD5rppHDqlQdUmcrN/RUhYX4I0qD26jeKmvywLT1MJeEU9xfinZ6D0GraGc855Ss6cRPWMp9O4DUwcaYHij9n4z4WU520iq2AGPYLu4tanbsVq8MfNqKjYuaXxo8SXZj2WTK7XaPokPsHCPvdQqeuAv5eGNWM3u+wmmKSmpWNLjKX/rH/xr/ut2HJW85tffkRGZg5ngE69H2bB0inYDGCpBYfOQm3h1HZ2Zd5JRMQEXlkyjEqjLz4mRc6aXXzgSPnqDvQYM4FuhvGMmpxHuc6XwA5AVRZZRYClqf4xzF0yiEqjL756jZKd33KgLdpf3YHAMRPw04+n65151Ol8MTfuv7zo3GYlaemoxFg6PvIvbr/PispZzX9/9RHlmTlUAZ69HmbckikoA9hqcd5vjVPbyc68kxsiJnDz4mFYjb64mRQVa3Zx2JHyrR2/pan+MSQuHoTV6ItJr1Gz61vOtO+RCSHsOHVERLPmkXzsFMU1Gp4d/HCrLyMv+TCnSp3ZChco2sDxEyVo1FCdtY6961c2zOFojd4XD/9wvAIiMJt0aJoBN98IPP3DcW/8k1zTCshKTUHT6YBKcpP2nCufvZS9W3ZQUWNB05WRvXExOS0MaVfsfJUDx09SV++Gm4cPRpMJPaBpJzj877kknTyF1dABnSWT3F1z2bLxQONkxkvTSr7iby8vYWvSGercO+CjK+PUnlX89Y/vk2oXPHPW/IOlO05RVm/E09sLL4+GOQikLGfBx/vIqbCg15ex7/3lHHTiR701LZWPXp7H2gMZVBq9MdXmcHDtPP6w5AjKkdcv+zPm/W01h7LK0fuGEOhhoyhtJx//5Z/ssGoX1O9hLSRp00JeXrgDS1tM3s7+jB1/W82Z7HJ0viGYPWzUpO3k6F//SY7dR0wrP/8Hh3aeoq7eiNHbC6OnqeEXQ8py9n68j4oKCzp9GTkfLCfXyf1/5JV5JB/MwGr0Rl+bw5l189i69IhD77/Wjr95/Yb6Qoo2LWTrwh2Ovb6NVPws3l31OStXvMK41j4NJIS4gNa/f39VUHj9XC0NCAqmMN/RWRbt6+x9RPLfZf38BVRe158MEuKHqWkydPnWP/Pgq9+2TYgU4gdEvmvGGTTd9XzhSYgfLKW86RcXiVJ5bFm3TUKIEP8D+a4ZIa5Thz8a6uomXNd63r0djP3oGavDlvof1h2xOXbJSAhxHrk0I8R1SoJI++p593ZXN0GI64KMiAhxnZITpRDiWiBzRIQQQgjhMhJEhBBCCOEyEkSEEEII4TISRIQQQgjhMhJEhBBCCOEyEkSEEEII4TISRIQQQgjhMhJErlJ3T5vS7vW19T6EEEKIyyU3NGtnyhRA9149iPR3x1aZR8r3h0kvs11xvY6EiI+WfXLe47unTTlvmRBCCOFqEkTakVLuxA5LJKbqMHt3l2AIjSPh5r7UrN3LGdvFv5OiKTC0Fhzs1zXftqWgIiFECCHE1UaCSHvSfPDgNAf2ppBr0VBFhwnqeiMdfeFMcctF7ANFe4xiNA8o9s8lqAghhHA2+dI7J1KmrowaH8zxVd+R2cKIiH3ouNhj+21bc6nyl1ouhBBCOIuMiDiJwpsbEuMxJG8hqx6wyyFNoeJioaBpZKT5No5empH5IUIIIa5WEkScQCk3wm9M5Iaag2w4VILSzh8NcSQgXGmIsA8z9povk7AihBDCmSSItDOlDHTsfxMDPU+yaVM61drFJ6lerkvN92jJpUZQhBBCCFeQ+4i0I6U0/OOGc2NQFt9uPkHpJT4p87/4aNknZ/+19Ly5iwUVuZ+IEEIIV5ERkfZk7kZCn0DcrT7cfHvM2cV5B9azNdXi1KZcavKrzCERQgjhKhJE2pFWk8yGfye7uhkXhBD7/y+2nRBCCOEMEkSuQS0FhuZBo6V1zR+3VK8QQgjhTHIfESGEEEK4jExWFUIIIYTLSBARQgghhMtIEBFCCCGEy0gQEUIIIYTLSBARQgghhMtIEBFCCCGEy0gQEUIIIYTLSBARQgghhMtIELkGKGKInvQuI+/7FaGeytXNEUIIIdqM3OL9WqDzxiMwHG9zJWY3oLJtq4+c8h2DuitOrxjCzmNt9w3BKuIe3npzKuEZn/Dzx98nwzCKFz59kn5Vm3ll2l/YFXU//3h9CmGahlL11FeVkHFkEx+/u4Qdua0HLhVxD6PfmIp35id89fj7VGht++3GQggh2p9LgogyBBOfEIdffQ6H9xyn1CYnkEvRbPv4ftFovm945uLWtD1lKSO/oAqDbyBRg37KLzvZePbxJZy8Do9VCCHE+ZweRJSCDlFd8TPUcOZ48nUdQlTgLMY+NhPvzGXsLxhAfHwYtvxv2P/ZH8kstqHUcAb/eh6RdWvZv8Of2OEDMNWlk7Xl9+zem4SNEG54aC19whr6SKk8kpeM40BGw/MOoz7lx0M6U7b1Hr78bxJKmYia9g0JMVYyPr2VHUetKHNfuo99ktjoaNxUGeWnVnFw/TvkVWkEjV3HLQnBZ9sbOXkPkYCq28C2Pz1Htqah+f2IXmMfpkvnCIy2QkpSPmX/F4spqm7D1y19Db+bs4xcjwE8+dbvuSV8KEOjlnAyzcHyVm86zf473W8KhcxtHJj3Bpk5CqUSSPhoLpG1Gzmwxo+Yyb0w1WSSveI19qxPQzWOoKiwCfzxTw8SXbKOV+a8w2Hr9fueFEKIq43T54honpF0DXGnNjeZ9DLVkEyud4HjievhD5gxh00gYexE3OyP25hI/PCeGGw6jD7diRzzW2L8AazUlWZSUZhBda3tgmqLk3ZSrRTeUUNwVwq0QQRHGKD+ADnJFpTypctP5tG3Z0/c9XXYjEH4xc1i6G23YVSKeksZdVVlWKwNbamvbXxeXYUNUCqW+Lteont0FwyWYixaAAE9f8aICbdhaI/XzVZPvQ3AgqXuMsoFjqB7oj86zR33bqMYOHMkRvv2mRKImxzb0L8B0XSe+QTdQs+tNvdKoJevEXPnBPpFtNGxCCGEcIhTg4hSBoKjOuNBDTafHiQMHc6gPp3x4HoPI/vY+/exrF4wn0KbwtC5HwH2q03lpH04ltWvzSa5UIG+O4ERbmhaEWkrJrH+7UnsS6q9sNr0b8mtBjoOpJM7EDaQIHdQmdvJqQO0KDw4Su6JpWx9fSQrX59Hnk1h7JyAP1C0cRqr/jqSfSn1KGUhc82trPrrSFb9/WVyNQ2CbyE8yABZ8/li3jhW/20up6sUxm4jCLmMo9c638Vba9ax+rNf0L+leRyRP+EPC//J4sUvMipYw3JyM1syL2cHh9j30H18/uxyypRCHxtHB/v1HlWcevF+Pn/gOVJyFOijCexhPLu6eucGvjqeTtqOtWxOv4z9CiGEuGLOHRExhxLqp0fVlJGbmUJWiQWjb1eiQ01O2f3QxJtcs74ijdIaUMWplFsAow8mvf0GWZTm1qHVHyTr0Fayk7dTXu1An6g9ZKdWga4PIdFGvLoOwFPTKE7ZQp2mgTpM9okcdAHjGDJnB5PnzCFIA9zMjl2T8/DBCBD6KOOf38HkZ/5AhBnQmzHoL9z8YsevLOXk52STk1NETQsjKZrRh+BOnfD3NGJJ/4I/vbyc7BYCy0X7tziDsiqwpZ2mzAZ4eGA8b4NsSlMtaNZjZH2zm+y9eymvONe/WvFW5j/7M+b8+XNOX8eXCoUQ4mrk1Dkihg6+eGpQnHGM7DMKVW4iYEAUXj4+kF3Q7vvfvnWzS9c7Iu/bOeQ5uK2mWchN2YstfjjBXW+mY4dolEojNzkL0CBgBoPHT8SneC07PlxOhWUwvR+cfVmjGQC2Uwv4+usddkvKqazngnmzFz3+nPX83v5TM81Wq5QPeXQe/Obte4j0BGuJurDyS9V/GfI/eYn8K65FCCFEW3HuiIimoWkaRje3hqduJgxAfX29U5vhdF5R+LqD5heNtxGwlFHbRodsTf6OfBuYOk0mIlQPpTvJbkoyobH46ECVHScv/SilygePFl5xq8UCaBjdzeevqCrDAuh8AtHyjlFc6kNg3CgiukTRwoDIlcnawKbjVggYwdhh7m1duxBCiKuUU0dErEUFlNT74xvZj94+Veh9/DBSQ86ZEmc2w/m0AQx88gsG6vwx6TSsGQcodKCY8ridoQ9Mxw/Qe5kAI10mrSTUWkPmumkcOqVB1SZys39FSFhfgjSoPbqN4qbLGoWnqQS8op5i/NMzUHoNm4UL4mfJmZOonvF0GreBiSMtUPwxG/+5kPK8TWQVzKBH0F3c+tStWA3+uBkVFTu3NH6UuC0VsnHTQe7pMYBBP/4xHbasoUTuCyKEENc9p46IaLXZHD+SRlEVeHbogJu1lNykQ6SWXviJkOtK0QaOnyhBo4bqrHXsXb+yYQ5Ha/S+ePiH4xUQgdmkQ9MMuPlG4OkfjnvDoBKaVkBWagqaTgdUkpu051z57KXs3bKDihoLmq6M7I2LybFeuJuKna9y4PhJ6urdcPPwwWgyoQc07QSH/z2XpJOnsBo6oLNkkrtrLls2HoB2CAnlmzaypwr0PX/MmM5tXv1FqfhZvLvqc1aueIVxHa73idNCCHF10fr3768KCq+fEYmAoGAK8x2dZdG+zt5HJP9d1s9fQKX8hX9VCr/7Dd66qyvlW//Mg69+i0VeJyGEcBr5rhln0HRyj9CrlFLe9IuLRKk8tqzbJiFECCGcTL5rRlyzDn809IrK97x7Oxj70TNWhy31P6w7YmuXS05CCCEuTi7NiGtWmwQRIYQQLiUjIuKaJUFCCCGufTJHRAghhBAuI0FECCGEEC4jQUQIIYQQLiNBRAghhBAuI0FECCGEEC4jQUQIIYQQLiNBRAghhBAuI0FECCGEEC7j1BuaeUYNol+E5wXLbQVH2H5U7oYqhBBC/NA4/c6qStmoKc2jvA5w8yHQ14zNZnN2M4QQQghxFXDBpRlFWcZRThw7Rn6NDo06Cs8UOL8ZQgghhHA5p46IVKbtYlsagAZuHQkNMkFVOllFSr71VAghhPgBctlkVY/QMDrobJTlZFElIUQIIYT4QXJJEFH4EdbRG6wFZOXWuqIJQgghhLgKuCSIGEPCCXKD2jMZFNW7ogVCCCGEuBo4PYgo5U7HMH90qpyc7DKZGyKEEEL8gDk9iGgdOtPJU8NWnElutbP3LoQQQoiridPvI0JpEru/TWp4LKMhQgghxA+a3OJdCCGEEC4jQUQIIYQQLiNBRAghhBAuI0FECCGEEC4jQUQIIYQQLiNBRAghhBAuI0FECCGEEC4jQUQIIYQQLiNBRAghhBAuI0FECCGEEC4jQUQIIYQQLiNB5Cp097Qp7V5fW+9DCCGE+F84/0vvfmAUbnSM60tcUBmHNh2jsA2+6M+REPHRsk/Oe3z3tCnnLRNCCCGuBhJE2pEyhzJwRH861lRiCAJ3B8o0BYbWgoP9uubbthRUJIQIIYS4GkkQaU+eJuoOf8P6wjBG3dah1c3tA0V7jGI0Dyj2zyWoCCGEcAUJIu1IK0jje0A5MBRiHzqaHl8qjFwqVFys3kuNogghhBCuIEHExZoCxMVCQVMYab6No5dmZH6IEEKIq5kEERdzJCBcaYiwDzP2mi+TsCKEEMLZJIhcoxy9NNNELssIIYS4Gsl9RK5RTXNI7Od/2D9v7lJzSIQQQghXkSDyA9DSRNgmF7tsI4QQQjiDXJpxAq0miQ0rgDa4mdnlah5C7P+/2HZCCCGEs0gQuca0FBiaB42W1jV/3FK9QgghhLNp/fv3VwWFJa5uR5sJCAqmMD/P1c0QQgghhANkjogQQgghXEaCiBBCCCFcRoKIEEIIIVxGgogQQgghXEaCiBBCCCFcRoKIEEIIIVxGgogQQgghXEaCiBBCCCFcRoKIcBr3yJu475d/ZsYgdXZZ5MRf8/ysCcR3uLLb3yvvPtzz4iI+WLGalW/PoItSrRcSQgjhcnKL93aiVDS9Zy+le+1C1r57iB5Pvk10wTz+n737Do+qyhs4/r1TkkxmJr33UAJJQKSvGERQXgHFsq91lbUv9l19V9eui65dV3FdXdYVXLuiCGJvVAWkNyFAEkIaaTOTTCaTaef9I0BCTQIhofw+z5MnyZx7yi2Z+eWcc+/5+B0Hw++bQuKmh5j16Y9HVkf4JMbeNpkI2wd898pU7PusZaOsV3LWHTcTve/ragm/PHkX2wNds/aNUgZSx93NIzeOIMYQYMnSljRDeAZDJ+QxaORIZj41hffWOw+rjl6/vZlLBiahvE6qq+vwdFLbhRBCHF1dGogopQiK6kFWzwTCgoMIeOupLdnC1tI6VDcsCHd0VeNuAMxhBGtxhAR7CVhiCDUGMOqhqaG6y1qifHW46upo6SOo6tIPamPuNdw/eQQx/hLmv/4a7/zcklYw6xleMNzEHyZmc+m9d1J+2xTm2Tt+LcRERQKwfsaNPDS3vlsWGBRCCNFxXdsjEpRMn9x0wlUjdfZa9NYo4nr2w+f8mcK6Lm3JUadpDppcfoi2EmyNxeTcicscjdncSBDQVN+8Ho4WMZr+464jIz0Vg68Ke/77rPxqJnavhlIjGHbPM6R7vmD10kh65w0i2FNM6aLHWb5iK/sOPih9HsPueIr00Cq2vX0JK2t3JdjnsOjVf1K314dz88/KdAp9zrmN3j17EEQ99UVzWPPlG1S5dm0bfmar9tXgKPiUNd+8Rc2u9N3tT09PxeivxbH1E1Z9/Ra1jbvKV2ZGXzyeRJ2P9dMf5sW5VXvqBlB1Bcx//SE84a9z76jhXDQhk3nvx61CIAAAIABJREFUFnX4eDsbGgAzKhDocF4hhBDdp2vniJjMhGrg2bmJdRvWsa7IhqaFYDafmCNEbpcdgsMwWmMIcW7HoYvCZA4jCIWroQalepN72aP06dUDg8+OTx9P9IC7GDl+JFrrOQ7G08nJy8WgdBjDskj/n/voHbV/faFDriQ1FALF7/FrkbfN9ikVTsZ5TzOgXy4heg8BYwyR2TcwYsJ4jEqhVE9yL/srfXv3xOiz49XHEt3vZvImnk+QUnvan9UzA4PHhleLJqrfzYw8dzyGPe3Pom9WELCJJfMOvBihpjXx84IVuJQirW8uQR2c36GUgSBj8zUUHGzqUF4hhBDdq2sDkbpKqt2KoOh0kmPjSEsMR/ls1Nja/tA8HrkbHKC3EBwbg9G5BacrmpBYC0HU01TvhbgzSY7RoxyzWfjiBcz51zRqAorgPmeR0LqgYCdF75zPnBfvYEutAn0W0SnGvSvTD6DP0P7oqKFo0Se4W/V+aDFXcc5DP3HJg4u55MHFXHz5+c2BjpZBqLaZivy3WTR1PJ++9CI7Awpj+hCiAOLGkBK7q30vXchnrzzFjro6SBxMrIE97adsGl/9/ULmvPgoOxoVxl55xO2p3YrFBPgc2A7V62Wz4wAwW4ho5/FVxjzueG0ar73xNg+MjcRTvZx5y2vamVsIIcSxoEu7IjQcFG+tICo3kczsaJTyU1+8lYpGWvfWHzUj8kbx06L5XZbe6LQDYVjiDHid39DYcC6WWCt6amlyAqFWjAD27dh9oOwF1HshKshKkB7w7y6pBMdOL1pgHWVrfyI0CerdIS0Vh01gxK3jCQmDQOlHbCrw7jVHQvnqaaxzsGfQot7ZPKyjNlC6uYzY08Zx2p8uR69pzdmMIegBTHu3T/N/yZKpX+4qRGtJT7yRCffd2PyqDsCEUQ/NFWrN57bdnRzaQS+F/Y+/meiERBI1DaW8OMq2UVIboEsuJiGEEJ2iayermlLJyUlE31DMxvwqgtJy6JHWn171S9lSe/TH9g8VRByNdI/LRoAkwmNMuAvzcYdZiI+2osNGYz0Q2q5m76Vy0T3sGeAIb/6mGcIw7/rZ53Hh2zeT8ysWv/L3ve+q0TSImsTwCecTZvuCpe98gtM7hP7X3kR8B9sUKPo3P/ywrHWFNPjZFQ/4CQQAzYD+UPGBztAc/ODfv/277Ht8Ne/XPHLh1yh9NOPvf4XJgy/hsjGzWffZCTbhSAghTmBdOjRjjIrGqoOG8iJqG+opL6nCQzBRMe3tjD/OOG00EUpYdDiNziqaGpxYoxLBV4vbDTTW4wWISCfCAFpED6xGwFOPx3/ooltTte/z7VMPUOxS6DMnkZNhbDsTQGIvwnSg6jZTWfwrDsIIbX1FuOqb767Z1T4VcjZDb5nNxNsfIkmv9rRfFx6NVrUJW52VmJwxpGSk7QoqAGqxOwB9IimpB2+KKT2ZSMBns9HRMELz17BtRx2apsNgaOe+CyGEOCZ0aY+Iz9mAhwjCewymX3Qjeks0wQSoa2joymZ0nXobHsxYLTYa6wI0Ou2EhmeC82dcAJXzKa25iuyYCxj5pxH49FEE6zTc+T9S0dG6vD+yYVk+KaOy6DHqYja/+V5zHYdSU4ILMGf+kQl3TkLpdQS8tISnVT9QWnUV4XEXMPKPv8Gji8YUYsCzdQ3Vvtbtv4TRfxqNzxBJkEHhXLqY9Xsq2cTy1XbGn53O2KvO5punv6Nmn+eXqNBcJl0wEAM+1q1cgfcwbr01m5snqbobD+85JEIIIbpHl/aIKPtWNm4po85jxBoZjYkGbKUb2Vzq7spmdJ36Wtzo0eltNNZBQ0MteoMRXDW4AU3LZ8MHU8gv2I7PEIkhUEXtuhdZ9NX8w3quSv2SN9nRCLrUK8jpFdx2hvK3WL5gGU63B01XR/n3/6WiVU+Mpm1jw4ePsnlbIT5jFEZVTe2Gafw0ZzYeTdun/eHoPaXs/GUKC39Ys2eOiqYFWP7+DJba/EQOv53nnr2bsektE0YihkxiyguPcm6aAfe2D3nzm9p9W9kuIcFBzd9N1sPKL4QQontogwYNUtU19u5uR6eJjo2jpurAt4mK7qPF5zH5ntsY29PEsufP5+mFzYFKz6tf47mLYqlYMoNnX5xDgfvwJpqmXT6Vv1+eiS7gwrbuAx58+GPK5KFmQghxzNMnJiY+6mo8cXokQs1mGl0n6FDP8ayhmF++ns38TdXYK7dSuuvpqZpqYNPsV5j22Tps/sMPHOy/rseZcgp9kqMIV4V89/nq/R55L4QQ4tgjPSJCCCGE6Day+q4QQgghuo0EIkIIIYToNhKICCGEEKLbSCByFETHxrW9kRBCCCEkEBFCCCFE95FARAghhBDdRgIRIYQQQnQbCUSEEEII0W0kEBFCCCAkfRST/vwU1wxrWQsp/cJ7eWDyRHIj5Cm9QhwtXbr6rhCia+njUrnpigGMybJiVW4KN2zhX++sY2WdfLDuppSB1HF388iNI4gxBFiytCXNEJ7B0Al5DBo5kplPTeG99bK6sxCdrUvXmlFKERSZQe+cbLJ69iA5PpIQfx02p2fPaq1H6lhYa+ZYaIMQiihuum8Ml/YKxeB2U68LITU9iZHpbr5ZXINL1uIBwJh7HU/cM5b4QAnzpz/Lf+dV4Ao0Hxt74UbKDOkM6J/NwGFp7PxhPkWHuTCjEOLAurZHxJRCdm4mVuXCYatFb4kiIesUaFrCthNnuZtjS/xp9PvDlWTkJmP01GJf8yVrX/+IGkfzm6my5pD1h+vpfWo6wdRTt/5r1v7rParsGuZLX2LcFV6KvtCRlNfIxhcWEn/HdUTueJv5j87GiYaWkEe/P1xBek4SRr8Nx8ovWD3tI2rrNZQaytB3Hya96TtWz4mk9yX9CXaXUDbz7yz/ohClaUdc/6Hyq9QrOWfq5Vg3f8LK7QPIHZUEJYtZ/fxUSspVGwcOlBrADVNvZUjwPglFs7jvyS/aXFRPxUxm/M3XYy15mxWVQ+jXPw2qf2D1x49RbGuuX4s8m/7jbyQjLRVjoAb71o9Z9eV0alw96H/LB2Q3TmX29GX0ufVtsqoe5eMPaxhy98ukbL2bTz+df+gdSEtlRIIOVb2Zux9YxuqgdP721EhO75tBniWfWQ2gzDFccdVgLsyJIIImijdv5bW3m3tMUiaO560LAnz9vcZpw7zM+HcRw68fTM/SNfz5hU1sR0Mfl8rk3w3g7N5WLP5Gtm3I559vb2Bdg4ZSSTz4ymjObtrKK9+auOjcBMKb6vh57mKe+dGOV9OOuP5D5VeJ/Znx2ClkbNvAiyWJXP0bK6p8O69NW8q3lbvPsZnRF48nUedj/fSHeXFuFdByXlVdAfNffwhP+OvcO2o4F03IZN67RXuf5+SJPP7kdfS0f84Td/2b9T4JVIToiC6dI2KMisGqA3vhStZvWM+ajSU0EUJ0bGRXNuOkoVQGOfffQ9/BGRi9djz6aKJHXsPpt59DkFIoFUbG7Q8zYGQfQoxe/MHRRJ52FafddBZGtfuDOpWk36RgCDuF7Dt+S5zFRMiAC+nRF5TKJOf+/yNrYCrGJgdeIokaeQ15t56FQbX6oA8eSs4lWRgCOozRPUm7/g56JdEJ9bcnP5A8lty8KHRaCCG9xjLk+n3SD8pEZEIiiYlJe30lxJjRd+RERJ9Pv9xYNEyEJE1k8DnnYVQKpbLIvWwKfXpmYPDa8GrRRPe7lTMmnodB7cBp80NYAmYtFYvVB+FJhBqTCDWBy17cdr2hRkIBauso9ILmKubBO95h9A3fMqtBQ6kgJlw7mpuGxRJr8OMJMpM1+FT+OimTsD3HJ5zTBocRYk1g0rU59DcZicnJ5ryeoFQ4192WxyX9wjF73NTrTGQPG8QT12RiaX18g1K48twYQgIalsgozr7iNC6OpxPqb09+IKEXvx9qQqcZic7szZ8ub52eRd+sIGATS+YdeLFMTWvi5wUrcClFWt9cgva5dkz9h9I/3IgpbSgDU9s+LUKIvXVpIKICzX/AIdYIjDodoWHm5i4ZFejKZpw8MvJISTOgqr5i0bXXMPeWlympcUKvAcQYAS2VEC2fil9msvj6y5l9/TQqAwpj7gBaQkNF6St/YnMR6Ne/wTcf5gNmgqxAxukkpxpgy3/56uqr+eyG59lRrzAOHsZez5YNdVH06O/57Nr72VquQN+TmGzjkdffrvyAtp5VN0zis798RJ1S6LNyiGjH4dO0JTx32UQuvOC8vb4u+vNMajoyrKGtZMVL45jzxgzqlMKQcmpz++JGkxJrgNJX+fL5Ccx+4WGKXQpjrzNI0Lw01NnAEo85IgWzYxt1lkQs0YmY8eOsLWl//QdtVxixWg0rVq/jgbs/YuKff2F1QGHJSqDvno0Ui2d8wfslEJS/ihvm1gBBhFmA5DROT9KhClbx+zs/4bd/XsQ8p8LSL5Uhresxefj2hY/57f99y6ydCvRR5PbUHXn97coPaJW8cs/H/O+T6yhUitAecfTek2jFYgJ8Dmx1hzhWNjsOALNlv2uncek3fL1pO4VL5jJ/e0dOgBACunhoxldTib1HFJEJ/RkW78fv19Djw+Y41DtA5xmRN4qfFh28O/uES7eaMQJU7sDuBc3xPUuu/35XogZqM+VLK4m7aAy/mXEhep3WPFXHFNzqwvAQ8DTh90HA4yHg8+1ffq9JjP94UnOpOoAQDAZgz6ZlOAq8aP5fKf3xF0xZUO8MPvL625UfsO3A4YJAYTF1AbCGhja3u4PHty0Hze8sxOGGgLsARwCsQZbm+kPDmr8n3cS5D0wGdh8/EwY91NjKQR9HaFoyofbV7IjrgTnOiIlaym0eWg8hHFb7VQ2LV9YzcFwPHnw+hxC9hk4Dgnf1pADgw+Pz4fGCz+OlyedvyW8JwgJomafyzrRTAdDpAAyY9jr/TgqLA2j+ahb9XEp8JhQ3Go68/nblBxx2tjWCr9hOaQAyQoKw7knUmg9jezrIdm2/bwiq2Rbx6l8WtZQnhOiQLg1ENG8Fm9YESEmMROeDsKRELE3llFYF6Io/4LbepE/09P2kXMzwm8/BWvEdSx+ZS0PTQPo/czUdXSknsP4tfnxzVatXnDT4Drxt1YdTqNpT/+VHVn8ntX+3fY9fR+eIHG4QEyh6je+/X9LqlXoa/OCxleFnMGEZdQTqZuMMGUFUuhE95Thr2m5/mxJzuf/qLDJ2buWJF/LZ4UnkpgcGMrCD7fdvWs0tM8tbveKh4iDnf8Vn81ixp/5+R1Z/p7TfTyAAaAb0h3oL0hl2Dcf5OciuCSEOU5c/R8TfUEnRlnxsxkgsej+27cU45b+Io6OuAS9AfCoRRlDWMxj66n857/W7SDIo6JWJVQeqZhuVG7biwIqpI1dEfXP5uuhotO1bsVVbiDl9JCmnpLZvDsWR1n+k+dvUSXNEDsZV13z8wmLQKn/F5ggjJmcsqRmZzeXXluEigpjkJBrtG3E5wolJiQFPOc723JTl8uICiAoj0wgqNJ3Hp17Jj6+P5aJQhZYeRboO/HYby/NrKSSIqI4cP6cHJ6CPMmEorWVzbRADhqQzOjv8gD1O+zrS+o+4/QDUYncA+kRSDjG/w5SeTCTgs9nomv5bIU4e3fIcEc2cRmZ8CMpVRFFF5926K/axfRElxf9LTvo48qYPwqOLxGQ24l25gWovUFKOCzD3v5EJMy5FGSDQRPuviqKfKCu5mL6pEzlz+un4jOEEBSucc5axvj35j7T+I83fht1zRJ47cOKRV1A5j9Lqa8iOvYwxd47BZ4giyKhwLl3AOoCaMhqUgbjIOMrqynGF1mHJToDar6lvT/nFO/ipIofLEvvw7POp1OuDiTZpuH4tYlEDqAoHFaSSnD2Ed17ohzKApwnaHWWVFvNTeT8ykrJ58fk0XAYT4cGKkm9KmNaO7Eda/xG3H4BNLF9tZ/zZ6Yy96my+efo7agJ7n1sVmsukCwZiwMe6lSvwyvuVEJ2qy3tElDIS3zONUM1DVUGxPMvgKNK0IjY++Tz5q4rxGSMJCtioXfxffpr6FR5Ng60fseKDlTidXnT6Osrf+ogKb0fKL2DDE8+zZc0OfEYr+qZydn7+PIve3NC+D+ojrP+I83czTdvM+vcfJn9bET5DBDpvCRXLHmbBd6ubj5+vhAYX6PQOXLYATnsFeoMRZS9r7uloq3xq+ffUxXyywUGDIRgrbvKXr+bBaflUaRoUbeSFz8opafBj1DexdOZ6VnRg3EHTHPzn5UV8vMGByxBCsKeeFd8t4t6ZVaj2nP8jrP+I8wOaFmD5+zNYavMTOfx2nnv2bsamt0wYiRgyiSkvPMq5aQbc2z7kzW9q9ytD5U7mP59+xqyZTzAhot2TTYQQu2iDBg1S1TUnzkM8omPjqKk68G14J1MbhBDtp8XnMfme2xjb08Sy58/n6YXNgVTPq1/juYtiqVgyg2dfnEPBAR5mlvK7qfzjsh7UL3qK655ZKD0mQnSQPOJdCHHSUzsX8epdS5l16hgyHC2v21Z9wNPzf2FpYf0Be3mUsjIwJx2lKlnw+WIJQoQ4DBKICCEEoGledq75mp2tJs/Xrv2RJc2JB85kHEi/LB2Bgm/5fENA5rsJcRgkEBFCiMOk+Rbw5KULdv0iQYgQh6PLJ6sKIYQQQuwmgYgQQgghuo0EIkIIIYToNhKICCGEEKLbSCAihBBCiG4jgYgQQgghuo0EIkIIIYToNhKICCHEMSAkfRST/vwU1wxrWa8m/cJ7eWDyRHIj5Bkl4sQlDzQTpN07m6HDA+x49kKW/dTxNzylYkm+8U4GjOqLyWJEI5+1N97FlmrtkOn5pqs4Z+rlhO16EJS/yUHjtl/YMv3fbNvSnnXuxdFmSu/BrZfmclq6GZPHxbYNm/jne5v51dVynZxz6++4d6Dix1ffZcqKw7l+Qhl1xQhuOi2GeLMeHTX86+4ved+mHTL9vZBTmPHYKWTuun58TW4qtpfwyYcr+KTw+Fn9UCkDqePu5pEbRxBjCLBkaUuaITyDoRPyGDRyJDOfmsJ7653d11AhjpKj0iOidGbi+w7jtJFncnpeDlGqJcI3RmaQM/g0Tjt9FMOHDaR3ohlNyYqVxzPdyOsZfm5/QkM8NFaU01BRjdfX/nTlq8dVXobbY8KcfRanPnInKWFyTXQ3ZUzgjttP49w+YZi9TTQFW+g/YhhPXJ1OWCf+zQYNH8z9Z8eTGOynqrKOskoXTn/705XXTcXOOqq9BpJ69+T2O0cw1nr8XD/G3Gu4f/IIYlQJ819/mDd+bkkrmPUML8zZSKMlm0vvvZMzZXVfcQLq9B4RRRiZAweQHKqhAtBq2QaUIY6snAwilAuHrQa9NYq4Xv3xu5ZQ4DhokeIImIZdy6BJo4lJDEfnraNhy2I2vDaN0rIA0ZNnMHp8zK4t9aTd8zlpgHLP56fLnqFc01DWHLL+cD29T00nmHrq1n/N2n+9R5W95cSGpiSh1zTqP3+Ir2ds2fVqO9Ktu34s/4IFt/2Xen0cvf/6Lwb0G0rqUCMl3/vQEvLo94crSM9Jwui34Vj5BaunfURtvYZSQxn67sOkN33H6jmR9L6kP8HuEspm/p3lXxSiNO2Q+w+gJeTRf1f5Bl8N9qWfsur1z7A3aqjUKzln6uVYN3/Cyu0DyB2VBCWLWf38VErK2/5AUGoAN0y9lSHB+yQUzeK+J7/A3sYjwVXMZMbffD3WkrdZUTmEfv3ToPoHVn/8GMW25vq1yLPpP/5GMtJSMQZqsG/9mFVfTqfG1YP+t3xAduNUZk9fRp9b3yar6lE+/rCGIXe/TMrWu/n00/mH3oH0JAZHACVr+cOjaymOyOLZvw4ku2cCOWzHfeVFvDjGvGfzMbdMYgyg3AU8fMtiFmoayhzDFVcN5sKcCCJoonjzVl57ex0r61r2PSnRSoimseP775n0Ue2uV9uRvrvqqnz+8uAaivRmLv2/87mlTzJn9tfx7U8KfVwqk383gLN7W7H4G9m2IZ9/vr2BdQ0aSiXx4CujObtpK698a+KicxMIb6rj57mLeeZHO15NI/7UU/m//80kJ9ZEsN9NWWEx/31rBd/vbD7++rhUbtpVfqjfxdZVG3npvXzy3RoqsT8zHjuFjG0beLEkkat/Y0WVb+e1aUv5tnL3NWJm9MXjSdT5WD/9YV6cW7XXvqu6Aua//hCe8Ne5d9RwLpqQybx3i/a+TpIn8viT19HT/jlP3PVv1vtkGEccXzq/R8RgwWJsoGzDesrc+6RZI7HooKFkLes3rmdN/k58hBAWvu87tegMypDHKXf+loQUK9gr8QQshJ1yHsPuuhiLUgTc9Xjqnfi8zW+qfpcTT70Tr9NNAFAqjIzbH2bAyD6EGL34g6OJPO0qTrvpLIxKoZ1+B+Nencaoc1MBCD3rPsa9Oo1xr95HRkTb6YduPCiVSc79/0fWwFSMTQ68RBI18hrybj0LQ+v/yIOHknNJFoaADmN0T9Kuv4NeSW3v/57yB6Vj8NbhM8QSfdZN5P1h+N69dMljyc2LQqeFENJrLEOub97/tpmITEgkMTFpr6+EGDP6DpxHos+nX24sGiZCkiYy+JzzMCqFUlnkXjaFPj0zMHhteLVoovvdyhkTz8OgduC0+SEsAbOWisXqg/AkQo1JhJrAZS9uu94GLw0A4dEMStSDfQt3//FDzvvzMpZoGr4mD3XOJly7rh9PYxN1zibqXT68gFJBTLh2NDcNiyXW4McTZCZr8Kn8dVImYUphHDKMd56YyNNjwgGIzzuDd56YyDtPnMF5YW2n7yfQ8qNSoFQ4192WxyX9wjF73NTrTGQPG8QT12RiaX3+glK48twYQgIalsgozr7iNC6OB6VP5eYbcxmaGIKqd2L3B5Oe3Ze/3JhDmlIt5fePwOxz06g3k5s3nCevTCaodfkJvfj9UBM6zUh0Zm/+dHlmqx6lLPpmBQGbWDKv8oCnQdOa+HnBClxKkdY3d++yAVP/ofQPN2JKG8rA1LZPqxDHms6fIxKoYeuqMhrdZjIy903UoQP8fhMJmQl4nF78gE4zAE2d3pSTXlgsoSHAzs+ZP/nf2IKyybz8N1hUFTrA9ubtzHmzZY5I6T8ua5kjomlAKiFaPhW/FLDlxelU6CYy6s3JxOYOIJLvqTJHYUlM2lOd3hqHxQpK1WM0AG2l75Y4gTNeGwmWGEwWIziXUPyLFzJOJznVAFve5Kt7PsJlGslvpv2FlMHDiON7SnfnD3VRdM8trC3szcCXn6FnQk9iso3kNx16/3eXr6q+YtHNL1MVfQmj/3k1UcPPIJ6llO8uX1vPqhv+Rln87xn790uxZuUQwbdUtXH4NW0Jz102kecOnNiuU9i87UpWvHQ3ZeG3cM7ka7GmnEokc9gZN5qUWAOU/pMv35iOyziW0/74BKm9ziBBm0tDnQ16xGOOSMHs2EadJRFLdBBm/DhqS9qut2wLH63tw59PSeaPUy7j2opqlq34lbc+20GxX2P9zM85f+buOSIBFk3/sGWOiKYBYcRqNaxYXcNH/1nNz1ofXnpxKAOyEuhLIatNZpLjw/dUF2SxkGwBpbxY9KC1kb5HbBZPP5kOZjNxZj007ODHtQFITuP0JB2qYBW/f2IDFSFp/PXpMxjVL5UhFPLj7vwmD9/+bS6v7IjmT1PO4cK4KHJ76sBjIS4YqNrEPfeuZGNQDOdPTCVJOZvfOHeXX7OZe+9fxqqIXF55ciDZA9MZQimL95y/Sl65Zz7zYwfw+iP9yegRR28KWAGAFYsJ8Dmw1bFXD/JebHYcgMlsIQJoHbI0Lv2Gr0dH09v2FfO3t31ahTjWdHogogWacLcVUwRZiY5PwB2o6ezqD2lE3ih+WnTw7ugTLr1mGTs2Xk5UzrmM/EcWNUXbcWxeTtG3S3C254NQbaZ8aSVxF43hNzMuRK/Tmj9fTMEYAPXNo8z8BixXTGXcZT2o++g2vnlnd7exBm2l7/rvTTNYCU204m+qo2HjPPKn/4fSeg3SzRgBek1i/MeTmrfVAYRgMAB75pmU4Sjwovl/pfTHXzBlQb0zuO39t+4qv3IHdi+oiu3UuyEq1EJw6w862w4cLggUFlMXAGtoaHO+Dp6fthw0v7MQhxsC7gIcAbAGWZrrDw1r/p50E+c+MLnV8TFh0EONrRz0cYSmJRNqX82OuB6Y44yYqKXc5mHfT71969c0N5+/8iWO8f347bAkchPjGDsxnmEpi7nm5QJsbV1DqobFK+sZOK4HDz6fQ4heQ6cBwUZCAc/CHzlzIaRfOIE3J0ZROPczrp21e4xWg7bSE3f9ZAwhIT4EX5Obsi2FfPzBSr5v0CA5CAugZZ7KO9NOBUCnAzBg2uv6cVJYHEDzV7Po51LiM6G40QC2Hczb0o/s3n154vFYNu+ws62glC/nl1CsaWBpLp+aOrZ6IVBlp7QJskNCCG99/TjsbGsEX7Gd0gBkhATtGZUErfk0tHvqh7ZfrKLZFvHqXxa1lCfEcaZ77pppKmPDkmKUtQdD07qu2rY+JE60dE0rZctDN1I9LI/4rHSsaTn0uHYcWWd9wA93voWjrTetlIsZfvM5WCu+Y+kjc2loGkj/Z64m7tC5Okzt+ICvb/vvQYOjwPq3+PHNVa1ecdLgO+CmVH04ZU9PhaY1HHL/7Z26F/sf/47OETncICZQ9Brff7+k1Sv1NPjBYyvDz2DCMuoI1M3GGTKCqHQjespxHuB/gAPVr/kbWDx3KYvngim5D4/fM4RBp/ZmbHgBH9a10bDEXO6/OouMnVt54oV8dngSuemBgQw8rL08OFW2lmseXMP2g1w//k2ruWVmeatXPFQc5PpZ8dm8XT0VoGlePnh6NmsGpjO0RzhpyfGcd1lvLslbxy2PrmHLgYvoID+BAKAZ0B/qz1Fn2DWc5+cgTRfiuNXFzxEJEAD0hub4RzMY0QMBJX9aR4PqcRYDrruc1MhC8t9AxeBxAAAgAElEQVT8J7889iyFZaDLGEJ8q2jC5/UCOoyWkL0L6JWJVQeqZhuVG7biwIqpK6+Y+ga8gC46Gm37VmzVFmJOH0nKKantmmPR5v7vKp+4VCKMoCWkExYCNDpp8h+67PbppDkiB+Oqaz4+YTFolb9ic4QRkzOW1IzM5vJry3ARQUxyEo32jbgc4cSkxICnHGc77o7WDxrKu09fwH8nZxKFwlVpZ6cHwEhoaMt2TV4/oGEO3XuvtPQo0nXgt9tYnl9LIUFEdeX14/TgBPRRJgyltWyuDWLAkHRGZ4cfsEdrXyotk9su78dZETY+mPkLf3tpIXMrwJiSzPCYlvKJDqOXEXSxESQHA243jnZfP7XYHYA+kZRDzO8wpScTCfhsNtqK/4Q43hyFu2bCSembhBkDliAAK8nZOcQ0VLC5zIYzkEhEyin0s7jQW6Mw4KbKIfNDjorGCGLGTSRSfy49Lq7EowvHFAG4SqmvbdnMXrgdlZdFwh/e4YJJPlT5bH64+13qS8pxAeb+NzJhxqUoAwSa6Lp+tKKfKCu5mL6pEzlz+un4jOEEBSucc5axvj3529p/7+7yx5E3fRg+YzjBeg33soXs7ITmd9ockYOpnEdp9TVkx17GmDvH4DNEEWRUOJcuYB1ATRkNykBcZBxldeW4QuuwZCdA7dfUt6N439YaysxZDB46gveyB1CvMxFj1vCWlbC4omW7/BI7/mExDLvqEj67OICq/JXbH19HUYWDClJJzh7COy/0QxnA0wSdE4W1Q2kxP5X3IyMpmxefT8NlMBEerCj5poRp7cnvNtFvdDZ99X2ZcJ6TekKICwcaHRTbAN/u8vvw1POpuAwhROg0alcVs7zdjdzE8tV2xp+dztirzuabp7+jJrD3taFCc5l0wUAM+Fi3cgXezrh2hDiGdP7/J3oTkbHxxMXFEGrU0HShhMclEBtpQufbSf7GImxNeqyR0YSoenZuXU+hXe6NPyrKPmHJC7PZWVaPLjweU2gAd+FSNj73OuWtbvFr+OyfrF1ahMdvxGi1YDQHN18YWz9ixQcrcTq96PR1lL/1ERVd+JwoTStgwxPPs2XNDnxGK/qmcnZ+/jyL3tzQvg/yNvZ/3/IN/hpq5/2LRf9agjoO3uw1bTPr33+Y/G1F+AwR6LwlVCx7mAXfrW4+Pr4SGlyg0ztw2QI47RXoDUaUvQxXe8qvK+Cxqav4oaCepmATYTo3BWs2MGXqGra0GtYr/XYZ/1ppx+HXY7UEYw0xNMeqRRt54bNyShr8GPVNLJ25nhVd2PmpaQ7+8/IiPt7gwGUIIdhTz4rvFnHvzKr2nd+dG3ls2kZWljdhtFiJNSmqi0t487UVLPRr+5QfTKi/gY0//8ID75Tgaef1o2kBlr8/g6U2P5HDb+e5Z+9mbHrL+2HEkElMeeFRzk0z4N72IW9+U7tfGSp3Mv/59DNmzXyCCfKcEXEc0gYNGqSqazp7tLz7RMfGUVN14NvgTqY2CCGOH1p8HpPvuY2xPU0se/58nl7YHMj0vPo1nrsoloolM3j2xTkUuPcPcFJ+N5V/XNaD+kVPcd0zC6XHRBx35BHvQgjRzdTORbx611JmnTqGjFYPd7St+oCn5//C0sL6A/biKGVlYE46SlWy4PPFEoSI45IEIkIIcQzQNC8713zNzlbDXrVrf2RJc+KBMxkH0i9LR6DgWz7fEOicuUdCdDEJRIQQ4jil+Rbw5KULdv0iQYg4PnXx7btCCCGEEC0kEBFCCCFEt5FARAghhBDdRgIRIYQQQnQbCUSEEEII0W0kEBFCCCFEt5FARAghhBDdRgIRITpJSPooJv35Ka4Z1rLeR/qF9/LA5InkRsgzHoQQ4kDkgWYnMJV6JedMvRxryYd8fdt/ccoDj/aiEvsz47FTyChfxzUPrqHI0INn/jWCYe5C7r91MT+lDeCtR/qTpmkoFcDrbqR4cyFvvr+ahVWtylEGUsfdzSM3jiDGEGDJ0pY0Q3gGQyfkMWjkSGY+NYX31ju7fkeFEOIYdlR6RJTOTHzfYZw28kxOz8shSql2pQlxLFIeNxWVDdQTQq9T+/HwHQPIouW6NeZew/2TRxCjSpj/+sO88XNL3oJZz/DCnI00WrK59N47OVNWRxVCiL10eo+IIozMgQNIDtVQAWi1bMIh08RR5LOSeMtL9BmVBCWLWf38VErKFUoNZei7D5Pe9B2r50TS+5L+BLtLKJv5d5Z/UdjmUulKDeCGqbcyJHifhKJZ3PfkF9jbyh8zmfE3X4+15G1WVA6hX/80qP6B1R8/RrGt+QNbizyb/uNvJCMtFWOgBvvWj1n15XRqXD3of8sHZDdOZfb0ZfS59W2yqh7l4w9rGHL3y6RsvZtPP51/JEetRdkm7pqyjjJTIvc9dhbnJKYxKnU1+TtAKTOjLx5Pos7H+ukP8+LcKlpf2KqugPmvP4Qn/HXuHTWciyZkMu/dor2PQ/JEHn/yOnraP+eJu/7Nep/8YQghTh6d3yNisGAxNlC2YT1l7g6kiaMn5gz65EWh00II6TWWIdefhbF1T1TwUHIuycIQ0GGM7kna9XfQK6k9BZuITEgkMTFpr6+EGDP6jrQv+nz65caiYSIkaSKDzzkPo1IolUXuZVPo0zMDg9eGV4smut+tnDHxPAxqB06bH8ISMGupWKw+CE8i1JhEqAlc9uKOHaP28AfwK4AAXu/uF7PomxUEbGLJvMoDZtO0Jn5esAKXUqT1zSVon15AU/+h9A83YkobysDUzm+2EEIcyzp/jkighq2rymh0m8nI7ECaOHq0tay84W+Ux/+esX+/FGtWDhF8y56PzVAXRffcwtrC3gx8+Rl6JvQkJtvIlnLfoYvVlvDcZRN57sCJHWjfSla8dDdl4bdwzuRrsaacSiRz2Bk3mpRYA5T+ky/fmI7LOJbT/vgEqb3OIEGbS0OdDXrEY45IwezYRp0lEUt0EGb8OGpL2l990im8+cYpe37fb/AkqS8vPNkDY5iZGJNGU2EhP5Szq+PDisUE+BzY6jh4L5/NjgMwmS1EAK1Dlsal3/D16Gh6275i/vZ2N1sIIU4Ind4jogWacDd1PK0rjMgbdXKm23ZQ54JAYTF1ASA0FONeG5ThKPCi+X6l9MdfKFuxgnrnvuMtbdffloPmdxbicENgZwGOABBkaW5faFjz96SbOPeBJVxyz2OkmgC9CYMe6m3loI8jNC2ZUPtqqgMJmOMSMFGLy+Zpd/3K66Zip4PSnS4aDzBnSQsKITE+jBiTHk9JPg/+YwPFewItrYNDjNp+m2u2Rbz6l1u566nPKA7IsIwQ4uRyUt0189OiQ88ZONHT26PqwylUHSRt3/I7OkfkcNsXKHqN779f0uqVehr84LGV4WcwYRl1BOpm4wwZQVS6ET3lOGvabv8eVfn8pfVdM/skq6LV/G4aPP74AHqEKnx1rVP9BAKAZkB/qBhCZ9g1XOXn0P1MQghxcpHniIgj0ElzRA7GVYcX0IXFoFX+is0RRkzOWFIzMpvLry3DRQQxyUk02jficoQTkxIDnnKcDZ3RgFYqtvD1tgBEZnLBkNZ7V4vdAegTSTnE/A5TejKRgM9mo+7gmwkhxEnnKNw1E05K3yTMGLAEAVhJzs4hpqGCzcV+UrKTD5iWX1zbsXkFott12hyRg6mcR2n1NWTHXsaYO8fgM0QRZFQ4ly5gHUBNGQ3KQFxkHGV15bhC67BkJ0Dt19Qfee37cPPV4gpu6JXEiFG9iFq6mVpNAzaxfLWd8WenM/aqs/nm6e+o2Wd4RYXmMumCgRjwsW7lCrxynQshxB6d3yOiNxEZG09cXAyhRg1NF0p4XAKxkSa0Q6V1ekPE8U7TNrP+/YfJ31aEzxCBzltCxbKHWfDd6uZAx1dCgwt0egcuWwCnvQK9wYiyl+E6Cu1xLNnKEjcYs3pzftLuNgZY/v4Mltr8RA6/neeevZux6S3zTCKGTGLKC49ybpoB97YPefOb2v3KVbmT+c+nnzFr5hNMkOeMCCFOMtqgQYNUdY29u9vRaaJj46ipOvBtlCdTG0TX0uLzmHzPbYztaWLZ8+fz9MLm0Lrn1a/x3EWxVCyZwbMvzqHAvX/InfK7qfzjsh7UL3qK655ZKD0mQoiTykk1WVWIo0XtXMSrdy1l1qljyHC0vG5b9QFPz/+FpYX1B3xAnFJWBuako1QlCz5fLEGIEOKkI4GIEJ1E07zsXPM1O1sNNNau/ZElzYkHzmQcSL8sHYGCb/l8Q0DmSQkhTjoSiAjRjTTfAp68dMGuXyQIEUKcfOT2XSGEEEJ0GwlEhBBCCNFtJBA5CuSOGSGEEKJ9JBARQgghRLeRQEQIIYQQ3UYCESGEEEJ0GwlEhBBCCNFtJBA5ipTxHP766Rxmvjedp245gzhkHREhhBCiNQlEjqoGaqrq8IfE0Od/buWq04zd3SAhhBDimHJUnqyqdGYSsnLpERuKTlXy68IN1GoaSimConvQOzOB8BAjAU8d1cX5bKtoOCGfKql5F/HSDYv4+U/v8cAYK1GxoUBddzdLCCGEOGZ0eo+IIozMgYPoFRuCFtgn0ZRCdk46kSEBnHYbXkMECb1zSbN0diuOHZoGateITKPraCxOL4QQQhy/On9oxmDBYmygbMN6ytx7J2kWM0a3C3vRGtZtWMfG0no0nQWr9cQeIQoODkYpP0ZjcHc3RQghhDimdP7QTKCGravKaHSbycjcJ606nxXVzT8qpWEKNaFUE+7GAHDiDc3stmHh9+wY+D8MuHE6b1xgp6niKx575GPKTsDhKCGEEKIjOr0rQgs04W469DZKKYLjsukVa0A5Symzd3YrDmxE3qhuSXfu3E65zY3SmYhKTCIhNoygQzdVCCGEOCkclcmqbQmK7kv/rDiMTVVs+XU7jV3UM/DTovndkj74wkkMTzFTMPOP3PvWVjxoJ+TkXCGEEKKjunxyhiGqN/1zEgn2VrFl7Qaq3G3nOd7p9XqU8rOzeFcQIoQQQgjgKPSIKMJJ6ZuEGQOWIAArydk5xDRUsLncRHZ2MiZN4W4MEJmRTSTgqSmgqKqN8ZzjmKuxEU0LwRRqAk6CyEsIIYRop84fmtGbiIyNJ2LP0EMo4XGhKLuD/GojRh1omg5TZAKmXVu43MUnbCCilI4gox4AY1AwEogIIYQQLTo9ENH8FaxfWHHQ9JULt3d2lccsZczjj/+YzIg4K0o5KC+Rh5kJIYQQrXXLZNWTh5no+AgMjVVs+O5fvL08IJNUhRBCiFa0QYMGqeqaLrp/tgtEx8ZRU1XZ3c0QQgghRDuc2I80FUIIIcQxTQIRIYQQQnQbCUSEEEII0W0kEBFCCCFEt5FARAghhBDdRgIRIYQQQnQbCUSEEEII0W0kEBFCCCFEt5FARAghhBDdRgIRIYQQQnSbo7LWjNKZScjKpUdsKDpVya8LN1CraSgVTZ+8/sTpW9ZbUaqe7ct/oaRR1mARQgghTjadHogowsgcOIDkUA0VAPaKLxqxlRbj1QFaKJGJMZh8Llzezm6FEEIIIY4HnT80Y7BgMTZQtmE9Ze69kzTNRVVRAQUFO3GbrIR4a9i2ZiO1PukNEUIIIU5GnR+IBGrYumolBTVNqINsYk7PpmdUCH6vD0NwEKiDbSmEEEKIE1mnByJaoAl306G3CbjrqKqpwRscT3q/U0izdHYrhBBCCHE86Ja7Ztw789m8YS2rCmtBsxARFdwdzRBCCCFEN+vSQERZk+idlU16VFDz7wE/AJomc0SEEEKIk9FRuGsmnJS+SZgxYAkCsJKcnUNMQwWbq3SYYuOJizIRXN2AMTIGcFPvcLPP7TVCCCGEOAl0/nNE9CYiY+OJ2NPLEUp4XCjK7iB/+w7yNwfRKyOeqHgLyuOgcstWCu1IHCKEEEKchDo9ENH8FaxfWHHgRJ2Gu7qA9dUF+2SSKEQIIYQ4Gckj3oUQQgjRbSQQEUIIIUS3kUBECCGEEN1GAhEhhBBCdBsJRIQQQgjRbSQQEUIIIUS3kUBECCGEEN1GAhEhhBBCdBsJRIQQQgjRbSQQEUIIIUS3kUBECCGEEN1GApFj0O+uuPSol9fZdQghhBCHo/NX3xV7UQSRkHMqObF1rJ33KzWdsMBfe4KId9/7cK+ff3fFpXu9JoQQQhwLJBA5ipQpiSFnDCLB3YAhFkLakWd3wNBW4NA6bd9tDxSoSBAihBDiWCSByNFkDsaz/ke+qElm7HkRbW7eOqA4Gr0Y+wYorX+XQEUIIUR3kEDkKNKqC1kHqHZ0hbQOOnb/fKhg5FBBxcHKPVQvihBCCNEdJBDpZrsDiIMFBbuDkX23ae/QjMwPEUIIcSyTQKSbtSdAONIgonUw09q+r0mwIoQQoqtJIHKcau/QzG4yLCOEEOJYJM8ROU7tnkPSev5H69/3dag5JEIIIUR3kUDkJHCgibC7HWzYRgghhOgKMjTTBTR3Pt/MBDrhYWYdtW8Q0vr7wbYTQgghuooEIseZAwUM+wYaB0rb9+cDlSuEEEJ0NW3QoEGqusbe3e3oNNGxcdRUVXZ3M4QQQgjRDjJHRAghhBDdRgIRIYQQQnQbCUSEEEII0W0kEBFCCCFEt5FARAghhBDdRgIRIYQQQnQbCUSEEEII0W0kEBFCCCFEt5FA5CSg6E3P3/6HsybdTZJZdXdz9nOst+9YEZI+ikl/foprhrUco/QL7+WByRPJjTiy5QOUdQBXPjqNt2bOZtYr15Ch5DwIIbqGPOL9GKZiJjP+5uuxVk/ny3/+E+c+a9WkX76M4Vktr7l+mczcL1fuX5DOSmhMClZTA6YgoOEoN7yj2tk+pZvIyAceItHzNQufepCKLlq7J+3iBQzrE6D4k1Es+7Xr1wtSykDquLt55MYRxBgCLFnakmYIz2DohDwGjRzJzKem8N5652HV0eu3N3PJwCSU10l1dR2eTmq7EEK05agEIkpnJiErlx6xoehUJb8u3EDtPh8aQQn9GdQ7Gl/FWlbk16C6YUG448ZB/jv1Oktw1oAWEovZHHLQ7FpgJeumncO65t+OShOPxLHevu5mzL2G+yePIMZfwvzXX+Odn1vSCmY9wwuGm/jDxGwuvfdOym+bwjx7x49hTFQkAOtn3MhDc+u7ZYFGIcTJqdMDEUUYmQMHkByqoQIc8HNFGRPIyoxG79lJfsGJG4Ts6dEoeY9V1YPJzU0mUPUjqz55nBJbAJV4O+feMAlz+TQ+//e/aWAcIx58jBT1Iz/97R5KdhfkDyNp4jtk99s7f9nc31IGhAyfxvnnDNy/fhVH3xvmMiBZ2/V7JVtmTGD1jlbHO2IM/cf9gcyMVAy+ahwFs1j91XRqXG2fk4ixH/M/p6VRt+hKvvohH6WCybziR4b29rHj4zEs2ehDizybU8bfSEZaKgZ/JfbN77Diyw+xe7V2tS+oxy38ZsL/EhPqoGLed9DBEQMtYjT9x11HenoqRn8tjq2fsOrrt6ht1FAxNzBu8jVYS95lZdVgcvulQfWPrJn1JMU2Rey4WZw5JG5XSXrS//cn0gHl/Y6fnnqYUk5n2D3PkO75gtVLI+mdN4hgTzGlix5n+YqthI15h/85PRPP2r8we/ZCFFZ6Xvk5gzK9lHw6niUbvG22Xykzoy8eT6LOx/rpD/Pi3Cpa/1GpugLmv/4QnvDXuXfUcC6akMm8d4s6dpAAZ0MDYEYFAh3OK4QQR6Lz54gYLFiMDZRtWE+Ze/9kpYJI6NOLcIOHqm1bqPWfmEHIXmLOJSc7CjBhSp7I0PEXEtSRMfjwc+ibczj5fXgcJThrdtDYtP8HjFJZ5F7+N7KzemL02fDq44judysjz7+gXeXb8pfSqBTWzNMIUQq0YcSlGsC/mvIt3ubyL5tCn149MPjs+PQJRJ96D2dMGIWmVNvt0w+j//nXkBAVhqZCiBt5ETEd+JxUqje5lz1KVs8MDB4bXi2aqH43M/Lc8Rha71/0eeTmxKLThRCSdC6Dx07AqBR+bz2exjp8vuZt/U11eBrr8Lpc+FtXZDydnLxcDEqHMSyL9P+5j95RYF+/gDqlMGaOIBbAcDrxaXrwr6R8c3sHP7LomxUEbGLJvAMv5qhpTfy8YAUupUjrm9uxa4vmoZ8gY/P/JMHBpg7lFUKII9X5gUighq2rVlJQ03TAf16DErLIiDTgq9lKQVXb/xGeGFay4qXxzH7tVWoCCkPaQKI7kl1bsSv/ax3Kr2m1FM78LV+88ltW5jftv0HcaFJj9SjHLBb+/VzmvPw3djjqIGkose3pK9u+kIpGIGEIiSFA8hBiQ0CV/ES5p7n8lFjDrvJb2h/c92wS2tO+6EHEWkHZZ7HghfHMfncuTfp2tGvP/p1Jcoweyqbx1d8vZM6Lj7KjUWHslUdc6+201ax8eSJz3nibOqXQp5xCBFD7/e+Z/fx4VmwNoJSXkrnjmP38eGa//DQ7W/fiBTspeud85rx4B1tqFeiziE4xQuU3lFYDlmEkJoHWYzjxeghsX0xpuy99KxYT4HNgqzvEZjY7DgCzhYh2lqyMedzx2jRee+NtHhgbiad6OfOW17S3YUII0Sk6PRDRAk24D/CZAqCMcfTOjMHgq6Fgy06CM4dx+shRZMV0zQz9EXmjuifdWYjDDcpWQL0XMIYR3JEP1D35tx1e/oMJDcMIYC/C5gPNNZefXzqLT194iNID9FTtt39qOWUFLtANIL6nEUuPwZg1DdvWBXg0bb/y97Q/KLx97TeFEQTgKMLug8DOAuoPsfl+7TNZm+tPvJEJ9y3k4j//lZQQQG/C2Lp+53Yc7uby6wJAkLk5X7uV4NjpRfOvo2ztT5RtWUK9OwRNK6J4UwGalkhin17E9R6EgQBV+QvwHWA48sDXj9bBaTPaQTffv3wz0QmJJMZY0OOjvmwbJbUyNCOE6Fr/3959x3dV3Y8ff93Pntl7J0AgCQhBQEWQuqrSr6tfV1WcVazVttpqqba0tf25odbaOqoV66qK2or6rdSFBGXIThghZEB2yPhkfPLZ5/dHAoSVIZ8QK+/n4+HI59wz7rk3ue/POefee0zvmtGiE4gxabTvLKXJr2E/lpUDnxctG9H0Qyh1hCUPR/p8ZB28f5rmp75sLaGCmSTkfIukqFEoVUH9jhpGYtHpkfo/VPlXPv54dZ9POukKHnbTo9ZYdDd9J1BcJZ/RPiMHZ/qFpFrjQBVTt62Fw/XP4dsfJBQCNAP6/rpUZ0Dfu33gCJsccvz8H/Driz5A6WM5754/M/fES7n8jH+xeUl/Qy9CCBFeI/IckYhR05lx2ukUZjhGovpjz5FNpAW06FE4jYC/HW8QcDXhAYjMJMIAWmI2kTqgoxH3YPL3CgR7xvmN1pjetReD5O7ouU0zKotoAyjLt5l22/tc8OPfkKIfXDmBHV/QFAJz8qWkp+jBtYravVdidzv+PuXva7/PdUD7j6i79zbSyCyiDKBLzME5+L2D7g78gC4yFq1pG63tTuLyzyAtK4OhDCgFAj5Ah/GrrJ9oWkp1E5D8bTJigfrPqRnSHbYttLkAfTJp6UfeypqZSjQQaG1lqGGEFmxm5+52NE2HwTC0sSAhhDhaw3DXTCRp41KwY8BhAnCSmpdPXFc9pW2tNDbuvwIZ7LFE28Ixx/A1p53IlB//H1N0MZh1GoHdG2gGcBdRves24jPP5dQ7CvEb4jCj6Cz9pGe+f58pnHi4/L381ZtpD07FWfBbLky7FV8Q6j+6hLW7zmf69dcSDegdZsBI1nffJiXgofq977Gx4mOqm66hIOFiZt5xCj5dLFaLEd+ODbQEGNyghvtT6mvvIjF1EvEaeLesoHXvtEPjp9TsuY68+IuZeccMAoae9nu2f0w9oGwX9t++3RvY0wkRURdz2p0zCCojR/y6fziNy6hpvpq8uEs5/SenEzBEYzIoOletoHgIxbgaylEF+SSf9y4XnumHlsV89Ldn+50m2kvTdlG5tYz8WWMwAW07PqV7SHeJbePLDW2cd1YmZ199Fksf+pDm0IH5la2AORcWYiDA5nVr8X+Fu9Ds9p4gy9P91Z5DIoQQX1X4R0T0VqLjE0lIiMNm1NB0NiITkoiPtqK1V1O6beu+f6qaj7CY5JumZSnbtreh4aG75j3Wvv82Pk1D02rY8fbP2Vq6A68uEr2/hqb1/48VH6078JbmPe+y5TD596l7hqL3P6DdrTBEpuGITcdq1oE+ElvM/p81zYApMh17TBoWE2haKSX/mM/2snIChliMag/NxU+y4l9v4xnkxUzT9lBTXoam0wFd1Jd+2SdtO8X/mE/pzkoChmgMoUaaNy1g+f990rN/A7UvuJLid16kvqUDpfOxZ8U/qB/CEgZNK6XktfsoLa8iYIhE76uhYc19LP9445Cek9G5eiEbt5fjUyZM1giMZtOQfnE6iz/DpRRKVVG7rWoIOUHTQnz5j0Wsag0SfdLtPPrIXZyduX+0KmrKHO5b+Bu+k2HAs/N1XljaMqTy97KYTT3/tQ5pzEkIIY6aNnnyZLWnuW2k2xE2sfEJNDcd/jbHY23fc0SanuP9J5+i6xv6vBTRP5X0A2bfeBX21tf48M+P0/YVzgMtcQZz776Ns0dZWb3gAh5a3lPGqGuf4tGL46lfuYhHHnuHcs9XO8cyrnicP1yRjS7kpnXza/xy/pvUyvkqhDgG5BHvx4Kmk+eFHscix52CQ9Nwly37SkEIgGoo4sk7V/H2pDPI6jNv17r+NR5atoZVFR1H9WDAqjce4bn0X/C9k1KJjuu9W0kIIY4BCUSEGEZKpZE2JgelWqjdvumoytI0Pw0bP6ChT1jbsukTVvYkHl3Zwd28/8itvL+/sqMqTwghBkumZoQQQggxYkbk9l0hhBBCCJBARAghhBAjSAKRYRAbnzDwRkIIIYSQQEQIIYQQI0cCESGEEEKMGAlEhBBCCDFiJBARQgghxIiRQEQIMSiWzFnM+dmDXFrxym4AACAASURBVDdt/7tuMi+ax71zz6cgSh6AJoT4auTJqoKMef9i6kkhdj9yEas/H/oFRal4Um+6g4mzxmF1GNEoZdNNd7Jjj9Zveqn1as55/Aoiep/iGfS66N65hh3P/5WdO7rCuo/iyM754ZXMK1R88uQr3Lf20OOvlIH0c+/i1zdNJ84QYuWq/WmGyCymzp7B5JkzWfzgfbxaLG/vFUIMzbAEIkpnJym3gJx4GzrVyNblJbRoGkqXyPhT84ju8/hopTrZvXY1u9zyjeq/lW7mjZz0nQnoAl246/eg2IM/MPh0Feigu6kD5YjDnncmk37twHvr76hul3Pi68BYcB33zJ1OXLCaZc8+xctf7E8rf/thFhpu4ebz87hs3h3U3XYfn7bJcRNCDF7YAxFFBNmFE0m1aagQHPi2Nw0NUJ5Wmtq9vZ956fSHuxViL+u065k853TikiPR+dvp2rGCkqeeoaY2ROzcRZx+Xlzvlnoy7n6PDEB5lvH55Q9Tp2koZz65N9/ImEmZmOmgvfgDNj39Kk19Lja2tBT0mkbHe7/ig0U7ej8dRPreN87Xvc9nt/2dDn0CY377NBPHTyV9qpHqjwJoSTMYf/P3yMxPwRhsxbXufTY88wYtHRpKTWXqK/PJ9H7IhneiGXPpBMyeamoX/4Ev369AaVq/+w+gJc1gQm/5hkAzbav+yfpnl9DWraHSr+Kcx6/Auf0t1lVNpGBWClSvYMOCx6mu2z890R9lj+N7V5/IRflRROFl1/YynnppM+t6gyx9XBo3XzWRs3IjsPvdlG/dwdOvlLCxY5DpCenMvXIiZ41x4gh2s7OklL+8VMLmLg2VPIFFvzuBrJ1b+FNdMtdMdRCoreKpv67iw0aYdNXFPHaGfV9bz7h1DmcAylPO/FtXsFzTUMrO6ZecR7IuQPHz83ns3aYDjq1qL2fZs7/CF/ks82adxMWzs/n0lcoD+yD1fH7/wA2ManuP++/8K8UBCVSEEPuFf42IwYHD2EVtSTG1noPS9v796aqldNvW3n/KafHLH6bhoAwzOOGO75KU5oS2RnwhBxEn/A/T7rwEh1KEPB34OjoJ+HsuqkF3J76OTvydHkKAUhFk3T6fiTPHYjH6CZpjiT7lak655UyMSqGd+iPOffIZZn0nHQDbmb/g3Cef4dwnf0FW1MDp/TcelMom/56fkluYjtHrwk80MTOvY8YPz8Sg+uQ3TyX/0lwMIR3G2FFk3PgjRqcMvP/7yp+cicHfTsAQT+yZtzDj5pPQ+pafejYFM2LQaRYso89myo09+z9g/ysTs68/nVumxRNvCOIz2ck9cRK/nZNNhFIoFcl1t8/k8hOicQa66TTYyJ82md9fn0PMINNvuG0Gl46PxO7z0KGzkjdtMvdfl42jb/uSRnHVZDMKA3E5Y/jpVaOIUoqA10d7pxd37/H3dXtp7/TS4Q6w/7tBLuNyTcA2Vn56+Hc4aZqXLz5bi1spMsYVYDqob6wTpjIh0og1YyqF6QN2mxDiOBP+qZlQM2Xra+n22MnKPjRZA5QxntwpucSaAnTtKad0ewMeedtn+EXEY7MADe+xbO5faTXlkX3FyThUEzqg9YXbeeeF/WtEap64fP8aEU0D0rFopdSvKWfHY89TrzufWS/MJb5gItF8RJM9Bkdyyr7q9M4EHE5QqgOjARgofa/k2Zz21ExwxGF1GKFzJbvW+CHrVFLTDbDjBf599xu4rTM5+Zmfk3biNBL4iJq9+W1uKu++lU0VYyj808OMShpFXJ6RUm//+7+3fNX0b4p+8CeaYi/l9L9cS8xJp5HIKur2lq8Vs/77/4/axGs4+w+X4czNJ4r/0DRQ/2sRxGvNrN3QzBvPbeALbSx/fGwqE3OTGEcFq1IzmJmqQzVvZ949q1lrzeZ386cyKSuZiYZyPk4cOP3UFB2qfD3X3F9CvSWD3z50GrPGpzOFCj7Z145Gnrh7GZ86CvjzA4XkjU6kgDJWLH6PCxbvXSMSouj51/evEdn3++jEYQUCLlrbOWiEs4/WNlyA1e4gCugbsnSvWsoHp8cypvXfLKsaqNOEEMebsAciWsiLx3ukRB0qFEJZbZhcbbj1sTgTx5LR0kjpnnC35FDTZ8zi86Jlx09682p2b7mCmPzvMPOJXJorq3Bt/5LK/6ykczCBn9pO3apGEi4+g5MXXYRep/Vcn6xmDIBa+hsWLwXH9x7n3MtzaH/jNpa+vHdYXoOB0nu/HWsGJ7ZkJ0FvO11bPqX0+eeo6dAg044RYPQczntzTs+2OgALBgOwb51JLa5yP1pwKzWfrMGaCx2d5oH339lbfuNu2vyg6qvo8ECMzYFZ36cfWnfjckOoYhftIXDabD35Buy/Zlas66Dw3Bx+uSAfi15DpwFmIzYAhwkHQHM7ZX7QApXMv6tP/wwyXcuexMvPTAJApwMwYO37m+1qo7wbQt1t1Hghz2ImQg+EBrMTWu+3h8Fs27P9wWeW1lrEkz8v2l+eEEL0cUzvmtECtRSvqN3/QeJ4Ts2Nw2azAAfP44Rffxfxb2K6ptWw41c3sWfaDBJzM3Fm5JNz/bnknvkaH9/xIq6BLgppl3DSD87BWf8hq379Ll3eQiY8fC3hfpOO2v0aH9z29yMGR6HiF/nkhfV9PumkK3DYTWl6/b59IxWa1tXv/reFdS8OI7mAe67NJauhjPsXlrLbl8wt9xZSGOZqgts2cOviuj6f+Kg/Qv98hdIJhQDNgL6/00VnQN+7fdiqFkIcF47pc0SUOYbUzExS4yyoPvPIahDz7WLoVM6ZTLzhCtKjKyh94S+s+d0jVNSCLmsKiX2iiYDfD+gwOiwHFjA6G6cOVPNOGkvKcOHEeizPmI4u/IAuNhatqozWPQ7iTp1J2gnp6AfMPIj97y2fhHSijKAlZRJhAbo78QYH30wVN51bH/ozC++5iGz9/nNZy4whUwfBtla+LG2hAhMxffuv008HQFwEo42gbBnc+8DFvPnIyZymV4NI99EJ6GOsGGpa2N5iYuKUTE7PizxwxCYyihwr6OKjSDUDXi/tffbP6w8CGnbb4Xq1hTYXoE8mrZ/1HdbMVKKBQGsr7YPvOiGEGI67ZiJJG5eCHQMOE4CT1Lx84rrq2V5rIDI1m2gtiZhEN3pnDOCh3eVBhmyHQXcUceeeT7T+O+Rc0ohPF4k1CnDX0NGyf7O2iirUjFySbn6ZC+cEUHX/4uO7XqGjug43YJ9wE7MXXYYyQMjLsRtHq/yc2upLGJd+Pt96/lQCxkhMZkXnO6spHkz+gfbfv7f8c5nx/DQCxkjMeg3P6uU0DKGZ1inn8u1xmSg1m9Oy3qZiZ8/nqt5FPemk5k3h5YXjUQbweWFfFFVTRVFNAdlpY3lwQSrtOitxNj0dmxopCQwmfRef140nKyWPxxZk4DZYiTQrqpdW88wBLUzkxw9/lx/prUTrNDw7m9jSJ7W0uo3gtDimXX0pSy4JoRq3cvvvN1OlacA2vtzQxnlnZXL21Wex9KEPaQ4d+LuqbAXMubAQAwE2r1uLX9Z7CSGGIPzfb/VWouMTSUiIw2bU0HQ2IhOSiI+2ogs0sGNrJa0eDXtUNKZgO407iql0hb0VAqD2LVYu/BcNtR3oIhOx2kJ4Klax5dFnqetzC2XXkr+waVUlvqARo9OB0W7uOTHK3mDta+vo7PSj07dT9+Ib1B/DW601rZyS+xewY+NuAkYnem8dDe8toOiFkj6LKfsxwP4fXL4h2EzLp09T9PRK1BAupt2b17CpxYO7ajUbqvskVG5h4ZI6qruCGPVeVi0uZm2feQtNc7HoiSLeKG6jy2DFEXKzdc165j+/k2ZNG1T6c38q4s0SF26DBbOvg7UfFjFvcdOB7W+s4PUNPnRagD0VZfzhpR209kmv+c9qnl7Xhiuox+kw47QY9sWamhbiy38sYlVrkOiTbufRR+7i7Mz9oz5RU+Zw38Lf8J0MA56dr/PC0j4Rbi9VMJfn/rmEtxffz+yB7pYSQhx3tMmTJ6s9zcM+W37MxMYn0Nx0+NsMj6c2CLHvOSI1m7h2/iZ2HcVIhZY4g7l338bZo6ysXnABDy3vKWvUtU/x6MXx1K9cxCOPvUO559A60q58nCcuz6Gj6EFueHi5jJgIIQ4gj3gX4ptOd+idLEOlGop48s5VvD3pDLL6jGC2rn+Nh5atYVVFx2FHkZRyUpifiVKNfPbeCglChBCHkEBECDEomuanYeMHNPQJa1o2fcLKnsTDZzIWMj5XR6j8P7xXEhrclJoQ4rgiUzPf0DYIIYQQ/w2O6e27QgghhBB9SSAihBBCiBEjgYgQQgghRowEIkIIIYQYMRKICCGEEGLESCAihBBCiBEjgYgQQgghRowEIkL8l1NEcvEt5/CXu05kZuRXf5eLJXMWc372INdN219G5kXzuHfu+RREyYPIhBDDQ56sKsQAzvnhlcwrVHzy5Cvct3bwF2QVl89fHyxkTOMW5v5iHaVDfKro3nfFZPfmC3g91FdV89bra3mros/bB3UmEhMdpDt8xJmHVEVPPcpA+rl38eubphNnCLFy1f40Q2QWU2fPYPLMmSx+8D5eLe4cegVCCNGPYRkRUTo7ieOmccrMb3HqjHxi1IHf0pQhgfxTvsWp08YSqZO3cQrRH+X3UN/Qzh6/gZQxo7j9jumc7dz/e6OFmnjqt29y/l2f8Hbj0EcujAXXcc/c6cSpapY9O5+/fbE/rfzth1n4zha6HXlcNu8OviVvzxVChFnYR0QUEWQXTiTVpqFCcPDbtpSCqOwcog0eGrbtwBWSId9hlXgK42++iqyCVIy+Fto2/h+bnn2DZldPvytnPrk338iYSZmY6aC9+AM2Pf0qTW0a9sv+yLnf81P5vo6UGd1sWbicxB/dQPTul1j2m3/RiYaWNIPxN3+PzPwUjMFWXOveZ8Mzb9DSoaHUVKa+Mp9M74dseCeaMZdOwOyppnbxH/jy/QqUph11/f3lV+lXcc7jV+Dc/hbrqiZSMCsFqlewYcHjVNcNfEGddNXFPHaGfd/PZ9w6hzMA5Sln/q0rWK5pKHsc37v6RC7KjyIKL7u2l/HUS5tZ136YF8AZU/jlw6dzltPNvx79J49tU+gT0pl75UTOGuPEEexmZ0kpf3mphM1dffI3lfLzX26kUm/nsp9ewK1jU/nWBB1LV5i5+pf/y005vcdSdfHWg2/xp7L9efVxadx81UTOyo3A7ndTvnUHT79SwsaOvXnsnH7JeSTrAhQ/P5/H3m2i7y+tai9n2bO/whf5LPNmncTFs7P59JXKA/cr9Xx+/8ANjGp7j/vv/CvFAfmdFkIMXvhHRAwOHMYuakuKqfUcmqzZM8lJtOCt30FVu+qJTMSwUCqL/HvuZtyJWRj9bfj0scTOvI5Tbz8Hk1IoFUHW7fOZOHMsFqOfoDmW6FOu5pRbzsS477ikk3JyGoaIE8j70XdJcFixTLyInHGgVDb59/yU3MJ0jF4XfqKJmXkdM354Joa+x9U8lfxLczGEdBhjR5Fx448YnUIY6h9MfiD1bApmxKDTLFhGn82UGw9KP4KA10d7pxe3v2dbX7eX9k4vHe4AfkApE7OvP51bpsUTbwjiM9nJPXESv52TTcRhyk8+fTyznOAv3cLLW0MoFckNt83g0vGR2H0eOnRW8qZN5v7rsnEcrn2hvscWQNHR2k5Ng4s93Ydur1Qk190+k8tPiMYZ6KbTYCN/2mR+f31On1HKXMblmoBtrPz08O9H0jQvX3y2FrdSZIwrwHRQ26wTpjIh0og1YyqF6QN2qxBCHCD8gUiombL16yhv9nLwn0alDCRkZ2DDQygij6nTZzJtYga2Q7YUYZE1g7QMA6rp3xRdfx3v3vonqps7YfRE4oyAlo5FK6V+zWJW3HgF/7rxGRpDCmPBRKL3FaKo+fNP2F4J+uK/sfT1UsCOyQlknUpqugF2/J1/X3stS76/gN0dCuOJ00jo2w6bm8rfXMOS6++hrE6BfhRxecajr39Q+QGtmPXfn8OSn79Bu1Loc/OJGkT3FS9+jwt+/AZ/3KxQKkjR869zwY/f4IK7VrNS00CLIF5rZu2Gzdx71xuc/7M1bAgpHLlJjDu4MH08V5wVjxE3S98rpUnTIDWDU1N0qPL1XHPHW3z3Z0V82qlwjE9nSt+88bk89MAFvPbHC/jBWD10VfPJphCa5uWdvyzhqnuW8MSmwKE7kJrBzFQdqnk78376Nv/7iy/4rMWLykpm4r6xUCcOKxBw0dreT2e0tuECsDsO6bvuVUv5YFsVFSvfZVnVIDpWCCH6CPvUjBby4vEeIdGaQkq0HuVppr66BWNCNmlROYxKaWBzrS/cTTnE9Bmz+Lxo2fGT7rRjBGjcTZsfNNdHrLzxo95EDdR26lY1knDxGZy86CL0Oq3nLe1Wc58Tw0fI5yUYgJDPRygQOLT80XM47805PaXqACwYDMC+TWtxlfvRglup+WQN1lzo6DQfff2Dyg+07sblhlDFLtpD4LTZetp9tFQzK9Z1UHhuDr9ckI9Fr6HTALMRW9/tYkZz34OjiIkB/87tvFwcAk0DhwkHoGVP4uVnJgGg0wEYsPbZAc1oISnRQsDroXZHBW++to6PugYx/dFbPs3tlPlBC1Qy/6690yra/v9qMPjvAtrBs61orUU8+fOig8oVQojBOaZ3zRiiIrFr0Lp7K7UNCtVhJvbEbBwREVC7Z9jr7+8ifjykHyLtEk76wTk46z9k1a/fpctbyISHrz1wNGMQQsUv8skL6/t80knXYb6gAzS9fh9N++q/4ujqD1P7v7LkAu65NpeshjLuX1jKbl8yt9xbSOFBm2lGM0mxPf/v8fk5OE4PbtvArYvr+nzio75vvFW7iet+uZGqId51MzhBQiFAM6Dvr3idAX3v9kc4tEII8ZUc2+eIaBqapmE0mXp+NPV8cw0Gg8e0GceN9i78AInpRBlBOU9j6pN/53+evZMUg4LR2Th1oJp30lhShgsn1qGcER095etiY9Gqymjd4yDu1JmknZDee9EawNHWf7T5e6m46dz60J9ZeM9FZOsPHRrw+oOAht124F5pmTFk6iDY1sqXpS1UYCLmMPWrhhJuvvVTPulQmPMKuCavd6NOH52APsaKoaaF7S0mJk7J5PS8yPCM2HT66QCIi2C0EZQtg3sfuJg3HzmZ0/btZwttLkCfTFo/6zusmalEA4HWVvqbwRFCiKEahrtmIkkbl4IdAw4TgJPUvHziuurZXt9IW04MkZmFnBDhRh8RjREPdQ1t4W6GAKgqonrX/5KfeS4znp+MTxeN1W7Ev66EPX6gug43YJ9wE7MXXYYyQMjL4M+Kys+prb6Ecenn863nTyVgjMRkVnS+s5riweQ/2vqPNn8v65Rz+fa4TJSazWlZb1Ox88D00uo2gtPimHb1pSy5JIRq3Mrtv99MZb2LetJJzZvCywvHowzg88JhozDPbhZ93MLMC2KYfeFYXt26lfqaXXxeN56slDweW5CB22Al0qyoXlrNM4Not4rI4XfzChgFmCMMgI5vz72Ak/0hil58l79sqaKopoDstLE8uCCVdp2VOJuejk2NlATonUXZxpcb2jjvrEzOvvoslj70Ic0H3cmmbAXMubAQAwE2r1uLf1hGZoQQx6vwj4jorUTHJ5KQEIfNqKHpbEQmJBEfbUXnq2NbSQUtbrBHRWEKuKgv3US5KzRwuWLINK2SLQ8soHT9LgLGaEyhVlpW/J3PH/83Pk2DsjdY+9o6Ojv96PTt1L34BvX+gcvdX345JfcvYMfG3QSMTvTeOhreW0DRCyU9ayAGcpT1H3X+Xt2b17CpxYO7ajUbqg9Nr/nPap5e14YrqMfpMOO0GHpincotLFxSR3VXEKPey6rFxaztZ96i8oPNfNYJxjF5XHeCDk1z8dyfinizxIXbYMHs62Dth0XMW9yEGkz/6c3EJUSQmhhJnFVD0/Q4YyJJSXAQYwFNc7HoiSLeKG6jy2DFEXKzdc165j+/k+be8jUtxJf/WMSq1iDRJ93Oo4/cxdmZ+0eFoqbM4b6Fv+E7GQY8O1/nhaUthzRDFczluX8u4e3F9zNbnjMihBgibfLkyWpP8zdnRCI2PoHmpsPfhng8tUGIodASZzD37ts4e5SV1Qsu4KHlPYHKqGuf4tGL46lfuYhHHnuHcs+hAVLalY/zxOU5dBQ9yA0PL5cREyHEkMgj3oUQqIYinrxzFW9POoMs1/7PW9e/xkPL1rCqouOwozRKOSnMz0SpRj57b4UEIUKIIZNARAgBgKb5adj4AQ19bsFt2fQJK3sSD5/JWMj4XB2h8v/wXklocFNyQgjRhwQiQoivTAt8xgOXfdb7gwQhQoihO7a37wohhBBC9CGBiBBCCCFGjAQiQgghhBgxEogIIYQQYsRIICKEEEKIESOBiBBCCCFGjAQiQgghhBgxEogI0cuSOYs5P3uQ66btf19K5kXzuHfu+RREyTMyhBBiOMgDzb7BVPpVnPP4FTirX+eD2/5OZ5gfOKWSJ7DodyeQVbeZ6365kaphfqCV0mfz8NPTmeap4J4friDqx1fz84n762z8+AMue7lp6OUqA+nn3sWvb5pOnCHEylX70wyRWUydPYPJM2ey+MH7eLW4Mxy7IoQQotewBCJKZycpt4CceBs61cjW5SW0aBr27GkUptsP2T60p4TPt8hL4sTQdLa1U9MAOqud5IivfiobC67jnrnTiQtWs+zZp3j5i/1p5W8/zELDLdx8fh6XzbuDutvu49M2GR0RQohwCXsgooggu3AiqTYNFQIO+putVAiPq5EOH2CKIC7SSigUCnczRF8BJ8m3/pGxs1KgegUbFjxOdZ1CqalMfWU+md4P2fBONGMunYDZU03t4j/w5fsVg3sVPUDQzMnXzOYPJztRdVU89cwq/tMbVyp7HN+7+kQuyo8iCi+7tpfx1EubWdeu7R9R2VnCY9XJXHuY/NEFJ/Crq8eS7/Cw9p0qVJ+3zC//+xKWAzHfPpu3Lk88bNP0CenMvXIiZ41x4gh2s7OklL+8VMLmrp59U8rO6ZecR7IuQPHz83ns3Sb6nrSqvZxlz/4KX+SzzJt1EhfPzubTVyoPqEOlns/vH7iBUW3vcf+df6U4IIGKEEIMVvjXiBgcOIxd1JYUU+s53AaK9t1b2L51K00eHRo+mhv2hL0Zoo+40xg7IwadZsEy+mym3Hgmxr5XdPNU8i/NxRDSYYwdRcaNP2J0yhDKj87i8qkWdJqR2Owx/OSKbCKUQikTs68/nVumxRNvCOIz2ck9cRK/ndOTvk/SaK6Zaj00vz6Rm26YwOQEM7qQgfGzc8kLDr5ZSkVyw20zuHR8JHafhw6dlbxpk7n/umwc++rPZVyuCdjGyk8PPyqnaV6++GwtbqXIGFeAqW/bAeuEqUyINGLNmEph+hD6TQghxDAEIqFmytavo7zZizooqatiNSuWf8aOVg1MSaTEm8FdR03LwVuKsNI2se77c1jy8zdoVwp9bj5RfdNtbip/cw1Lrr+HsjoF+lHE5RmHUH4Df7r7Lf73gc1UKIUtJ4ExAFoE8Vozazds5t673uD8n61hQ0jhyE1i3AH5G/nz3W8emj8pkYJIUM2l3P3Tt/juH3fSPpQxvNQMTk3RocrXc80db/HdnxXxaafCMT6dKfs2cuKwAgEXre39lNXahgvA7jiw74DuVUv5YFsVFSvfZVnVENonhBAi/IGIFvLi8Q68nS0llShdiPa6GtzH6K2d02fMOj7TW3fT7oZQxS7aQ4DNxoFhRi2ucj9aYCs1n6yhdu1aOjrN/dZ1AFcb5d0Q2NVGTQiwmHACqGZWrOtAl5DDLxdcyUd/mMIJGmA2Yjso/87D5XeacAA0uyj3Q2B3G7WDbxU4evJr2ZN4+Zmr+OjxmZxmB4wGrPsCGu2Q6cP+aYdsrrUW8eTPf8idDy5hV0imZYQQYihG5K4ZRTSpSU4INFJT72WIV4Kv7POiZcd1+mA0vX4fQ7/v5AiSC7jn2lyyGsq4f2Epu33J3HJvIYXhKn+Qgts2cOviuj6f+KgP0HvaBQmFAM2Avr/TUGdA31MagWFrqRBCHH9G5DkixsQ04k3gbdhNyxDm/MXIUHHTufWhP7PwnovI1g9+Gk3LjCFTB8G2Vr4sbaECEzFDOeM6fHQCxEaSYwRDehSHW7riC/QsdrY5LBj6rt/o7Mmvj7FiqGlhe4uJiVMyOT0vss+IUAttLkCfTFo/6zusmalEA4HWVvqbwRFCCDE0w3DXTCRp41KwY8BhAnCSmpdPXFc9pbtaUFhJSo1Bpzqoq22HYzQtI74665Rz+fa4TJSazWlZb1Oxc3D5VL2LetJJzZvCywvHowzg80Lv0MLA6hvZ4oLM2FweXpBGNzrwH7pZx84mqoJJZEydwZujOukMwLrFS3h07S4+rxtPVkoejy3IwG2wEmlWVC+t5pl9ubfx5YY2zjsrk7OvPoulD31I80HTK8pWwJwLCzEQYPO6tfjlnBVCiLAJ/4iI3kp0fCIJCXHYjBqazkZkQhLx0VY0QIvKINmuEWqtpr477LWLYdC9eQ2bWjy4q1azoXoIGSu3sHBJHdVdQYx6L6sWF7N2CPMaWrCevz5fwrpGL0ofZNu/t7L+cCNolZuY/2IFFe0Ke0wEqYmRxFo1NM3Fc38q4s0SF26DBbOvg7UfFjFvcdO+W5M1LcSX/1jEqtYg0SfdzqOP3MXZmftHVaKmzOG+hb/hOxkGPDtf54WlLYdUrwrm8tw/l/D24vuZHSULr4UQYii0yZMnqz3NbSPdjrCJjU+guWlkH472dWiDGBotcQZz776Ns0dZWb3gAh5a3hOojLr2KR69OJ76lYt45LF3KPccOhqSduXjPHF5Dh1FD3LDw8tlxEQIIYZAHvEuBKAainjyzlW8PekMslz7P29d/xoPLVvDqoqOwz7gTSkn3omsawAAELZJREFUhfmZKNXIZ++tkCBECCGGSAIRIXppmp+GjR/Q0OcurpZNn7CyJ/HwmYyFjM/VESr/D++VhGTNkxBCDJEEIkIcBS3wGQ9c9lnvDxKECCHEUI3I7btCCCGEECCBiBBCCCFGkAQiw0DumBFCCCEGRwIRIYQQQowYCUSEEEIIMWIkEBFCCCHEiJFARAghhBAjRgKRYaSM5/Dbf77D4lef58FbTyMBeQ+JEEII0ZcEIsOqi+amdoKWOMZ++4dcfYpx4CxCCCHEcWRYnqyqdHaScgvIibehU41sXV5Ci6ahlMIUk0PuqCQizCZC/g5aqndQVtN+2Pd4/LfT/EX88ftFfPGTV7n3DCcx8TagfaSbJYQQQnxthH1ERBFBduFkRsdb0EIHJZpSGVuQSZQ5RGdbC16dk4RR48mK/OYFIXtpGqjeGZlut3tkGyOEEEJ8zYR/asbgwGHsorakmFrPQWlWOzYNfA3b2Fyymc2VrWiaBbv9m/3KG7PZjFJBjEbzSDdFCCGE+FoJfyASaqZs/TrKm72HLs1sb2SPR2GKzSQ1PoGM5EhUoJXmVn/Ym/F1UrL8I3a7YeJNz/O3p57hyd98lxQlC1eFEEKIsAciWsiLx3uENFzsKqvHa4whO6+AFIdGR00Z9d3hbsXhTZ8xa0TSOxuqqGv1oHRWYpJTSIqPwNR/U4UQQojjwjGdE1HWdPLzk9F37WJLaROmjHxyMiYwumMVO1oOXlASfp8XLRuR9BMvmsNJaXbKF/+YeS+W4UOTV8YLIYQQHOPbd40xsTh10FVXSUtXB3XVTfgwExMXdSybcczp9XqUCtKwqzcIEUIIIQQwDCMiikjSxqVgx4DDBOAkNS+fuK56Sts78BFFZM6JjI/tRu+IxUyI9q6ucDfja8Xd3Y2mWbDarMDBK3iFEEKI41f4p2b0VqLjE4naN/VgIzLBhmpzUVq1ky079OSkxeGMtqH8XbTWVFJW44Fv6EiBUjpMRj0ARpMZCUSEEEKI/cIeiGjBeoqX1x8+UQdd9aVsri89OFe4m/G1oIwz+PETc5me4EQpF3XV8jAzIYQQoq9v9gM8Rpyd2MQoDN1NlHz4NC99GZJFqkIIIUQf2uTJk9We5raRbkfYxMYn0NzUONLNEEIIIcQgyEvvhBBCCDFiJBARQgghxIiRQEQIIYQQI0YCESGEEEKMGAlEhBBCCDFiJBARQgghxIiRQEQIIYQQI0YCESGEEEKMGAlEhBBCCDFiJBARQgghxIgZlnfNKJ2dpNwCcuJt6FQjW5eX0KJpKKUwRWeRk5NMjM1EyNvOnl2l7KzvknewCCGEEMehsI+IKCLILpzM6HgLWuigRGsaeQXZxFlCdLS24NFFkJR7AqOiJQgRQgghjkfhn5oxOHAYu6gtKabWc2CSMSYOpw7aKtZRXFLMxi3VeLEQGx8d9mYIIYQQ4usv/IFIqJmy9esob/aiDkpSoZ5PLM4ojDodtgh7z9yQOnjoRAghhBDHg7CvEdFCXjzew6cFmhtpy4khOmkC0xKDBIMaegK0utrD3QwhhBBC/BcYlsWqR6L569m2MURacjS6AESkJOPw1lHTFAJknYgQQghxvDnmt+8Guxqp3FFKqzEahz5Ia9UuOiUIEUIIIY5LYR8RUUSSNi4FOwYcJgAnqXn5xHXVU7qrBTQNzZ5BdqIF5a6kst4nt+4KIYQQx6nwT83orUTHJxK1L7iwEZlgQ7W52LELQspI0qgMbJqPxvJduCUIEUIIIY5b4V+sGqyneHn9ERI1NPw0bF5OQ7grFkIIIcR/HXnEuxBCCCFGjAQiQgghhBgxEogIIYQQYsRIICKEEEKIESOBiBBCCCFGjAQiQgghhBgxEogIIYQQYsRIICKEEEKIESOBiBBCCCFGjAQiQgghhBgx3+hARBnP4bf/fIfFrz7Pg7eeRgJqpJskhBBCiD6+0YEIdNHc1E7QEsfYb/+Qq08xjnSDhBBCCNFH2F96p5TCFJvDmOwkIi1GQr529uwqZWd9F2gaxugsxuQkE2kxEfK307K7lLLaTtQwvIVX8xfxx+8X8cVPXuXeM5zExNuA9rDXI4QQQoivJvwjItY08vIzibaE6GxrxW+IImlMARkOUIYEcvOziDYH6WhtxqM5SRg9geyo8Ache2kaqN4ZmW63e9jqEUIIIcTQhT0Q0Rx2jB43bZUb2VyymS01HWg6B06nDpzROHTQVb2J4i3FbCxtIICFiEhzuJtxALPZjFJBjMbhrUcIIYQQQxP2qRn2lLJ2T8//KqVhtVlRyounOwQ6HTogGLSSlJ2Er9NPENBpBsAb9qbsVbL8I3YXfpuJNz3P3y5sw1v/b3736zepHYbpICGEEEIM3rAtVlVKYU7IY3S8AdVZQ21bn0STk9jEJKJt+uGq/gCdDVXUtXpQOisxySkkxUdgOiY1CyGEEKI/4R8R6WWKHceE3ASM3iZ2bK2iu+/og7eWkpW7UM4cpmYMVwv2O/GiOZyUZqd88Y+Z92IZPrSexSNCCCGEGFHDMiJiiBnDhPxkzP4mdmwqocmzNyVECNAbeuIfzWBED4RUYDiasY9er0epIA27eoMQIYQQQnwthP/2XWMKeXmpWDWFpztEdFYe0YCvuZyK1lY6Q8lEpZ3AeIcbvTMGAx6aXMO3PgTA3d2Nplmw2qyAZ8DthRBCCHFshH9qxmjEqANN02GNTsLa+7Hbs4vKpkZKt9h6niMSHUvI305D2Q4q2tSwTZUopcNk7FmLYjSZkUBECCGE+PoIeyCiuatYt7zqiOn+1kq2rK08KNMwBSHGGfz4iblMT3CilIu6anmYmRBCCPF1MmyLVb8e7MQmRmHobqLkw6d56cuQLFIVQgghvka0yZMnqz3NbQNv+V8iNj6B5qbGkW6GEEIIIQbhG/7SOyGEEEJ8nUkgIoQQQogRI4GIEEIIIUaMAcAZETHS7Qirb9r+CCGEEN9UMiIihBBCiBHzjQ5EXnzxFV588ZWRboYQQgghjuAbHYgIIYQQ4utNAhEhhBBCjBgJRIT4L6Bwkjx2KicUjiVar0a6OUIIETbf8Ee8Dy+lDKRMmkV2VID6DZ9S7tJQykbGiaeQ7vRTv2kF5a3BEWyfInbcGeQlH3qYlepk16rPqfYM7ZH3ypZD4dQcbJ07WfdlOZ6v+SPzdYmFnDwuFn/dOtaUtqAM6Yw/dSyR3l1s+mI7nV/z9u9jcOCMsWH2uggdFIco5ST75JNIsbgoX7Ga+oA2pPShCPfxVzH5nDwhBV1jMSu31KH+W46HECJswh6IKAVRed/h4u9MIyfOStC1m80fLuafa2oJaRrKkMzJl1/H/0yMxxjcyEvzFlH8X/rHR9MCtLV2oUU7cUY7wdWJMXEMKU6N4J4d7GoJjPC7bcwY9T7cbh8YzNhMekK+bjwBBaEWOr7Ci4h1NgdWIOR24w17e8PPYrOiaRoed1fPB3YbNgC3G/dINmyItEAdpV/U7f3poEQHFjPg76Tbf2jygOlDEO7jb7bZMWgand3tEoQIcZwK/4hIzCyuvPZMMkMtlG+rwzkql2mXXktn9QN80JTD7J/MZVa8RmDkBgrCyt3SjCfbgS0iCgM60rPi0asOKnfWEtA0lDISkTaGjNR4nBYdwW4XDWXF7Gr1oRQkjD+TMXEhGjZ/zM4WDVvWdAqz7LSXF7F5V/dRtU3TfDRsWUED4MiZycQMPR1Vqymu8e3dot/2ASjNRlLuBNLjbWieOqpbbOg0ja7uLpSmobCRkFtAZrwDzVtHTVs02WkOXGWfsXk3pJ84kwxnNzVriqhya0SPPZ28JB3NWz9i+zC/EkgpsFmtKBWg2+0BNAxWByZNw+vuIohGXP4ZjI0P0FBWiTElm0hTkPbdm9he5eoJnJUBZ+poMlMTcVp0BDwumnaWsKvZ07P//R7fOMbOnETknipaIlKJaiuhzJtNbpqBpuJVVLRF95te6QruGzEw9F6kVVMJXxTX9NStT2P8jHFE7b2Am9IYf3oaAK6dn7G5Nr7f9OLd3t79yyUrLR6HRUfQ007TzhKq9nT31DHA8R/4GPTffxarDaWCeIln3NSsQ/u/3/PLS1zBAMcPKwm5E8hMsKN56qhpiyU7zYar7DOKqwex/zonSaNzSYmNwGLUEfK7cdVuo6yyhYAETkKERdjXiBjTEnG07aH0g6d55oWneGFZNZoukbRMC5hSSXfUU/T3RaxoCXfNI6RjD20B0CIiiU4aRaIVuqu3UdfdMzVizyikYHQKkWbwB8BoiyGtYByxOgXYsFo1oJvurp7trRYzSoXwuo8uCOlLKbBaTSjlp9vt7fN5/+1TCqJGTWZUkhOTFkKZkklPtqJUCI+7C6UgImcSo5MjMel60tMSLSgVwOv2ADbMFgAPHg8oZcRi0QM+vN2DX+eg9DFknjCTk2bMJC/FgVKDzWvDau/p370DIjabFQBPdxdgwWrRARox6dk4TDoMRivRWaOJ0/f0jy29kIIxaURa9vdPan4+ccZBHF+LHYsetOhEYs0GzAnjyEmxYzLaiYtzDJwOmAw6fN3duL0BALxe9/4AwGyAPmkhvwe3243b3UlHh2fA9J72T6ZgTAoRJgj4FAZrNCn5eb373//xH/C4Ddh/BmxWIxAkIjnrMP0/0Pk10PEDR1Yho5Mj9rc/0YRSATzuQe7/6EJGJUeh97bS3OQioLcTk1VAqnOQp6AQYkBhHxEJbH6dRzb3/L9SRhITY1Cqi7ZmD3hLePuPRTS2JHHe7HDXPFJaaWsJkpgQRVqGBZ2vnsrKtt6LRQwp6RHolIuK1Wuo9UaQc9I0ki0O7BbY02XHYgVUN14vgAWzTQ+48bgVRzWGfgAHVlvPBdnbdz5Ci+2/fe44EpIsoFxUrllDjSeW3FMLicdDtzsEWiyJSTa0Q9K78HQDeitmI+DvpjsIYO3ZXzx4hjAv4sjMIy3GAkB0SgL2mo5BTqvYsVqAUGdPIISG1WruE5DF9bYnQGPx51R2xjBmeiEJRhMGIxCKJTUjEv2+/bOSWngS6XYbNisQGKD/TFYsgK9uAzv1k5gQ28D2EsXYKVmE/H6wDpAO+BuLWd8IxtSpTBsThbd7/55r7kpKVldizTiZyTlO3DXr2VjZuTcVjf7T0XrOT72vnm2rN9McMJI86VvkRFl7+m2g4z/Q+akN0H9+B1ZbT/83bD5c/8f0f35h7//4BaNJTLGhqU52r13JLk8iY0+ZQBxufN3sO/+PuP9dkUTHmIA2dm9cT0NQw2iPxWlWeL7CtKYQ4vCGbbGqUhBz4pVcONFGoPbfrCgDjRaaWoerxpGhadDW4kIlxGC1BmnbvoPWUO8faGsUDiPQuYdWT8+3+J5/+/H5ALMNsw7o7qJngMDW8weQbrrDNyACWu8f7FAXvTMUg2ufNQK7vie9pXcEQ2nQEygdmP+AdNXbfrsVM4CnGw+AZsNsAoJddAcYdJxl7RlWASDU3T34tQkWOxYd0OWmpzsdvSMkbrrdgNGG2QD49tDSEQJC9Bw6HwH/ofunad3Urv+UWuhp/AD9Z4iyYUDR1tmFOcGM6uqk2xKLBUVztxuDrf/0A3bFYun9Ju89pON60hTeI4xSHDF9b/tJZOypiezdLfDg9TDw8R/IQP2nt2E1D77/99W/9/wa6PhZIrAbAfcemrsU4COo+uQfaP/x4HWH0CzR5Jx8GknuLtyuJhqqd+M+igW/QogD/X+i6FXBdf/ROAAAAABJRU5ErkJggg==;" vertex="1" parent="1">
          <mxGeometry x="-110" y="310" width="546" height="527" as="geometry" />
        </mxCell>
        <mxCell id="P79QQE4CSqo_MEbkqaJE-1" value="" style="shape=image;verticalLabelPosition=bottom;labelBackgroundColor=default;verticalAlign=top;aspect=fixed;imageAspect=0;image=data:image/png,iVBORw0KGgoAAAANSUhEUgAAAbMAAACvCAYAAAB3jjDTAAAgAElEQVR4nO3dd3yV1f3A8c9z98jeCQkhhL2RJQhuK2hxUGcVpVpLa7XW/lprq1Vra6t1VNuqVG3F3aqVqoDVWgUFZA8B2SF7kn33Or8/bgJhJLmBhHjD9/16tXLvued5vuc8N8/3nvMsrX/uQEUPSk5No7amuidXIYQQ4hSn6+0AhBBCiBMlyUwIIUTUMxiT8hicl0G8xUjI18SB4t3sq3SCpvV2bEIIIUREdMNH5JJoCeFoqMdvSCBj8Ej6x/R2WEIIIUTkdEaPi4bCLWzdvpWvyprRdDHExsrsoxBCiOhh2LB+LQBKaVhtVpTy4nGHAJlmFEIIER10AEopzGnDGZRqQDnKKG/o7bCEEEKIyOkATMnDGD0kDaO3hj07inDLyR9CCCGiiM6QNJjRIzIx+2vY8+V2ajy9HZIQQgjRNYbhw/th1RQed4jEAcNJBHy1BRTWeHs7NiGEECIiBqMONE2HNTEDa8ubLk+xJDMhhBBRw7Dx82W9HYMQQghxQuSCMiGEEFFPkpkQQoioJ8lMCCFE1JNkJoQQIupJMhNCCBH1DL0dgBB9xeAhwzos37N750mKRIhTj4zMhBBCRD1JZkIIIaKeJDMhhBBRT46ZCdFDzJmjOX3MABI9O/lg2e7eDkeIPu2UTGaKwQyaczcD7DvZ8c4fKHfKI29EN0s7h+/ffhHZRg1V1MQnksyE6FFRlcxUynxm/eBmYg+8yAfPPIPjiOeu5V6zlilDDr3nWjefxR9sPHpBulhsKdnEWp1YTYCzhwPvany9SJ85nXm3XMv0kVnEBBsp3vwfXnruDb5skITfFQkjRtLP4GLzq3/gtc0OkGcECtGjDEPOOJs0/aE/NKWaKVq/jlL31/iPT6ljvu13lOKoBc2Sit1uabe6FtrI1ucuZGv4VY+EeCyRxtdbFEOYe+9PmZ1tINBcR7MugfwzrucXsQ5uu/d9amWHHDGdXg84OFApiUyIk8FQX1aMXwdoNhIzU7AGXLj8PbOygyOr0jfYdGACI0f2I1TzKZve+S2l9SFU5u1c/N252CueY8nzz+NkJtPu/Q3Z6lNWPXQXpa0LCsaRNfs1ho86vH754jmUA5Ypz3HJheOPXr9KY9h3FzO2n9byupo9Cy9ic0mbnU3CuYye+T3yBuRgCBygsWARm//zIrWuCHdIHdTvLD4AZR3H0Fl3MCQ/H5Nqornw32xZ+jzVLeu3DvkRE8+bSUpiErpQA87ST9i25AlK6wMRlXdo4FQm99Ojqpdy/61Ps810Nr987qdMHj2d0+PeZ0kzqNgRzJl/MxeNyyWOZsq2fcjCBeGRW9bVT/H0tX4+Xapj0nQ3/3jic8b/6CbySl7l/vvfpRQNfcZ0bph/LWeNyMIeqKdw01L+/te32NGsodQkfvLGfZzp/ZgX30tk1pWjiXeXsu7tP/LnpfsJaNoJr7+j+irnOv7y52vI3vUOfy0ayzVnZREqXcnCx/7EZxXH/gHVHq/HC8RitnWpmhDiOOlqCgsoKKjCY43F4q9l35avqAv08C/JlIsZMTwJsGLtN5tJsy7D1M5o65jiL2TYiOOpH8DXWIqjtgS3N3RUqVJDGHnNQwwfko8xUI9fn0byqB8y45JLI1r+idePZ8AljzNu1Cgseh8hYyqJI+Yz7ZvfxKgUSn8+Y+dcT0ZKAspZgTcUR9zAK5ky5wZiIijvlN2KBaCmjCIfaM7l/P662Vx+2d0sadZQKo7zfnQfN84YSpLRj8+czMCp13PXD85rs/wcJk3Jxhw3hitvn8OIGCtJYy/jwmGgVB7X3vN/XDI+B6u3kWYtkcEz5nHPbedhbxufeRJzrhyCOaTDlpLPmTf/iNlZdMP6I6kP9LuAq85IQqdZSBp0Ad+/+bzI+u+wbakAI0Z9l6oJIY6TDsCeO5z8JAtBfwCD2dTuNF732ciGp2bx7oJnqQ0pDP3Hk9yV6tqGlvoLulRf0+rY//Yclj49h427j/Hw0bRzyEnVoxoX8fkfL+a9Pz9ESWMTZE0iNZKjiydaX8vDxldU7nqJFU+ex6InH6c6pDD2n0QSgC0TuxGof4vlT17G+4/PZ92Kl9m9vzK8ITsrP1FaDinabrase5vf3XQN19/0HNtCCvvIsQw++CHF6qd/zKJCMG3/O3f+czdgxx4LDDiDKTkG1O6Xue2GG/nOzY+zqllhnzCZsW3XY3Ox/P4b+M68X7K0QoEhn2HDjSe+/ojqA9o2/vbduXznrrcoUQrr0BHkR9A9SmUy6ZLLuXzOtcw7ZyChhq/4quQE+lsIETEDQMjTRE2tD3tcOrmj7Og2raO4J0+KcOyn0QPKU0CzH5JMcZi78gv2YP19h9c/erDVNbY4jAANhdQHQAsu5ounFrcUHj1anTb9LFatWH7c9Y+itlG+q4L0aRcx9SfXode08OEWkzW8oZqWU1z8HZL6X8mZt46gtnI/DaUr2b9pWfhkmM7KO4u/0/h2sXZ1NWMuP5f/e+kyzLqW+Czmg08pBx8Bvxd/APxeH95Am+nNWDt2QBs8lwXvzA33ig7AgtUAHPxoOcUFfrTgDtZ8uo7UwVDqMJ/4+iOqD9SVUOSCwP5iykOQbbVhP0Z3HN1/SQw9fRpjjRoq5KR4+UaKPZzMw7JCnLIMAJ6q3eyqAi1jDNMGJ5GQZKbY6Tv50SjFsceE7b3fu7qUCCKRPI8pF19GXP1iVr/6Fg7/FMbcdCvpLcWaVszul75FzbBzyew3iJjUceRfeBlDT/s7H//1WRo7Kz9ir9rl+LOv4Me3XkhOxcc8ed9iyr3jufHRGxndxWaGtr7CXS9tavOOg6p2Dult+eeDbDm4/mtObP3dFH+rI/tP07bz6i9/xis6C0Mvu4Pvnj2HM7c8zAdlx7kCIUTEdIOHDCc3yQSACgUB0Hr67KuYPOItoCXmE2sE/E14g0BjDR6A+FziDKCl5xGvA5qrcUVSv0UgGD6DxWhNQuvKlKmrGR9AwgASDaAs32DybUu55I4HyNJHsJwI67cbX9YQ4nSgmnZSXfQVjSoOW5v5QZU+m3EX3kR/+152fvwwa9+4h4Ja0KVNIyO+8/JOOd3h/k/tR64JlP0sfvHa+yz698NcHKvQBuWRowNVu48t2/dSTCyJXZm/bHbiBHQpyeiL9rL3QAwjz5jBGWNyMEVQ/UTXf8LxR7qekIeislrAhs3a6ceFEN3AYE1NJy3JivmAE2NiCuChubGH50a0CUy84wMm6pIw6zQCJZupBXCtoLT4NlJzZ3LGnePxG1Iwo3Ds/pTGwxYwkQnHqt/CX7qVpuAkYkf+mkuzb8UXhMr/XcGG4tlM+86NJAL6GDNgZMCcRWQFPJQuuZYt+z+htOYGRqZdzow7p+LTJWO1GPHt2UxdIIIuqY6sfrvx1RbjBGLy7uTi/5uH0muE/By66ZgviZQJV5Okv4L8GZX4dElY7YC3hGYHoOukvDMFX7C27HIuy76IX794Os26OBLtGu4vV7C6CVRpBVVA5phbWPDSVYQM4PcCkU4RF65ibekV5OTM5ncLz8BpjCfOrKh4by2vRFD9RNd/wvF3gcViAbx4PN2/bCHE0XS7dxXTGDCTlJ5ODI1U79nG/oYeXmvdR+zc1YCGB3fZEjYsXYRP09C0MvYs+jk7du/Bq4tH7y+jZtNDrPzfRlTb0eKBxXx1jPoHVTzHiqUf0uRSGOKziUnOwWrWgT4eW9Kh15pmwBSfgz0pG4sJNG032/9xH7v2FhAwJGNUB6jd9iwr312EJ4LRasT124uv/CU2fLYah8ePpmui/OMXqWg7/Vb3MqsXvUFVbROaPQurKYin8jO2v/0E5UGt8/LO4mc3r/72CZZsLsFhjCWWBgpWvcrvH2+5xmzvWyz450YqHH70+iY2vvwWW7pwGYemFfD6Q4+zeHMJTmMsZm8FWxY/zm8Wbj98+7bnBNd/wvW7wGw0AUGCJ3ocVwgREa1/7sAePRyVnJpGbU010OY6s5q/sfTZBTjlYlLRh7R9nplp3I3c/+1R+Mu2sHXzGhYv2822Pbt6MToh+rbeuWu+ppMTvESf5t30Nq+vKCSQOpopo7Mw93ZAQvRxUXVvRiGihaY52f7e02x/7+AbvRqPEH3dSU1m2oG/8p/f/LXlhfxxCyGE6B7ycE4hhBBRT5KZEEKIqCfHzIToJnt27+ztEIQ4ZcnITAghRNSTZCaEECLqSTITQggR9SSZCSGEiHqSzIQQQkQ9SWYR+Pa1V/X48rp7HUIIcSo55U7NV5jIGDGOEalNfLlsR/hu8CcokkT0+htvHvbvb1971WHvCSGEOH6nVDJT1iwmnnkaGR4nhlSwRFCnNel0lnzalh352WMlO0lkQgjRfU6pZIbdjG/bpyyt7ccF30zo9ONtk1JPjKaOTHJtX0uyE0KIyJ1SyUw7sJ+tgIpgSNY2cbX+u6OE1lFiam+5HY3mhBBCRO6USmaRaE1C7SWW1oR25GcinWaU42VCCNH9JJkdIZIkc6KJqG1CbOvI9yThCSFEZCSZdZNIpxlbyRSjEEJ0H7nOrJu0HlNrezys7esjdXRMTQghRNdIMusFxzq5pFV7U5BCCCHad0pOM2qe3Xz0NtANF0x31ZGJrO1/2/ucEEKIjp2Syaw7HSvpHJmsjlV25L+PtVwhhBCR0frnDlQ9uYLk1DRqa6p7chVCCCFOcXLMTAghRNSTZCaEECLqSTITQggR9SSZCSGEiHqSzIQQQkQ9SWZCCCGiniQzIYQQUU+SmRBCiKgnyawXKAaTP+dvnDf3Z2TZe/Sa9ePydY+vpynyyb98AedefyeZJ9B+S+5ZzP3pw8ybfGgZuZfdzT3zZzMy4cRupaZix3LdA8/xytvvsujpeQxQp952EqItuZ1VF6iU+cz6wc3EHniRD555BscR93bMvWYtU4Yces+1bj6LP9h49IJ0sdhSsom1OrGaAGcPB95VEcandLOZcc+vyPR9yOcP30tlhPe67H/FZ0weGqL4nbNYuyPynbqKn8sFt80nof6ffPz0n2jo4r01Vcp3mTl/HnEt9YKBRtzlK9n936fYV+E49EFdHLbkcPttx7F9lDKQM/Nn3H/LNFIMIVavOVRmiB/ApIumc9qMGbz98IO8sc3R/oI6MGjOD7hyfBbK7+DAgSZ8x7UUIfqOg8nMlDGa0wYnE6j8kg27a1G9cBPeqNHOr2C/oxRHLWiWVOx2S7vVtdBGtj53IVvDr3okxBPxdY/vRKlAI+6mZpQlFXvOLMZ/Ow7/M3dR7A63VQttYusL3zzu9htHzuOX86eREixl+QsLeO2LQ2UFi/7AE4bv873Zw7nq7jupuO1BljV0fR0pSYkAbFt4C79a3NwrN80W4uvEAKCMGQzJS0bvq2J3Qd9NZAdHVqVvsOnABEaO7Eeo5lM2vfNbSutDqMzbufi7c7FXPMeS55/HyUym3fsbstWnrHroLkpbFxSMI2v2awwfdXj98sVzKAcsU57jkgvHH71+lcaw7y5mbD+t5XU1exZexOaSNv2dcC6jZ36PvAE5GAIHaCxYxOb/vEitq/NtknDBv/jG1P40rbiO/3yyG6XM5F37KZMGByj517ms/iqAlng+Y2bdwoD+ORiC1TTseo0NH7xJg1+LKD7TwFs5/aJvkWJrpHLZx9CF2a3UmYs4e2Jayys9ud9aRS6g/B+z6uH7KNc0lHUMQy+8jcH5AzHRTHPhe2z54O/UHKP9Sj+dyT96mFxbDftevZJNRQG0hHMYPfMmcnNzMAbraNz7Dps+fIU6d5v69e+yfMECmvUZDP72G4zLnUr2YCNFWxIZdvMixmS1af/Ll7Gl7faJP5vRM29iQG4OhkAtjQX/ZstHrxzcPkrZOeeKWWTqAmx78T6eXFxD24SomgpY/sKv8MW/wN1nTeHyi/JY9nph5J3YwuF0AnZUKNTlukL0RTqlTGQMHUS8wUfNvj3UBftmIjtMysWMGJ4EWLH2m82kWZdh6soxh/gLGTbieOoH8DWW4qgtwe09eiek1BBGXvMQw4fkYwzU49enkTzqh8y45NKIll+/ew1upYjNm4pFKdAmk5ZjgOBmKvb4w8u/+kGGDhqIIdBAQJ9B8ri7OPOis9CU6jw+/WRGXzKPjKQ4NGUhbcblpHRhXxr0N+NzNxEIhNsS9Dbhczfhd7kIAkrFM+CbjzB21Egseh8hYwqJw7/LtItmYTxG+20TryPHBqHiN9hR6EepwYy8+gGG5A/A4KvHryWTNOoHzLh4FoZj9V+b2MPFQXyNZTjqStvZPvmMvPrXDBucjzHQgF+fSvKoHzB99iVtts8Qhg0xATtZvezYN9jWNC9ffLYBl1L0Hzaya989wtOYJmN4UsVstnaprhB9lc6UMYQBiQYCtXspqPH3djwnyUY2PDWLdxc8S21IYeg/nuSuVNc2tNRf0KX6mlbH/rfnsPTpOWzc7T36A2nnkJOqRzUu4vM/Xsx7f36IksYmyJpEaiRHN4s+p9INZEwk0wL0m0iqBVTpKip84eVnpxpaln8ofvOw88mIJL7k00iNBdWwiM+emMW7ry/Gq48grhZ1/7uBdx+fxYa9IZTyU7p4Ju8+Pot3//wIVZoG2gBs2i4qd7/Kij/N4t9PPUlVSGHMnUjSkQvTj2XopNHoqKVwxTt4NA3SzqZfih7Kn+M/f7yM9558gBK3wjhoOmlt6yZeylk/fJNv/uQNxuWawLOS4r3+cPv/dTUfPHM1G/cca/ucS3aqHtX4Lp8/dRnvP/0wJU1NkDmhzfaJJcYKBBqpb+qgM+obaASwx5AQYf8p43R+tOA5Fvz9Ve65IBHfgfUsW18bYW0h+jbd4LwUDIFaCvZUYc6bzBkzzmJIysk5M2ra9LN6p9yxn0YPqPoCmv2AMQ5zF3bKh+rvO7767bHFYQRoKKQ+AJprMV88dR7/fuJXlB1jxHxU+9R6ygtcoBtLer6RmIETsGsa9Xs/w6dpRy3/YPym+Mjit8ZhAmgspCEAoaoCmjv4eGfb5yhqO2W7ytGSZjL1x59xxY/vIE0DjBYOCy/uIqb98GEGxkOo7C12FrT8CLPGhtuXeQsX/eJzrvjpr8m2AHorxjYL0Azx2JKyMZs8OIuXsPG1hyhzRzAj0br8hiIaAqC5PmD1n2bx7pMPtNk+WhcPs2ntfvzo/rOTnJFJZkoMegI0l++jtE6mGYUAMCSZNJr27abGr2E/yStftWJ5r5YfRal2DgG1937vOrJ9muancu8GQiNnkDbwbDIS8lFqP5V7yuiNEzm63P/Jc5ly0SXE1S9lzWvv4PBPZPR3vk/6ER/TDHHY48P/DvhcBI4oDxU+zyefrG3zjgNn8NArVfMy/1mw4KizUbtHkFAI0AzoO1q8ztCSoINHxd/qqO3r/5D7L/sQpU9m1i+fZv6EK7n63HfZ+n5HQ0AhTg06gLj8aUw/8xzG94/p7XhOjpg84i2gJeYTawT8TXiDQGMNHoD4XOIMoKXnEa8DmqtxRVK/RSAYHikYrUktx6Ii5GoOn2KdMIBEAyjLN5h821IuueMBsvSRLSew5wtqQmDOvJKcLD00rqG89dCNqwl/m+UfjN/XeFj87XK3nAIeP4AEA+jSBxIbeesOxRjwATqMRx7vyRxEnA5U0y6qi3fQSBy2Y1wJqer+wX8fvodil0KfN5cRA4wt8TXjB3TxyWg1O6lviiVlxLlkD+hPdwycD22fXBIMoCznM+nWd5l9+6/abJ86GhoBfSbZOe0vyprbj0QgUF9PV1ORFqxlX0kTmqbDYDAeT0uE6HMM1dWVh17Yk0m0dcuf/debNoGJd3zARF0SZp1GoGQztQCuFZQW30Zq7kzOuHM8fkMKZhSO3Z+Gj28cNJEJx6rfwl+6labgJGJH/ppLs2/FF4TK/13BhuLZTPvOjSQC+hgzYGTAnEVkBTyULrmWLfs/obTmBkamXc6MO6fi0yVjtRjx7dlMXYDIBleuZVSW/4z0fuNI1cD71UrqW0cg1csoOzCP4amXM+PO6QQM4fg9uz6hElC2SzuOr2QzBxwQl3A5Z/5kOkFlpN1hRQcaqwpQI0eQOWsxl57nh7q3+d/fX6C5thQXYM+7g4vunIvS6wj5Ofal/f5P2b52N9lnDWHgWVew66U3cFUvp6z2eoanXMk5Pz6HgCERk0HhWLOSbRHEpWyzmTrv+nD77S3tv+xNsoJeSpfO5cv9n1BWcz3xaZcy447TW7aPAd/eLRw4uH12sn5zA7POz+WC68/no0c+pjakHbGekcy9dDwGAmzduAH/cYwQ7fbwDwGP+/iuUxOir9Ht3rmD1v8V1R7joHdfVPcRO3c1oOHBXbaEDUsX4dM0NK2MPYt+zo7de/Dq4tH7y6jZ9BAr/7fx8MsVDizmq2PUP6jiOVYs/ZAml8IQn01Mcg5Wsw704WM1ra81zYApPgd7UjYWE2jabrb/4z527S0gYEjGqA5Qu+1ZVr67KHyCQwQ07QBlBXvRdDrASeXu9W3KdrHtH/exe18hAUMihlA1tV8+zucffBpuX2fxBVez7b1XqKxrRul8HFj5DyqP45CNY+0TbNlVgE+ZMFnjMJpN4XxV8QrrP1uLw+ND0zVR8b+XqexgxNi8+iVK3KDLuZYRg8zh/vvng+wuKCJgiEfvK6Nq3YN8/smWyK7D0sdhS+xHTFJ2m/ZnY0/Matk++9j+5gPs2refgDEJozpA3fbnWPXeuwe3v6aFWP+PhaypD5I45XYee/RnXJB7aFSdMHEuDz7xABf3N+DZ9yYvfVTX9Q4ELGZT+L/W4xkbC9H3aP1zB/bo4aDk1DRqa459ivLJdvA6s5q/sfTZBTj76PV0ovdp6dOZf9dtXJBvZe3jl/DI5+HvWv6NC3js8lQqVy/k0Sffo8BzfN/B/tf8iT9ek4cu5KJ+6z+5975/US7fZ3EKOzVvZ6Xp+uB9LcTXiapawbM/WcOicecyoM0cdf2mf/LI8nWs2d98QjcnKHrrUf6W8wuundKPxJSWs0yFOIWdmslMiJNA0/xUbfmQqjY/neq+/JTV4cITW3awhKWP3srSQys7oeUJEe1OqWlGIYQQfZM8AkYIIUTUk2QmhBAi6p0SySw5Na3zDwkhhIhap0QyE0II0bdJMhNCCBH1JJkJIYSIepLMhBBCRD1JZkIcQRHP5d+/kGd+NoEZ8V/Hh/+EWXLPYu5PH2be5K7HOO+1eV16v7vlXnY398yfzcgEudhbdA+5A8hJZsm/kJvnXc7E/DQs/gMUbnyfv7/wHnuc3fdHfc4v3uVHU0Ks/MNlPLYq+nYWSg1l3POPMihlJ5tv+hn7Gk5yG3Qm0tNjyInxkWLuevULf/ht7h6v+PTZ13lww6HYZ/3oOn4+9tDr6k8+5KrXarq8fKUM5Mz8GfffMo0UQ4jVaw6VZd50JReeZ6f0by+ztf8cZl0QQ/mLr/LRx50/3mDea/NYeN3CY77f1sLrFrab9FrrdxaHIX4Aky6azmkzZvD2ww/yxja5+784MYaRM84msc2tcJRyULJhLcWu6NsJft0p42nc8ssfcm4y+JrqcFvSGX7ufO4xN3LbI8t76GGRUciYQ0wS4CyjuZ6T/lxRLVTDgl//iwXhV922XEdDE2VVoLPayYw7/t+RxpHz+OX8aaQES1n+wgJe++LE4mqbmNr+u21ia/13a3lrQmv7ma6M6goW/YEnDN/ne7OHc9Xdd1Jx24MsO9k/WkSfYtAA5amnpqn18S9eHP7eDKkPGzyRsckaFP6TO3/yCuUJ3+SBP93AkKHjGMpy6uY+wx+v6E/zJw9yw5NrCBHDxb95lVvGBFn9+LU88rmf1Cnf4dbrz2FoZjymQBOVe1byj2efY0V5iFHzF/Lbi1JaVqZn+s+XMB1QnuU8ctUfWK1p6DOmc8P8azlrRBb2QD2Fm5by97++xY5mjayrn+Lpa/18ulTHpOlu/vHE54z/0U3klbzK/fe/S2kEO3al4ki5/GbGXDiJhBQTgaqv2P/yU2xbW4tSBvJ+9TYTTvNS9PurWL9OI37us1wwJ5v6N77Pxx+M55yXvkdKa1KPOZ8z/30+ALWv3Myn73R8WzSVOZqFvxnDgH1f8eeKTG6YFEOgvIgFz6/h42pQKot7nz6H8717efq/Vi6/OIN4bxNfLF7JHz5twIeV6+/9FrcM1Fra4uSdh9/hz3u1I5a/nSdLM7nx9FhURRELnlvDf6th3HWX8+S5h57Xfu6tczkXUJ4C7rt1JZ+//D6fA0nfuIB3rj7y+dmdLz8ck51zrphFpi7Athfv48nFNbRNuAF/EKVCBD2hln8rAm2evHpk4mpNRkeOyE50urGzOFRTActf+BW++Be4+6wpXH5RHsteLzy8P/rN5re/v4n8hiX87ifPsy0gyU60L3zMzFnOoeeaFVDnly9Nj2h24gZIymdsPwvULeGB66/m2zf/iQ2aRsFnqyhViphxkxgJYJrE2GEG8G9l3TofyjCd79w5h3E5sajGahqDMWSP+SZ3/N8VZCmF39tMc7MDtz98DCXgctDc7MDh8OAHlMrj2nv+j0vG52D1NtKsJTJ4xjzuue087AefiJ3DpCnZmOPGcOXtcxgRYyVp7GVcOKzz5ikFCVfez5k3nENSksLnUpiyxjH0jvn0syigHzHpOqCK5tLw52MyUlEqgKOiHFJtUFmJs8EDQNBZi6OiAkdFEbX7qyLv54x8rjvNjMJAysDB/N91+SS0feK3KZvrLk7BEtKISUzi/GunckU6gKK5vomyqkYOuDs4DpUxiBsmWdFpRpLzBvPja/KIU4qA10eTw4urpf99bi9NDi/NrgBd+n3YzvLDhjBsiAnYyeplRyd3V6MX8OJuUrgaPYAPd+Ohh84tvG5huwmsI/Nem9duImwta7u8zuIA0DQvX3y2AZdS9B82EtMRT2W3jp7E6Hgj1v6TGN/BU7uFgNaRmTGVIROHkGwK4DxQwO5dVRE/DMQ8v3MAABr2SURBVFJ0QfF/eHf9Rdw6cSLf+9M/+Hb5LjaufI9/vrmS8oAGhctZXXI138o5jUlDYHviBEabILB5LavdQHIqKRagagkPfO95dpuGM/Oa00mnBiOwa+HtzF146JjZ6j9ffeiYmaZB7hlMyTGgdr/EbXe9RbV1Bj9//udMnTCZsfyP8O9ixeqn76Tuhr8yu/jv3Fl0JQvmZmOP5BmQ+okMvmQwusAutv74LnZVDWf8sw+Tn5pLYhaUFvTDngYEqnBUAaQTk2ECKnCWhdAK3mTZrW8Sc+2fmHlVHs7/PMBHr7b+Wu/C91Gr5i93LWdZzEie/v14hg9KZyR7WdFabvXx34cW83RJMj9+8EIuS0tiZL4OrdrLe8+8z3vA2d+7mvsnt7/8p+9azvLUsbxw/2gGDExjMAVseHsJl7zdeswsxIoX3zx0zKwrf0/tLR+AWGKsQKCR+qaju8X53hJeeo9wwbYPeGkxR3/oOHSUuI6VFCOOo76BRsBqjyEBaJue3Ws+4sNzkhlc/x+WF51wE0QfZ1ChEMpqw9TYgEufTGz6UPrXVbP7QM+vfNr0s1i1YvkpU65ptfz39z+h6VvX8M0ZpzG030jOunoUp+X9kdt/+zENWgmffVHIFf3zGD85j43xY7ASYuu6lbg0DWrXsvKraxg84mLu+csQ9hYVUbhrPR9/tDqyBzPG2rED2uC5LHhnbjgmHYAF68FDOD4Cfi/+APi9PryBzk8cOChnGEkxQNEmyspDQJDwb+1mvA1Aej9ijEBFBY4gQBaxqYCqwlHSJsz0NJQK4awqi3zdbTU2UOCGkLuBMi8Mt5iJ0wMHZ7kc7C8OoQUPsOKLMtLzoNhtgEjHT40N7HNDoLiBshAMsJjo1uc9d7h8LZwTuuEkyyNHV5GK5ASQrtOOSnVa/Qqe/fmKg+VCdMSwbeVnh16lj+KMISnYbBbA0+Mr7ygR9NVyLVjF2jefYu2bYMm9lF889F3GTJrJWYkf824DFH2+mpKrBpA98kJOj0mC0A7Wr2oENDStjH/fewvbJ09n3NBcsvuP4MLvzOTS8/7JXT9+hf0R/sGHtr7CXS9tavOOg6oAxEVUuwP9MrEDocpynBA+kSMZcFfQVAucloEdoLqCJoD4bGJigLpymnyAFj7mFpNuAxpwVra82YM2vL+sZcQTLYKEQoBmQH8cXdPZCR7H+lx7uuU4m86AHoAgXfjZJMRRDP1yc8FZRWmN++BuQ6mv77U10Uw/9Taevmk8wV1vcM9j/6W+vJBqLxBjxWoHGoDiZawquoarBp7DDCOo/etYXUd4Rz/wPG4+Nx9V9jmvLFyCn1xuePpp5gyYyGlpr7C/ZY7G6/cDRqwxFsB7KIBmJ04gMSUZfdFedtnHceml40lo3sbivZURt0OlTOOHP7uOQY3/5c+PLGJ/MPzNMcbFotc0gjo9ekA3dSJJOggV7KIOwGxGDyi9Hj0a5mkTSAACO7ZRf3Dp6VgTABpwtzM70N76D4pPYKAVimMS6GcGvF6agsdcVI/w+oOAHrtND4SOKvcFwu/ZYiwYlCLQpSn9OhoageRMsnOAks4+f7jjGYm19/nuuCbNmtuPRCBQXx/+gSPEcTLE98sjUcsgKd2FPjYJ8NDU6EGG9d0vsGMPlTEXMnb6j/jr2Otw6hJIitEIlKxjbcuMmqaV8dnq/Vx9zUBigIJ1q6hu3dm5Exg+czaDDBdzwZXVNOviSUkAXGWU1R1aT8H+IkLTh3Da/Nd47YYAoYp3+cVPX6ekcBVrS68gJ2c2v1t4Bk5jPHFmRcV7a3kFyIywHdaJM/nGsFyUuogzByxi/77w+/6CYlxqHNZJt3Hx329EF5+APlRDwTv/xa9pUFRIU+hMEkbdxEUvXIkuMRF9sIhd769GHdyhOwl4QNPyGPG7F8hzKxqX3MsXS6o7Xf8h6dzxhzn8SG8lUafh2VfDVxG0S8UN5Dd3jyQfMMcZAB3fmH8Jp/tDrHhlMc80RNY/u0sbCE5OYfL1V/L+FSFU9Q5u/+1Wilra2LyvhqJgBv0nTedf+Q4cAdj49vs8VhHJ0neyfnMDs87P5YLrz+ejRz6mNtSzf6vHmjo8/unEQ5RtJHMvHY+BAFs3bgh/R4Q4Tro9Owqp92jYExIxBZuo3rONwsbeDqtv0ho+5ImHFrJidxU+SwJxuiYK1/+bx377MgVtfjyULv+CQqVQqoQNX5QeWkD5Ozz+xLt8WdaMPj6dFFuIuv1r+OejL7C6zWnLFe89w0urC2kKGrHHxhBjM2MANK2A1x96nMWbS3AaYzF7K9iy+HF+s3B7m2TSOffWdXxZ58FVtJbNbcJj1+usfnkVTfV+9HEW/CXr2PXYL9m8sWXKuvw91r+wjPoaD/pYA779q/jqd79m265Dx6o0rZy9byyhttYF8enYM1LBcSCy9beq3s+bm33otAAH9u/lj6/uoT6S9unNpKTF0S89nhSrhqbpiU2KJysthiRLxN1D2X/X8teNDTQG9cTGmIm1GA6/O0Hhl9z3yn72NynsSeH1JVsj639NC7H+HwtZUx8kccrtPPboz7gg98RnUlpP7DjyrMW25W3/29G/I5EwcS4PPvEAF/c34Nn3Ji99VHfUZ9TI+fzt3++z6O3fcVGCzBaJjmn9cwf26LckOTWN2pqOrw/qaV+HGLpC5c/j2ce/RWblu/x0/vPsk1+sETl4nVbZl9x435cU9+F+09KnM/+u27gg38raxy/hkc8jb2vbC59bXx/r+Fd75e2VtXcHkWPJv3EBj12eSuXqhTz65HsUeI6OP/vbf+IvVw+kecXD3PSHz2XkJjokyexrKPe6v/DUVQOoWXwXtzwfyQSZgDbJrGIr8+7dcnBar69SykjGuHMZ0Pgf1hRGV1uTxpzDkKZ1rNnffMxZAaViueShV7lpVC1Lf3kzz38lIzPRMbk349eMUllMm5SLUvVsWCOJTLRP0/xUbfmQqig8vl335aeshvavvzOOZ9QQHaGC/7Jke6hr1+mJU5KMzIQQQkQ9eQSMEEKIqCfJTAghRNQ7JZKZTDEKIUTfdkokMyGEEH2bJDMhhBBRT5KZEEKIqCfJTAghRNQ7pZKZMl7Ir//9Hm+/8SIP33omad3xUCghhBC97pRKZuCktqaJoCWFod/4IddPNfZ2QEIIIbqBDkAZ0hgx9WzOmDyUeF3fHa1o/hU89d3reWyZA02zk5Rq6+2QhBBCdAOdUpCQN5BEg4eqPXto7OFnI/U2TYPWZ4+6Xa7eDUYIIUS30Gn2XAamW/BW7qGoSR3a0/dhZrMZpYIYjebeDkUIIUQ30A+efNYDGVYffn06uQMHkJmgqK9qxN9Nd+K22e24Xc5uWVZ3aQ6lMOG0fIZM+SYXnnMBMyca2fTpVzTLnbmFECIq6bIS9ShPE5Wleylr8GOMH0h+1skZsUybflavlDuqiqio96B0VpIys8hIjcPUcahCCCG+xgx2DepLdlBepVDNZpIn5BETFwflBzqvfYJWrVjeK+UTLpvLlGw7BW/fwd2v7MWHJs9LEkKIKKbTNA2jKTwu0UxmDEAwGOzdqHqYXq9HqSBVxS2JTAghRFQzNAQV8bnjGRPnQh+XiBEPFVUNvR1Xj3K53WiaBavNCnh6OxwhhBAnSLdz+37qXGBPSMAUaKRy95cUNIZ6O64eo5QOk1EPgNEkZzMKIURfYAg0FLFjY9Hh7/bR40fKOJ07/jKfaWmxKNVIRWlTb4ckhBCiGxh6O4CTy05yegIGdw3bP/4rr64P9dnELYQQpxKtf+7AHr1KOjk1TZ70LIQQokedYjcaFkII0RdJMhNCCBH1JJkJIYSIeobYuLgeX0nrOjIysjr8XGVleY/HIoQQou+RkZkQQoio97VJZo8++hivvPJ6b4chhBAiCn1tkpkQQghxvE7qRdNKZTL50smkOsv5as16Ch19/0GgQgghet5JvgNIEkNPn85Yo8aZk3P52+Nvsccnd+AQfY8ilqyhw0i1NVHy5U7qg/I9F6InndRkpmnbeeXee1g+8zZuP3sUo/u/xZ69J2/9ShnIGncWeQkBKjcvo6BRQykb/SdMJSfWT+WXKymo773H3yilSB52LsMzj94sSjkoXrOKUk/XdorKNpDxkwZic+xj4/oCPF/z23fp0sdz+rBk/BUbWbe7DmXIYdQZQ4n3FvPlF7twfM3jP8gQQ2ySDbO3kdARExBKxZJ3+hSyLI0UrFxLZUDrUnlXdPf2V0kjOH10Frrqbaz+qgIVLdtD9HmGRx7941FvBre+yi9f3tAjK9RCPiqqG4BE9PoeWUX769YCNNQ70RJjiU2MhUYHxvTBZMVqBA/sobgu0Mv3ajRj1PtwuXxgMGMz6Qn53HgCCkJ1NB/H02p0thisQMjlwtvt8XY/i82Kpml4XM7wG3YbNgCXC1dvBtZFWqCC3V9UtL46ojAGixnwO3D7jy7utLwLunv7m212DJqGw90kiUx8rRiUClJXsIWSZiAul9F5SfgDPbvbs1otgBu3u0dXc0yuulo8eTHY4hIwoCNnQCp61UzhvnICmoZSRuKyB9O/XyqxFh1BdyNVe7dRXO9DKUgbdR6DU0JUbf2EfXUatgHTGD/ATlPBCrYWn1iDNM1H1VcrqQJiBs5gbH89zUVr2Vbma/1Eh/EBKM1GxpDR5KTa0DwVlNbZ0GkaTrcTpWkobKQNGUluagyat4KyhkTysmNo3PsZW0sgZ8IM+se6KVu3giKXRuLQcxieoaN2x//Y1cO32FQKbFYrSgVwuzyAhsEag0nT8LqcBNFIGXEuQ1MDVO0txJiVR7wpSFPJl+wqaiSkaShlILbfIHL7pRNr0RHwNFKzbzvFtZ5w+zvcvikMnTGO+ANF1MX1I6FhO3u9eQzJNlCzbQ37GxI7LC9sDB4cuRhadvSqZjtfbCsLr1ufzajpw0hoTQKmbEadkw1A477P2Fqe2mH5thJvS/uGMCA7lRiLjqCniZp92yk64A6vo5Pt3/k26Lj/LFYbSgXxksqwSQOO7v8Ov19eUkZ2sv2wkjZkNLlpdjRPBWUNyeRl22jc+xnbSiNovy6WjEFDyEqOw2LUEfK7aCzfyd7COgKSfPs0HQQo+uxlXn/1dTbXm9DhZNvGnT26UoMhPI2meuOxac0HaAiAFhdPYkY+6VZwl+6kwh2e5rP3H8/IQVnEm8EfAKMtieyRw0jWKcCG1aoBbtzO8OetFjNKhfC6ui8zKwVWqwml/Lhd3jbvdxyfUpCQfxr5GbGYtBDKlElOphWlQnhcTpSCuIHjGJQZj0kXLs9Ot6BUAK/LA9gwWwA8eDyglBGLRQ/48LojP1lH6ZPIHTODKdNnMDwrBqUirWvDag/3b+vAzGazAuBxOwELVosO0EjKySPGpMNgtJI4YBAp+nD/2HLGM3JwNvGWQ/3Tb8QIUowRbF+LHYsetMR0ks0GzGnDGJhlx2S0k5IS03k5YDLo8LnduLwBALxe16EkYjZAm7KQ34PL5cLlctDc7Om0PBz/aYwcnEWcCQI+hcGaSNaI4S3t73j7d7rdOu0/AzarEQgSlzngGP3f2fers+0HMQPGMygz7lD86SaUCuBxRdj+QePJz0xA762ntqaRgN5O0oCR9IuN8Csoopbh7rvuBjSImcwZY2Kg5hNW7PD36HRbw+7tlJ83k8lXzMNa1ESwbluPreto9TTUBUlPSyC7vwWdr5LCwoaWHU4SWTlx6FQj+9euo9wbx8Apk8m0xGC3wAGnHYsVUG68XgALZpsecOFxKU5oPugwMVht4Z26t+3cmpbccXyuFNIyLKAaKVy3jjJPMkPOGE8qHtyuEGjJpGfY0I4qd+JxA3orZiPgd+MOAljD7cWDpwtzfDG5w8lOsgCQmJWGvaw5wilCO1YLEHKEkykaVqu5TVJPaYknQPW2VRQ6khg8bTxpRhMGIxBKpl//ePQH22el3/gp5Nht2KxAoJP+M1mxAL6KzezTj2N0chW7tiuGThxAyO8HayflgL96G5uqwdhvEpMHJ+B1H2q55ipk+9pCrP1P57SBsbjKNrGl0NFaikbH5Wjh76feV8nOtVupDRjJHHc2AxOs4X7rbPt39v3UOuk/fwxWW7j/q7Yeq/+TOv5+Ye94+wUTSc+yoSkHJRtWU+xJZ+jU0aTgwufm4Pe/3fY740lMMgENlGzZRFVQw2hPJtas8MgD5fu8g2caZJwxnXxDiIJVK6jo4eF4qGoH6/ZOYfaIUUzpp6GK6np0fW1pGjTUNaLSkrBagzTs2kN9qKW91gRijIDjAPWe8Ggi/P9+fD7AbMOsA9xOwgMVW/iPqLunTLWWP/qQk5bZtsjis8Zh14fL61pGUkqDcLI9vP5h5aolfrsVM4DHjQdAs2E2AUEn7gAR52preHgHQMjtjvxYjcWORQc4XYS7M6ZlpObC7QKMNswGwHeAuuYQECK86XwE/Ee3T9PclG9aRvgmaVqn/WdIsGFA0eBwYk4zo5wO3JZkLChq3S4Mto7LD2uKxdIyovAe1XHhMoW3ndFSu+Wt8ZPO0DPSaW0WePB66Hz7d6az/tPbsJoj7/+D62/9fnW2/Sxx2I2A6wC1TgX4CKo29TtrPx68rhCaJZGBp59JhsuJq7GGqtISXCdwEo2IDgYApQ1hxpRMNM8WVq2rp/tGGMdmn3gxl4ywsuPt3/Lq2gYCaDz66OweXWdbgeYG3CRh85RRXNkmW9hsWADVerBcs4cPxAec4QPxiVasAC5XeGdviMFiBLxO3BH88I2Y2YpFA9ytO3Uiik8Xf0S52Y5VD/hcuIKgO7J+a7nHFU7OlnAyU14PfgiPRDTA4+nSyQMNVWU4kjIxeWsoLKggGOmPI1u4f1Vr/2otI7WgC7cHiGvpf2fLySB6GxZDuH3u4DH656jld9x/Vosd8OBxW7DaNDx1Tsz2/mh48boU1vSOy1u/AEqBxWqCgyOSQ5QyYLYaAB+eY3xpOixvid9bsZ0dZY42lfx4O9q+Ldu/0+9nZ/1ntYV/7LTT/51+v6ydbL/Y8MgXd8uPqdaZAm/Lj8dO2q9pXsq3rcaTkUFibDy2+DhScpJISdCzacP+r/2ZvOLEGABiJp3NmFioX/k524/+IdntzFYrGg4qS8OJ7KQzW8I7bUczzjazgwaDCb2mEdB0aIAxJZlYDVRzEw4AnR4dHDwGYkpNJgYI1tfT+RGJLmjdqTtbdupEFp/OaG4p19DQsKakYgdwhZNiu+Vud7hcr0evaSiLDaveiD4z/WBy6UoyC9TtZMvKrh931RlMGDSNIFpL+1IOa5/eZsME+D3OcIK02cI7R0+4n9r2jw5QiUMZPTQdQ3MBX24rIdRB/zWHINlqAlWH22UnwQIepxNbghVoxuUKH8dsr/zwkbkNq0ULjyiOmt6yYjYD+MKj6aO0X97aviB+3I5mdHHZ9Eu2EGgqp9yloe9k+3ems/4L2OxYOuj/zr5fnW0/DIbwDsloQI+GPjWNWAC357Dt2177jfFZJNl1+OoLKCgHpc9h1PShxJvNGAGZaezbDEqlMHXaUEyqlE9X7Dspp9t63B4gsWX+/OQztpxe7DriDK+AowmXSsKaOoKJUwejM5nQKS8VxS2jC6cDp4LYpKFMmJqPzmRCr5yUlNYcthxDQn+yEozgq6O8rOtnUZns4fiOPAOts/g0n4eAUuhTRzBh6lCUXkOvafjdzvAOpt1yR/hMMocDl0rFFjuQ8WcOxON2owFej/ukfC9CLicupbCmDmdCS/v0+KguKcevadittvBp+y1TerqWnWPQ6cKvaag2/TNh6mA0kwm95uPA3uqjyo/qP509fHKPz4nbZCdD76PZpcecYQi/F7CR1FF5EIyZYxjVPxbQYbQAJJI3eTr9g1XsWb+n5Rq5AKEgaFosOafNID2ocJWuZ1d568+F9ssPbv/MsUxKCqIzGdEpByUb94X7r5Pt35lAJ/1ns4fPjGyv/zv7fnW2/fB4cAO2uEGcNm0AIV34fntBtyt8pnEn7Tcm5DIoL4agJ4uGBg+62ETiAF91NY5jNVj0KTrDoHOYnKXh3bWS1QdOzkoDoQBgCh+P6QU2a8sZcs4jxlOO/ezZV4nDG0Jv0uN31lC6bR2F9eGzy/CUsm9XGc2eIDqDhs9RSfGWjZS2uS2XUmbSBg4mO3cAcZr7uE4HtlpsAHhdRxzo6CS+UF0BhVVO/EFFyFtJWWW4fvhMwPbL3a3He5yF7C2opsnhoKF8B0U1wfDOx9Ot4872OfazZ28lzS3tC7pqKdu+jn21fpRSWKwWlAq2/BgCqzW8c3V7HAfr794Trq8zagRdByj7aj17a7wR9F/LmZxOF26rFStuPG47VjstI5vOysEam4jNZsNms2DUaWg6I2abDasKcPDiCs1NRUExjZ4AOpMFq9WC8h8a93ZYfjB+hd6k4W8uY+/GdZS0bJ7Otn8k/d9e/ymlsFqtHfZ/R9+vyLZfEcWljfiCIUK+A5RVulrKnRG131mynYKqJgL6GJLSUojR+2go3c72fXVyTdwpQBs5elyP3iDRZLbgCx+dJT19ApMvP5MJw8cxMKGaDx99gv8dCH/JHn30MQDmzv12T4bT45R1IOMmD8TuLWXr6h0098Y0ajdQmMkaewZ5CT7KNnxOkSM62yGik1JG0kefwaBkqPpyGfvqezsi8XV38u/NOPk0cr01bFvyNp/V0OPH5062mIxM7ARpKCyIukSmVAIDJo4kSR8+fmUx6Qk0lVLdTJ/bTuLrR6kYcsaOJdUC6MPfP+UspKq+Oy97EX3VSb8346u//HnbN07m6nucIoG0DCu4iymuPAln0nQ3fQwxMVasKEJ+L00V+ynctx93H9tO4mtKi8GeYMWqhS8Yd9QUUbyvAEe0/R2JXnGSR2Z9m0YD+7/4mP0tr6KNFipl+/LSI9/tlVjEqUejkl2fVfZ2GCJKndRjZhkZWR1+trKyvCdDEUII0UfJk6aFEEJEPUNzU1OPriA51ULrOnp6XUIIIU5NMjITQggR9SSZCSGEiHqSzIQQQkQ9SWZCCCGiniQzIYQQUU+SmRBCiKgnyUwIIUTUk2QmhBAi6kkyE0IIEfUkmQkhhIh6ksyEEEJEPUlmQgghop4kMyGEEFFPkpkQQoioJ8lMCCFE1JNkJoQQIupJMhNCCBH1JJkJIYSIepLMhBBCRD1JZkIIIaKeJDMhhBBRT5KZEEKIqCfJTAghRNSTZCaEECLq/T+0j77AGpqD3AAAAABJRU5ErkJggg==;" vertex="1" parent="1">
          <mxGeometry x="-250" y="49" width="435" height="175" as="geometry" />
        </mxCell>
        <mxCell id="P79QQE4CSqo_MEbkqaJE-23" value="" style="shape=image;verticalLabelPosition=bottom;labelBackgroundColor=default;verticalAlign=top;aspect=fixed;imageAspect=0;image=data:image/png,iVBORw0KGgoAAAANSUhEUgAAAaoAAACaCAYAAAD4ggzvAAAgAElEQVR4nOzdd3gU1frA8e9sSbK76b0XIqGEXkSQIsVLEwQEgStgrFHk6rUXFP2pKBawK0UFbOgFpQjYUAFBeu8BAoT0ttnNpm45vz82QEJLIUgC5/M8PGRn9px5p+y8M2fKUSKjmghqwC8gkLyc7Jp8VZIkSZLqjepKByBJkiRJFyMTlSRJktSgyUQlSZIkNWgyUUmSJEkNmkxUkiRJUoMmE5UkSZLUoMlEJUmSJDVoMlFJkiRJDZpMVJIkSVKDJhOVJEmS1KDJRCVJkiQ1aDJRSZIkSQ2aTFSSJElSg9aoE5WgKbEjPqPv+CcJNdToJfBSAyM82nLHS7P5ctFSFn+UQLSQ61GSpKo0V2Kiwj+RgQ/eg0fuXH76+GMsilJlfNSYzXSJOzOseEsiy3/afm5FKg/0/uF46IrQuQBFlznw2sZ3hUSP+4h3R0WdM1yIUta+fhvvbFLOU6r2ej+7lIe7OFj/5jDe/rtudV434kFGtQ9FWC3k5popr5fIJEm6mlyRRHXaBY6erZZULHmguAVgMLhdsLji2M6e2f3Z4/x0WUI8n5rGd6WUF+aQkaEFlR6/QC+09iLycsxYKcNYeqWjq8rf1weAvfPu44XlhaD8c+tRkqTGoU6J6vQZUeoCduR2JD4+DEfOn+z44VVSjQ5EyH8YfO94DBmzWTFnDkUMoNvzrxAu/uTvqU+ReqoiuyehQ76mRauq5dOXjyAdcOsym6H92587fRFI83uX0zZMqficzeF5g9h5stJOzrsPrQfcT0x0BBpbLqbkxez8eS55xTXcEV6kfHXxAQhdO5oNfIS42FhchJnC40vYtXIO2RXT18U9TKe+A/D38UXlKKAo9Q/2rphBqtFWo/EXk770JR5cCsL7Vt6Ydy/NClYzPfETDigKpxK6Org7ExLH0qtlKAabkeM7VvL5rIUcKHSOD+hyFxPH9aZZiBcuNjOZh9fz7SezWZfuoFXiPF4d5F8xNTXdn15Bd0CUruGN299kYy2SjaWoCDAgHI4al5Ek6dpyadeo/AfTsoUvoEMXNoTOA4fhUptrDF79ad6yLuVtlJtSseSdpKTs3B2cEHHEj5lKi7hYtDYjVnUgfq0eosfQW2tU/6WX9yJ66HTatWqFm7ochzYAn5aJdLvlFrRCINT9aDtiHMH+3oiiDMocnng2GUWXERNwr8H4SyVEDGMnP87Q9hHoykwUKj407ZHA5El9MQiB0HTnrkdH0C7CA2HKxmR3J7zNLTzy+EhChcBaVkhhoYUSqzMWW7GFwkILFksp1lrFocFF6zxWcnXVXfJ8SZJ0dbrEpr/tbHvvSdJ0CfSd9BC+ke3x43vSa1pc2VZR/i76Tpp4unxGdcWUfI4tGsExIGz4Wrq1OusLgb2JCFAjTIv568OpZLkOodt9jxIU2pkAzVLS7NVM4FLLKzHo2U/moUMkLf2ADGU0vR9/goDIzviynEx9CAYtYFzImg9mkK9pQ5NeN+FOpvPIobrxlyr6RrpEaBBJ85n01EKydT14es7TdO14PW35nfWeAfi7AVkreOn+OSS5tGDAmBsIIgctcGjefxg/78w1qo0fjD5zjaoGZ1NC251HPphAC60nAX4GynO3snprXn3MmSRJV6FLS1SWY5hKQZQmU2gFXxdPXNV1KX+0avlLbQXSe6IFKDiO0QaKfTkb3lteMfLcHWm37r34e92aOpc/h9hL+qEMgroNoutjd6BWFOf+20XnXODmNaSk3IVv5Ch6TmxJXuYxClLXc2zHaueNJdWNry7+6ngYMABK0/HM/GG8c65UAG7oNEDeZtbvH0PTloOZ/GEcR06c4Pihraz6dSPpdbiGdG58BvyCQwhRFISwYko/Smq+g3/yOqMkSY3H5bmZQgjO30B1oeFXVq128jXhl0CXwcPwNC5n41cLsVi70ObuiQRVjFaUFJLm30ZO8z6EhF2He0A7YvsPo1mHz1k16xNM1Y0/a4de1/gde77kqfk7Kg2xkGUDRUljyfP3se/67rRrFkV4ZEv63zWAW/t+x1P//ZJjtUwoZ8enWH/hxWG/INR+DHzuIxI7jmJ0n6Xs+dFcp/mQJOnqdmktSe4xeLmB4hOLhxawmimzA6YcSgG8ovDUgBIUg5cKKMymuCblK9jsziseWp0vSm2uzRQXOm9z9o7GRwPC7V9cP2klQx95iVB1DeqpYfkLxhcah6cKhPkg2Sf2YxKe6CstaRE0hHb97ybScISDq6axecFkkvNAFdiNYK/qx1+ywiKKAJW/H+oTRziS6078jT24sU0ELoBo0pd77h5DD59jLJn3Me+8/Ba/poMmuhMdAs9UU2a1Aip07nW781Gx53H0pBlFUaHRaOthxiRJuhpd2hmV0pFOj/xEJ5UvrioF28md5AEUryM1ZRIBUQO48dH2WDX+uCKwJP2JqUoFneh4vvIVrKl7MNs74xH/f9waPpFyO2T+PpJtKUPodted+ABqd1dAS/SIxYTaSkldMZZdx/4gNWcC8YHD6fFoV8pVfujctJQf3km+jepbmLJrVv6C8eWlUAS4xzzK4McTEGoFh3Of7lTui3/H0fiqRxLbI5NylS86A1B2kkILoKpm/KU6/jebU0cSETGE1+bdSJHWC09XQcayzXwJUOJNiwFDuE4zmJtHZVOo8sLfGyhOIy3/TDXJx07g6B5Hh8Sv+XqCDUfGUp594htSa9E8aDA4b6IoLamPGZMk6Wp0aWdU+b9y8FABCqWUpK1g28rFlCsKipLG4cVPcyDpMGUqL9TWNHJ2TGX979sRlXdiucvZf57yp2XMZt3KXzAXCzRe4bj7RaBzVYHaC73vmc+KosHFKwKDbzhuLqAoSez7dgqHjiRj0/ihFbnk7f2E9UsXU1qDnWiNy18ovvT5bFu7EUupFUVlJn3VXDIq31We/wUbFy8gK8+MYghF52KnNHMt+xbNIN2uVD/+EilKMt9Mnc7ynScp0nrgWpbBruXTeWXePuf6Sf+B6TOWsjutELVXEP56B/nHNvHdW5+y0XZm+hnLPmb+xuOY7VoMHu64611rfeTj5uri/F/nccnzJUnS1UmJjGpSozY1v4BA8nKygUrPUeV8xspPZlIkH9KU6ihyzPu8MyYGlaMY457veH7K93W6YUOSpKvXpZ1RKSp5n5Z0SU4sfIvP1p/E4nDDx98TlysdkCRJDc6VfYWSdM1T7CdZ+dZEVp4eIA99JEmqqk5Nf5IkSZL0T2nU3XxIkiRJVz+ZqCRJkqQGTSYqSZIkqUGTiUqSJElq0GSikiRJkho0magkSZKkBk0mKkmSJKlBk4nqEgiaEjviM/qOf5JQQ0PswOTSNPT5a/jxxRI7fCZ9xj1KyCXE5xbVi/FPTCPh+n92HgXRDH7yTd58NZEbfOp32kKEMvbdH1mydDlLli5n8ZLZTIg9Mw3dwJdPj1uydDlfPtK5Xqd/uUUNe4bJiUOI9760B9iFR1vueGk2Xy5ayuKPEoiuhx6+G6Nr8s0Up99VmDuXnz7++JzOCKPGbKZL3JlhxVsSWf7T9nMrUnmg9w/HQ1eEzgUousyBnyXq9g1c30yQsqgrmw7U/gdRbfkrPH/VqmF8QjWEHpNfIKT8F/6a9jyZ/9TbL1Se6P2c8enrsPyE0BAx4ElevK8b/hoHGzedGecW2597EobTKTYQN2sux7f/yOefLuNw0Zl5O9UD8/o3h53pgblW8bvjHxpKqGcxfnXryaVaQlix5OZgsWVTaK00vDifjIx0FDcfgn10l2fil5HGK5rOg7rToUcPFk17mQV769Y7wHUjHmRU+1CE1UJurtnZ/dA16JpMVKdd4OjEaknFkgeKWwAGw4V/oYpjO3tm92eP89NlCfFKaujz1/Dj28GeT2+pc3za+ASeS+yGvz2VNZ/O5OsNzuFC24H7nnuIPn5Qbs6nxC2IFn0SmexqYtIba87bC3Td4t/L/EfHMb+O8ddMFr+8mshXx5Uq0yhd8y4PrgFt/5dYOLHTZZr25ZO8+E1maB7g/iEtuP2ZR8mY9DKrC2q/DP19fQDYO+8+XlheeM2+YqxRJqrTZ0SpC9iR25H4+DAcOX+y44dXSTU6ECH/YfC94zFkzGbFnDkUMYBuz79CuPiTv6c+ReqpiuyehA75mhatqpZPXz6CdMCty2yG9m9/7vRFIM3vXU7bMKXiczaH5w1i58lKG5F3H1oPuJ+Y6Ag0tlxMyYvZ+fNc8oprtqHp4h6mU98B+Pv4onIUUJT6B3tXzCDVaCNg4Ap6dz7Tg2HUqK1EAaL8V9a//hzpioLQtaPZwEeIi43FRZgpPL6EXSvnkF2sVFs+jaDLOn/eN3/Pv7pGYl53Bz//kYQQrsSM/ZPOTW2c/L4PG/fbUHz60WbgfURHRqCxZ1Nw6Gu2/fQ/CqxKjZa/S5OJ3DDoNvz1JjJXr6I2XUsbun/OwF42jm9VEdqymH2LVxF863/wzp7DmgXfYUFB6NrQrP8kmsY2wYVCCo8vY9dPn5NTrCBEAM3vWUyb0ErxfTGMXRXxCf97GZCYgEfqN2zP6Uh8q0jI/ZNdi18nxSgqyhjoPXIgISobe+dO4d3lOZzekTftRFs/BY5/x6OPfUm69y289P4E4pq1oxlrKEucx6uD/CvmRk33p1fQHRCla3jj9jfZwPU8tmAKPctWMXeZDwNHtcarJJUti97hg5XHsOLPqOnzGNf0VPy5rHjuTj7dX/E54g4+/GAM4Yd+YNaJtozpFYojdT3z3n6ftRnO+A3xY3j8oVtp6V3I7m/XoU4YRYfSNbw29i22/AM7W+HWgX49nqBnRFPchYms9EUsXvMJh0sVhLiJCfe+T2frUn7Y5UfPjp1xtx5n77bn+WbfQWyKgi74ARJ6jyNWZyZpyy+ob7yHFtafmP3pU+xVFHyiH2dsl8FEe/uhtRvJzf6Nn9a8wXaTsz8fYU5mzacvUO71Kc/06sLwQTGs/uZ4refDUlQEGBAORz0vocalcV+j8h9Myxa+gA5d2BA6DxyGS23acL3607xlXcrbKDelYsk7SUnZuRuQEHHEj5lKi7hYtDYjVnUgfq0eosfQW2tUv1D3o+2IcQT7eyOKMihzeOLZZBRdRkzAXQjsVjPlxWasNmdd9rKKzyXFOAAhvIgeOp12rVrhpi7HoQ3Ap2Ui3W65BW0Nyl/u+TMmbaJECDxiuuImBCjXExihAftOMg5bnfWPfplm1zVBYyvApg7Gr91T9BzUq6In5WriU19P66EJBPt6ogg3AnsMx7/Wv/NoQptFodF3oOXQOwjU6dA1GUOT0Irle8sbtG0VX7F8/fFpcS/dBg1EKwRgp9yUhiU/9bzxneZ3C/EtA1Cp3HALHUzHmwdVlAeIo3mcC3CQjavPesdmYRElAL6xtA1zg/wVvDRuNP++5322KQrWskIKCy2UWJ112YotFBZasFhKsVaux7UzI0bF4epQofePpec9DzMkFMCGJTeDjIx08osvEn/Yzdx+oy8qxQ3f627mgXv64i4EQtWcfz98Bx3CPNA43GgxagBx/+B+VggfuvT+gGFNW+OtKsOqDSQi9iHuuWko+srbp6YX/+rYGhehQufRnE49/o+bvEHQlkF9J9LSxwuVcCOm00giKxUTqn8xvN+dNPf1RhSlY3F4Ehw+hnF97yGwUv2KUsaGtdsoFoLI5vG12zfhbPp10TrPJVxdG1/zZ31q3ImK7Wx7byBLZ35CnkOgiWyPX22KK9sqys+sVXlFyefYohGs/GgE25PKzv1CYG8iAtQI02L+emcwyz6YykmTGUI7E1CTc1h9CAYtYFzImneH8eP0RLas+4KkY5mogPxVY1nydl+2H7EjhJXUZX1Y8nZflrw31Xn9RYlBz34yD81n3bt9WfzudLIdAm1kZ3xrUP6yz9+Jv8gsAYI7EeIGhHUiwA1E6t9klDvrDw/QVNR/Zv24Nu9HcE2Wv18HAjxAFCxm7YyBLP1mOWXqGsRVhZ205XdxMBvUKR/zy5oDgDsuekCJRq8cIjPpK9a9P5Al771LlkOgjeqE76n4vh/NTx+PZvvh88R3irKT7R8MYdnnX2EWAnV4G7xPj/TAXQfYTBjNZ5VL+ZmlW80Iz07c//63fPnRNB79dzdCNc4d4aF5/2H8uDHM3uZACCsbPxjN+HFjGH/PB2yrfDajL2bNixO4K+E5VmYI0MTSvIUWRTHx87T7efCB+/l020Wuiih7+eze8dz11EJOCoGuWUtiAYLbEx8EIu93pt41nrunraH4H227icGXfRw89jmzvryRp794ncNCoA+5gajKX3MtZMvyPkyefy9rCgSoWhAT6AJeXYnzBGFZxpwvevPCTz9RVnlP6RaGtxYwf8vHXw7g+fl3sWDrXFanpnPOZmYscPZqbnCvtG4vTmi78/DM2cz8/Csm3+xDee5WVm/Nq77gVaxeElW37r2uzHjLMUylIIzJzguxWk9ca7NDOl3+aN3KX4jeEy1AwXGMNlCKl7Phvb4smfECaefpofec+TOvISXFAj6j6DnxU3oMHYKhcDfH1q7AXJNmE7GX9EMZqPwG0fWxjYx67DECFMBFVz9tvZc6f2Ir6cnFoGpLUKwW9yYdMSgKxiNrnT08n1X/6fXj4lWz9aOr6NfKdJwCGziykim8yNfPv32V47CXYbeDw1qKw175Sv8+0g6lo/gOoOt/1zLyv48QqABat3N3VBdjOYGp1Bmf2QG4GJzzDYBywctCipLHb68/xrRvVrEn1YxLSDy9Rj/HG0/3w7tWR+3ppCRbUWwH2PTnFrZu3UaqxbXmxfNPcqIYbMdSSHcAOj0GAF9PPAEyj3G0HMoPJZNei6hq69z1t4fdx9JReQ0h4c6dvJfwjDOBuuioOncnSc8tR3HsYPehtew78RdZ5a6g93XOhzmJFBtYsw9Q5Zy26A92pheB52gSx3zJg72H4Veyk43blpFxwd+ncsGrfOfGb8AvOIQQf3fU2ChMP0pq/rXd9Fcv+62/1625ouPPIcQFLklcaPiVdfb8KUoKSfNvI6d5H0LCrsM9oB2x/YfRrMPnrJr1CabqLmz7JdBl8DA8jcvZ+NVCLNYutLl7IkGXcR4u5tz5s5J5ZBuO+B4ENrmJYO9YhDhG5uE0rsRNEbXevvzG02XQUDyNK9n09Q9YrJ1ofdcD9bx87TgcgKJBfZ5Fotiz2Py/99j8P3CLupVnp95Lm84D6OWziqUFtZ/aru9eZtclx3xlnLP+vO9hwk0jCClYyvxl35Jt78qw2x4m7iJ1JG2bRNKpDyEXn56inOD3pYM5En0zLYKaEujXgW433kbv5rN5+38fVO2hWqWpOHixY6th/Ir1F14c9gtC7cfA5z4iseMoRvdZyp4fzz61vnY07qY/9xi83EDxicVDC1jNlNkBUw6lAF5ReGpACYrBSwUUZlNck/IVbBVH0Vqdb8W1kRoqLnTeRuodjY8GhNu/uH7SSoY+8hKh6hpcowoaQrv+dxNpOMLBVdPYvGAyyXmgCuxGsFel+KxWQEHrdlb7dWgcnioQ5oNkn9iPSXiiP8+avmD5yzx/ALbDG8hxgGvIKCJC1WDaRPqpw9Zis/NaSkX9p9dPuanK+rmgkorbeL2i8daAKqgJHrWbw4sLua5i+R4iO+UAJs6/fC9NPgUmQB1CeETVMequk5g55zM+eqIf3ghK0o+TXQagQ2c4870yqxVQoXO/TPeWX0i+GTNAcAyxLuDSrAmh/+DklYBmBCtgL9rPoYy9ZAovPGtz/FOc73ySwDOOSA1oA1sQWGm08L+VEd3up6Mhid83vsIXK57kbyNo/HsQ71m1Kl1UGD6AzWiktmlGsedx9KQZRVGh0WirL3AVa5R3/Z2mdKTTIz/RSeWLq0rBdnIneQDF60hNmURA1ABufLQ9Vo0/rggsSX8624tP60TH85WvYE3dg9neGY/4/+PW8ImU2yHz95FsSxlCt7vuxAdQu7sCWqJHLCbUVkrqirHsOvYHqTkTiA8cTo9Hu1Ku8kPnpqX88E7ybVR/0lDui3/H0fiqRxLbI5Nyla9zB1R2ksJKj2MUZB1FtIonZNCvDOtrBeN3rPp0FoV5KRQB7jGPMvjxBIRaweHcZ1VxwfKGYZd3/gCKV5OZ/iRBYe0IUKBs/3qMp45Es1eTlptAi4Dh9Hi0OzaNc/2UHvqDTEDob714fCd3kmsBT+/h9HysO3ah5YKHs3WRl0oxYIh5hEGPjkeoVVWWr9APoWvCOGd8hor4hv2PUHsZqSvHs7tGj9QcZOvOAgb2i+Lmcf349Y1V5Dmcy8d24DCZ7v1p2/1hZrW9gyKVN77uCraTW9icdqaG5GMncHSPo0Pi13w9wYYjYynPPvENJ6uZsvDuzzPTbiMacPVyAby56fE5dLSWsemTSczNr6aCzB3sz/430UF9mTy3PSVo6nf5V0OYUsgDAsKf5sWEe3GoVdisUON2WdNGDpsnEuo1lPsmdKUMLVQ+QLL6E9v630SqxtC1YwbFii8+eqDsBFmVnpUT+njG39oeDTb2bN+GtQ53OxoMzoPI0pK6PYd1tWjcZ1T5v3LwUAEKpZSkrWDbysWUKwqKksbhxU9zIOkwZSov1NY0cnZMZf3v2xGVN5bc5ew/T/nTMmazbuUvmIsFGq9w3P0i0LmqQO2F3vfMZ0XR4OIVgcE3HDcXUJQk9n07hUNHkrFp/NCKXPL2fsL6pYsprcnGmv8FGxcvICvPjGIIRedipzRzLfsWzSC90jUgy6Y32XnwKOV2F1z0nmhdXZ2/xfT5bFu7EUupFUVlJn3VXDLOs6O4YPnLPX+AouSSlnwERaUCishM2lpp3CH2fjuFpKPHsWl80Diyyds9nb9++tO5/qqLz76Rvcu+JDO/EKEqJ3f9t2TWZxN/xpdsXbsZS2k5ispMxu9fkFl5R6b2RO8ThrtveKX4wjH4hOLmUrNJKIqDrd/OY5PRjk+X//D2W09yc5TzbFUp+IUZU+exLimLcjdvPFVmjm9dwtuvfkFypaOEjGUfM3/jccx2LQYPd9z1rjU7MtVUXCMJCcVX74zf3T+U4OAQfGpwcqY4DvLNB9+wM92CXVXGoUXL2f9Ptrlnf8q3WzaQU2ZFozJzYMMcDtXkTLyCwk5W/vEJB4xmhKqME9sWcLTyFwo+Z+5vX3HIaEKjC8PbxU5Bzmp+/u1NdlccTHh3Gs/LM15icKSG0qP/Y/6v1WX383NzdW4wbrp6bRNodBplV/Snn6PK+YyVn8yk6Bp9CE66+ilB3Ul8ahI3x+rYPH0ob/zV+LZ14XkLU+clEp+/nGfumckhRUGIUP793ixuj7adfjPFr69NZnGKc/7cev2Xd8a2PP1misI//o/x7225MvG7jeWRhGe5zvItM76cyvEa7G9i75zJ28MDyNw4j7feXUZyad3WW+SY93lnTAwqRzHGPd/x/JTvq14Du0Y08qY/VQN8H4Ek1R+RtY5PHtvE4nZ9iDZV//2GQnjfxKSnBhKKgiEolmi1Qt7OrVXPTABF0eIREIq7wHkd8tRwvS8hIf/kla2qhNstjO0/iiBU6DybE6ZSKEj968zLAqph3PEdb6zZwqZjhVVbcWrpxMK3+CziWcZ2CcPHv+Ju1mtQ405UknQNUBQrWbt+IasxHZa5+hPbsiUxOLBacklas4TZn2/FVrHTVpR0Fvx3CAuqFDozfyU/TWHYT/9oxFVpQ4gMbU84AltZJscPfcnC9WtPx1+d/N1/shEu+ZVHiv0kK9+ayMrTAxrRNlCPGmXTnyRJknTtaNw3U0iSJElXPZmoJEmSpAatUSUqv4DA6r8kSZIkXVUaVaKSJEmSrj0yUUmSJEkNmkxUkiRJUoMmE5UkSZLUoMlEJUmSdAnconox/olpJFx/5pHUqGHPMDlxCPHe1+YDuvVNvpmiloSIJuHjDxhWMp97Hz/AqM+n0T91JrdPMfHY90/TfuMbjHl73aVNI2gk78y6k5jMpTyROIejZz2NLvxH8NandxF39nCxlQ9ve5Hfz9N54dVELp8rRwgvHpx6C6NLdnD7q9mMm96foemb6T+9lOdn9aTzjrUMnFXd+9mrmYZ/S+ZMa0/T7P0kPrudpLPXo08LPnmrAy3PWb9pvJn4Bz/9Q+tXCA0RA57kxfu64a9xsHHTmXEar2g6D+pOhx49WDTtZRbsvbbffn6pZKKqtXxMZsDLE0/FHx+9DZuPDwE6BwYNmIz/XJfRwmohN9dcqQeFfIoaYs+QV4hcPpdDCfkWwMMVL0WPn5sDq5cbwW7O7b+goOQfi0RYy8jKL63UA0cRln9w/WrjE3gusRv+9lTWfDqTrzecGZe8+E1maB7g/iEtuP2ZR8mY9DKrC+QBUl3JRFVLimKmwGSDMHc8fX3xMWaT4+VLgGcpBsBkzAVAHdydOxPH0rNlKHpbHsmbljBnzo8cLVEQojOPLZhCz7JVzF3mw8BRrfEqSWXLonf4YOUxrGdNU2iv57HPXqCnZx4/v3AvMzMqRmT9zNSJc896m7Pzb+HRkhGJ9zCoXRSeFJK29xfmzVzA7oofixLUlQmJd3BTfBj68nxO7PqJ+XMWss+knI5/QuJYerUMxWAzcnzHSj6ftZADhRf/sQkRwfgPP+Y2y+ckPLOTYZ+8zy0pM7j9dSMPffUKXbe9yh3vbrpml49zGbXl3vcfotPZvb4fX8yzr6+koJr3uZ3uPSD1K7Zld6JV60jI/YOd379CirGiKxCffrQeeB/RkRFoHXkUHPmeHT/NJa+4Ca0nfkeLkvdZOnczzR76iricl/j+f3l0evIDwo88yZIlF+7xWFHKKTA7IEiLt7cBX5OFLA8dgR423AGj2dk1qTowggf+3ZZ+TT3Q24s5smM/7y1IIqnU+eb05z/qTb+yI3z0m47hg4PxKjOzYfl63vyzwNnpZeX51Yby/Ju96edRzNK3l/BOVsWInMNMfn7HWWfUFevX4M/YcXYNTSsAACAASURBVB0Z1tIbb8pIOXSEmV/tYbu5Yv35h3P/HW3pF+eJwVpM8oHDzPpmH7sq1p86MILEivjd7SUc3ZfEx1/tY09RRf3CQO+RAwlR2dg7dwrvLs+h8rsKhTmZNZ++QLnXpzzTqwvDB8Ww+pvjVecrbAivvn43sQUreO2xOey1yUR2IfIaVR0YzYWgd8c90A+fgpOcVPvg5+2BAYGxIA8hYhg7+XGGdojC3WqmRBNA874PMPn+Lmgr9xTs2pkRo+JwdajQ+8fS856HGXKeF0YHDR5JN0+w7fuBRbvP3k2fSwhP+j48hTt7NMNXa6Xc1Y8mXcfx1IN9cRcCIaIZO/kphneMxt1aQJHaj7geCTz7cH+8hTgTf/sIdGUmChUfmvZIYPKkvhiq7ek4g6xsB/gHEqSEEOxjQwkIItAtmEAPyMlOv8aXD4AOn4r+nir/C/Y31LhvPwD8htIqPgAFHW6hQ+jY/xa0QiBEHPGjX6ZZbDQaqxGr4odfq4foOeQWNOIkFqMdPIMxKBG4e9jAKxS9NhS9DooLUqqdbH5hKejd8PRzw9ds5oRaj7+nKx5AfkEJQnhx96TujGrtjcFWSonaQHz3Lrx+RxgulZePSzh3DPbHzaHg7uNLv7FdGRl07vRCereilwdYk/bz9YHqOxYTwoVBd/XmgesDCNDYKXcxENexHf83PgZPIRDCi4T/9GB0Gx88bCVYNHpaXt+BV+9qgm/F+LsndWdUKy8M5aUUqnS0uL4DryXE4H46/jiax7kAB9m4+vzvQFWUMjas3UaxEEQ2j68674CudWdae2nRRXamfcR5q5AqyERVB8YCE2jc8Qz3RW88RrrZB59IAwYKMeXbIfpGukRoEDk/83LCBBIe/pIku8Dnhp60q1yRvpg1L07groTnWJkhQBNL8xZndTmtjmf44BZoMLJ64UryKh09KuEjeXfZCpYsXc6SpctZPKU/aiFAicBfSWLXlkW8dvcYxt09m70OgSG+LU0BorvTNdIZ3ysJCdz14AdsyLUgYtvSUsuZ+JO+YNKEO7nrnun8XSgwdLyettUsG0WxkZlTAD7+BAaHEpiTQopPIMGhgfjjICsz45pePs5ltJG3Rw9h2K23VPk3/IlFVeKvvqLtbHtvAMs+n4dZCDTh7fABCOxNeIAG0j7hp+mDWDpjCinFAu11PQlWrBSZjeAehME7HIPpKGb3ENz9QjBgx5JffUcWeYXloHbBM9iAwZRPmkWHX4gWA2UYTQ4Ii+TGUBUi7xDPPP4Dw1/cyX6HwLd9FJ0qV6Qr57cZ3zPi8d9YnCVA7Ut87Fm7JHUAY/oFoKWYX1ckkVN5/Ya24rPPx7P6s3Gs/mwcfz7SpGL9ehKg5LFt5x4mP7mQIU9sYadD4B4XTHOAsEh6hJ2KbzG3PbuBtflliOgQ2mo4E3/yDiY8+gMjnljHaovAvVVEpfg9cNcBNhPGi/Uxbyxw9ipucMf7rFElm37ll4MnOLZxOWtOVLvYr2n10vTXrXsv/l534eaCq218vskMeBAapcaSv5oCn38RGOmODhPGfMDTgAEg+yTJVnBkniCjFJrq3fFUU6lb63RSkq0o9gNs+nMLAU0h1VKpPci/H8/M7ouPP9iSlrJoh7XKa/7PuQaTV4QDQBxi88Zs2gzvw+Pzh+GqUpzF3FzRAXhUjU8x/c4b9/xeUYlyerzSdDwzfxjvHKoCcEOnoWq33OdZPmlZWaDxIyA+GL/sfWzQRRIS7YIfRrZnWs+Z/rW2fGrrguUtxzCVgqM0GZMDPFzc0QLoPZ3/hz7A4MmJleLToVFDnjED1IHoI8PQF+zkZGATDIFadOSTYSyHs7oTOXv6eeZSwJWwMAWLMZk8r+sIDnNDTynGAsDdBXfnFzliBUdOAWll0MLNDa8q69fCsRQHij2XdRvSCIqBlJJKuyTf63h5Wiy+vmA9eoiv9zqqrl9bGdl5pWfWb0HF2bTIY/32QtoPaMLz01viplZQKYCrFj3nxqfYjjPlyVPNcsrp8UpMO76e7Tx0UqkANJXWr+JcTDW+Jqac00mLYlzHJ0+vOz1eurB6SVTV/QivtvGFxgJsBBMR6YZxZzLGAB1twg2oKcCUC3hetLrz2vXdy+w69aGi+UPRuhMQ4Py7rLSUsrMLGf/gzcRZHK58FK4oEDaS/07sT0TGKt6dspz0svbc+dadtK5lTI49X/LU/B2VhljIsnHOb+rs5ZOXmUM5rQlvacGW+ytZhk7EttTgQjZZaUAdmjmupuVT22tUdU1yjuMz+f33jZWGFFJkh3JjOnY64hltxmFeisWtG75RWtRkYDnPvUBnT99kKsGKOzHhavIPFJBfqKVjiBYNpRiN4MwCtbPtx9VsO/XB3/mfonUl2M/5d2m59dz1W3CUl57dxoGz129wPM/dGUd01hFem5HEyfIQHpjcnva1jMl+cCcTF2VUGlJO5un1a8fhABQN6ovlGJWmojnXXummHqm2ZNNfXRSYMaMjNNSTAmMexoISQoKDoMxIfhFQWEQRQGAETbSgCo4ixA0osWC2X7zqykTGEh4fPZV1ZoFLm5GMbqOtvhCgXBdDhApE3lF27TtCCh74VF7T5iIsAEHO+IRHTx6d+QWff/YYXTXidPwqfz/UJ45wJNed+Bt7cGObiJr1MJqRSS4exMUFkZ+TRHaeO3HNfKE4m8wCuXzq7RrVhRSbsQIqT3+U7AMYTZ74t7yZiOgYZ/356RTjjX9YKCUF+yk2eeEf7g/lGViKalC/uQwTWsKC3Mg3FpNnshIaaICyYnKLAUu5c/n5eXKdFlQB3oS5AqWlmGqzfrP2cf/E1fxZKHBtEc+EFjXbXSlRvkSpwF5gZGtSPsdwwbdyUYuVQgB/Z3xCH8nk14fz/Vs30FMtTsev9tWhScvnUL4LbTtF0buFF2e2sHwKTIA6hPCLHHjposLwAWxGIxdrIZQuTt71Vxf5RkzoiPAxk5/rIM9YQGBgJBi3kgdw/G82p44kImIAU+ZdT5HWCy+1QsGmv9hZ22mV/M23y5PpOrYJ/cbewg+7F1Nd95UiNYMsIKTNfcycfzsODVjL4PRe8MQ6NqbcRmTUAF6Y14FClQ++Bi1F2/Zx0Fo5/iG8Nu9GirReeLoKMpZt5suaxJyWTY7Q0CrEny25OeR4WAi7IQDS15Iml8/pa1Rvn39kzef9QrJXk5abQIuA0fR5tA82jS8uWoFl01r2AOSlUyQ0BPoEkm7OoFhvxr1FMOT/4tyBV8dUSgFaorxK2ZgvyAssI8jPC0xp5AKkpfB3RiuiQ5sxbXoExRo3vFUK+TtS2FrbeSk9ybw/8ukx1JdBtzZjwYEDZFZTRGSayCSCsBad+HpGK4QGyiuv37QTrEuLJya8GdOmh2FW6fDXqyncnc0+W+X4W/Du9EiKNTq8XAWpv6Yy+/RUDrJ1ZwED+0Vx87h+/PrGKvIcZz3XpY9n/K3t0WBjz/ZtWK/R3nnrgzyjqotcE2Y0aDQF5OdCToERjVYLpnzyAUVJ5pup01m+8yRFWg/0tjySVs9i6qyNddpYTy5dwIZC0LQcwehONThmP7KQmd9tJ8NiRa02s/2LheyqdDOcohxnwWvT+XFHCkVaHwwOI4fXfcG093/GqCjnxO9alsGu5dN5Zd4+RE3iL08n2wRqjZncbAcZOTlotFoc2ZlkyeVz2SnKIfZ+O4Wko8exabxRWVPJ3DyFtat2OhOhLZWiYlCpTRQbHVgKMlFrtIiCdIprMoH8Ekyo0GrKyDNCprEEF60azKXkAopi4rMP1vH9PhPFGlf09iL2b9jC5K9TKa/D8jn+yx7WWkDbtAUJbWqwyzq+nxk/ZpBaZEerLmPTor1sq9Tupigm5n24joV7CyjS6HB3FHNgyw6mzD1KnqKcFb8bruWFbFu1jmcW5Zxev4riYOu389hktOPT5T+8/daT3Bx15oKVd6fxvDzjJQZHaig9+j/m/5p/TpgiPpHPlvzI4kWvMchbPuB3MY2qK/qGEIMkSdIpSlB3Ep+axM2xOjZPH8obfzkTWeydM3l7eACZG+fx1rvLSC49N0GH//t9PhzdhMJ107j7zb/kGddFyKY/SZKkOhJZ6/jksU0sbteHaNOZ4cYd3/HGmi1sOlZ43rNsITxo3zIKIbJZu2K9TFLVkIlKkiTpEiiKlaxdv5BV6XbP/N1/stE58vyFtO1pFafCkfwbK/Y56ufa5FVMJipJkqR/mGJby+u3r634IJNUdeTNFJIkSVKDJhOVJEmS1KDJRCVJkiQ1aDJRSZIkSQ2aTFSSJElSgyYTlSRJktSgyUQlSZIkNWgyUUnXPLeoXox/YhoJ1595m1jUsGeYnDiEeG/5jIskXWnygd8GSASN5J1ZdxKTuZQnEudw9KwHAoX/CN769C7izh4utvLhbS/yu/3q2Ln2f+jfPNNe8Ocn3/DytvqfJyE0RAx4khfv64a/xsHGTWfGabyi6TyoOx169GDRtJdZsNdS79OXJKlm5BlVIyasFnIy0smo+JeZmU+RfAlzjWnjE3gusRv+IpU1n07h8w1nxiUvfpMZy/ZT4t6C2595lJvk260l6YqRZ1S1JEQE4z/8mNssn5PwzE6GffI+t6TM4PbXjTz01St03fYqd7y7CXVwd+5MHEvPlqHobXkkb1rCnDk/crREQYjOPLZgCj3LVjF3mQ8DR7XGqySVLYve4YOVx7CePU3t9Tz22Qv09Mzj5xfuZeapTkezfmbqxLkcr3Jm5fxbeLRkROI9DGoXhSeFpO39hXkzF7C7oKKbgqCuTEi8g5viw9CX53Ni10/Mn7OQfSbneHVwdyYkjqVXy1AMNiPHd6zk81kLOVBYszMbdWAEif9uS7+mHrjbSzi6L4mPv9rHniIFEdKaea+0IfroPt5NDeHOGzwQGSeYOXsTv2VDuzuG824fw+m6+kwcTx9AlCYzZeJ61hLG8x/1pl/ZET76TcfwwcF4lZnZsHw9b/5ZQNSIIXx6izemv/9g2KdpOHBhxBMjebiFg7Wz/8eLmwVCGOg9ciAhKht7507h3eU5VO6aV5iTWfPpC5R7fcozvbowfFAMq785XmUeRdgQXn39bmILVvDaY3PYa7s6zmQlqaGRZ1S1lkFWtgP8AwlSQgj2saEEBBHoFkygB+RkpyNEDGMnP87QDlG4W82UaAJo3vcBJt/fBa2odGTu2pkRo+JwdajQ+8fS856HGRJ67hSDBo+kmyfY9v3Aot1np7FzCeFJ34encGePZvhqrZS7+tGk6zieerAv7kIgRDRjJz/F8I7RuFsLKFL7EdcjgWcf7o+3EGfibx+BrsxEoeJD0x4JTJ7UF4Oo/sxCCC/untSdUa28MJSXUqjS0eL6DryWEIN75fLB1zGhsw6VosUvpin/HRODpxDYysoxW8ootjq/W15ShtlSRmGxrWoSdwnnjsH+uDkU3H186Te2KyOD4PCmFE4IgWfLcNoCuITSMVYF1iw27HJUFI6jeZwLcJCNq8/fdYyilLFh7TaKhSCyeTwuZ827rnVnWntp0UV2pv1FenmVJOnSyERVS4piIzOnAHz8CQwOJTAnhRSfQIJDA/HHQVZmBkTfSJcIDSLnZ15OmEDCw1+SZBf43NCTdpUr0xez5sUJ3JXwHCszBGhiad7irO7U1fEMH9wCDUZWL1xJXqWzJyV8JO8uW8GSpctZsnQ5i6f0Ry0EKBH4K0ns2rKI1+4ew7i7Z7PXITDEt6UpQHR3ukY643slIYG7HvyADbkWRGxbWmo5E3/SF0yacCd33TOdvwsFho7XO3f81QmL5MZQFSJ5BxMe/YERT6xjtUXg3iqCTlUWZjYfPfU9t72+h2NCoG8SSFNg76IVDH1kIe/tEQhhZ93c/zH0kYUMfXIzGyufPerK+W3G94x4/DcWZwlQ+xIfq4K0Y6zLALxC6NYENPGhtHMBa9JJ/io9VdgDdx1gM2G8WB/hxgJMAAZ3vM8aVbLpV345eIJjG5ez5kRNFowkSXVRL01/3br34u91a66Z8WlZWaDxIyA+GL/sfWzQRRIS7YIfRrZnWsHDgAEg+yTJVnBkniCjFJrq3fFUA/ZTNaWTkmxFsR9g059bCGgKqRbXMxP278czs/vi4w+2pKUs2mGt8qZlYbWQm2vmdOeleUU4AMQhNm/Mps3wPjw+fxiuKsVZzM0VHZwTn2L6nTfu+b2iEuX0eKXpeGb+MN45VAXghk5TOf4LcHfBHVBi2vH1bGdqVqkANM7yp5gKOFoCtpQC0hwQ7eaCRzVVV2XhWIoDxZ7Lug1pBMVASokGRSlk1bYC7hjiQ+e23mzyCMaAYMeukxSdXn6Ks6WvxpeeFM5u2FOM6/jk6XVn6pMk6bKol0R1sZ381Tg+LzOHcloT3tKCLfdXsgydiG2pwYVsstKAOjQD7fruZXad+hDk/E/RuhMQ4Py7rLSUsrMLGf/gzcRZHK58lqEoEDaS/07sT0TGKt6dspz0svbc+dadtK5lTI49X/LU/B2VhljIslHjfbL94E4mLsqoNKScTNsFv35Jtv24mm2VPidvSuHYLd5ENbuOHno9iBw2bCvjTPB2HA5A0aC+2PyoNKgrvn+ZQpckqRqy6a8uMjLJxYO4uCDyc5LIznMnrpkvFGeTWQAUFlEEEBhBEy2ogqMIcQNKLJirOxupRGQs4fHRU1lnFri0GcnoNtrqCwHKdTFEqEDkHWXXviOk4IFP5TVtLsICEOSMT3j05NGZX/D5Z4/RVSNOx6/y90N94ghHct2Jv7EHN7aJwKVyfP7dmPjGR8x4bhgx6kqnJpZyLIDaV4cmLZ9D+S607RRF7xZe1GwOnMqsdkDBoFfXolSF9OP8lQpKZBP6BoM4kcpfBZW/kE+BCVCHEH6RAwtdVBg+gM1o5GIthJIkXT7yrr+6SMsmR2hoFeLPltwccjwshN0QAOlrSQM4/jebU0cSETGAKfOup0jrhZdaoWDTX+ys7bRK/ubb5cl0HduEfmNv4Yfdizn/pf8zRGoGWUBIm/uYOf92HBqwlgGn9vcn1rEx5TYiowbwwrwOFKp88DVoKdq2j4PWyvEP4bV5N1Kk9cLTVZCxbDNfVpqOrtMA/tU8CiEG0TN6MceOnlo+Kfyd0Yro0Ba8Oz2SYo0OL1dB6q+pzK7FrCelFmC/3p/rx43ix5EORPYB/vPqHo5XXxRFKeT3HUYmDPXFAzi8+ySZVe6OPMjWnQUM7BfFzeP68esbq8hznPVcmj6e8be2R4ONPdu3ye7CJekKkWdUdVGeTrYJ1BozudkOMnJy0Gi1OLIzyQIUJZlvpk5n+c6TFGk90NvySFo9i6mzNtZpZ3dy6QI2FIKm5QhGd3KpvsCRhcz8bjsZFitqtZntXyxkV6Xb5RTlOAtem86PO1Io0vpgcBg5vO4Lpr3/M0ZFOSd+17IMdi2fzivz9iEqxV+yZwu780spPrGZnamV6zfx2Qfr+H6fiWKNG67lhWxbtY5nFuVUKV+dtN82M2t7ASa7Gg93VzzcNLU6sjq+MYVkIRDCxKZtVc+HFMXB1m/nsclox6fLf3j7rSe5OerMWaF3p/G8POMlBkdqKD36P+b/mn9O/SI+kc+W/MjiRa8xSD5nJUmXjRIZ1aRGvzC/gEDycqo7lr+8GkIMUuMhotry9QutCMveT+Kz20k6T5JUgrqT+NQkbo7VsXn6UN74y/md2Dtn8vbwADI3zuOtd5eRXHpu2fB/v8+Ho5tQuG4ad7/5lzzjkqTLRDb9SVet2PbhhCsKmXtOnjdJAYisdXzy2CYWt+tDtOnMcOOO73hjzRY2HSs871mgEB60bxmFENmsXbFeJilJuoxkopKuSkK406udN0IUs3ln1bdOnE1RrGTt+oWsSt/J3/0nG50jz19I255WcSocyb+xYp/jwt+TJOmSyaY/SZIkqUGTN1NIkiRJDZpMVJIkSVKD1qgSlWz2kyRJuvY0qkQlSZIkXXtkopIkSZIaNJmoJEmSpAZNJipJkiSpQWuUiUpo+/N/S5axaMFcpk3sSWDNOxWSJEmSGplGmaigiLwcM3Y3f5r96yHGda1N5xGSJElSY9IoE5ViXcd7947j7dUWFMWAb4D+SockSZIkXSaNMlGB89VqoqLFr6S4+MoGI0mSJF02jTZRAbi6uiKEHa3W9UqHIkmSJF0mai9vn5dq8kW9wUBJcdHljqdWCh3+dOwQS1yXW+jf+2YGdNKy48/9FMo3WUuSJF016uWMqlv3XldkvCXrBBnGUoRKh29IKMEBntSg/1tJkiSpEWlU3Xycrcuj3/HsTQaSFz3CM18eofwifQ5JkiRJjVOjvkalVqsRwk5WikxSkiRJV6tGnaiKS0pQFDU6ve5KhyJJkiRdJo02UQmhwkWrBkDrIu/6kyRJulpprnQAdSG03Xnkw0S6BXoghImMVPOVDkmSJEm6TBplogIDfkHeaEpy2LdqFl9tdTifAJYkSZKuOo36rj9JkiTp6tdor1FJkiRJ1waZqCRJkqQGTSYqSZIkqUGTiUqSJElq0GSikiRJkho0magkSZKkBk0mKkmSJKlBk4lKkiRJatDqlKiEtj//t2QZixbMZdrEngRSo2eGJUmSJKnW6nhGVURejhm7mz/N/vUQ47pq6zcqSZIkSapQp0SlWNfx3r3jeHu1BUUx4Bugr++4JEmSJAm4hGtUigKiosWvpLi4vuKRJEmSpCou6WYKV1dXhLCj1cr+oCRJkqTLQ+3l7fNSTb6oNxgoKS6qMqzQ4U/HDrHEdbmF/r1vZkAnLTv+3E+h7HJDkiRJqieX1B+VJesEGcZSwsP0+IboEXZPXOorMkmSJEniEhNVx2Hj6RJuIHnRIzzz5RHKUWQHhpIkSVK9uqRrVGq1GiHsZKVUJClJkiRJqmeXlKiKS0pQFDU6va6+4pEkSZKkKuqcqIRQ4aJVA6B1kXf9SZIkSZdHna5RCW13HvkwkW6BHghhIiPVXN9xSZIkSRJQ55spDPgFeaMpyWHfqll8tdUhb6KQJEmSLgslMqpJjd4o6xcQSF5O9uWOR5IkSZKqkN18SJIkSQ2aTFSSJElSgyYTlSRJktSgaTw8PWv85dp8V5IkSZLqgzyjkiRJkho0magkSZKkBk0mKkmSJKlBk4lKkiRJatBkomrgBB6ENOtMm/bN8FHX6NlsSaoxuX1JjcEl9Ud1uQihIbRdL2K8bWTuXE2ySUEIPZEduxLhYSVz93qSjfYrG6M6ktbd4/A669VRxSmb2JFcj+8+1Ljj4avHtcyEo573I0J4EHNDF0LdTCSv30ymTb4Gq6ZUQe25obkf1oztbEnKR2giaHVjM7zKUti94RCWxvJKsYtsX9VtH/W5/Qh9E9p3boLecpTtW5MpvcTlJ3xbckPrUFTZe9m4PwPRWNaHdF4NMlEpio0CYxGKjwcePh5gsqANakqoh4I99zAp+bYr/25BDz16wGEtpdTqqBgoMJuL6nUyii2DpA0Zpz7Va90o7ri5AlYLJdb6r/5q5qbXoSgKpcUV69vg3B4oLqb4SgZWSxfdvqrbPupx+1Hp3dEBjuJiyupezWmuegMaRcFSYpZJ6irQIBMVQHF+HqUx7ug9vdGgIiI6ALUo5PjRdGyKghBaPMObEhkWgIebCnuJiawje0kxliMEBLbqS1N/B1l7/uBovoI+uhvtow2Yk9exJ6XkkuNzcfdAqyiYTmxmb2rtflpC+NOsRzu8ck+Q7xmGd8E+jpTFEBeuIWfvJo6b7KePCDUVPzKRs48Ne9MQioIQ4B/fh2YBNrKOHEcbGoOXix3zyd0cOmHCjnLR+d+d5ker7s3xPvUDdgmnVe9wAExH17L3ZBlCaPAIiyM6PAB3NxX2UjM5R/dxIrfEGYPKg+Dr4gj188RNq8JhLcaUfpAjx/Ox1WDHINATGBdPVIA7SlkGaQU+xIS7Yzqy9v/LO9PfNo4zDj/DJbk7uxQpHuKlw7IOX4Jby2hiJ26K9j/PpyKwYaiBZTRBm1qwLcmydVAQd3aW1/TDro5INncBRoABvR9IgSMN5/39npdzERCb70MMkvqdh9yqewi9y3anyu0597x9jP/XHcaAKyXGDAiUBgRZWSAvBKHyGSKoPfiyPyMhYn1XuDXbYMrJMNDHfPrtNW8PdOzxOL7H8/OmU56ML2tuLB+vdmYm50e4NO88ZH7GRehd3h+6ZITAD/xUE0uSfo50MWZIyAz3vlm8qv8Y/l69C8fWV/T3SXxeb/3ctPh676hO9ukMQBRLlJvLNCQE739hNwBjDN7COmsrbUo29AeQcyvMrd2jmjGAi5QCCAj86PelY2PMiFBNPkkBuK6HMX1G3ip//v4fPP3uKatNF2FSnM85Ho4Fotygamex6/dYanvkcx61WgGAfDZDLwhQ4QCAMFQXCthBOhlAUJm/TSGfIZuTlBdXqFkk529n4ULfo75GKYVSXU5OdKzvY9ZW2xTzMOgZsrJM+8F9alb0QT29ss5yaxorPOLg0zEDy6OyuMbsVHL6xkBx6RErrRL5zAiTbzHXcDBmQKg0xkBhcZ2VVpG8iNrnG3mMGaCVTuF/ujBWhVt/+oEnf/2B++0CJo13xPp6kb6nGyo3/uehOvAT/THG4M6vs7Y6R8k5H//sgwfUcin4TuJnUr4S+PhD+Fl+zHJz6tzflsSY0fkOdZxvifplcWUOGFJsLX5G//H8JfuXhs/rq5+bGF/tjgqO6BwOadSnmVtwyPQ+sLXViYupQnu+SMYc8+b5C3bCIktPvqXlFPAc2Pc9HAmYgDAEcLBdC1BoZZj0jMuYPJ4XSVeqVegjsPJTzCzfZv/DJkdJHUiJA/R2/8Vv1iMeVvf49bXh7l8WGfX7APQ/brLxEXKz3/Dt6jRhcPFAKc6PAR83/8lWt8Lq9+vUc3myOWA4Pn+htnj9fAu58JTHS1Oo7Q1+3urGfQsQkb5W7wO/PH/FwSBH69HfGdamzAAAAu1JREFUWZqWSAfwS5QreaDDu5832BsKcl6VKdugdQoBRYVG00WYY7ZevGBbV7nzbJ0ZfHQAUKbRdhGmy7uXP/FWN7j73UNqKHoBIKpj/T9IefZWuHWfuYoDQLldx9s+SXls50U6jLpoDQaBlDbG9AlUCNTG+zOqMrtQwjrLXzK7/oR5z8WVwGB8fvv5BH4m5CuJD8GE/Kga9aYDV/zXBGpEYn2KBP36BaQb6b/36nP6J/GXVF/p+Ly2+rmB8dVOVEJA5/AYU68g5ZDOr//haBQDLKcp5IDuPkc6WgVHj316PcB2sTNA4BMYADcChIDgD9lQDTn870u6mRH6pENIm/vP1qhkc6kEzbouWQydro9dtzF+l8Cp4mA4CH7/Uek4TrxSCzkr4JyLnQV6+xyejIARkTQ9Bv30+Ud9G8LLq9hTfWlw91kjek0AaEIdP6sRwimz9PRvNJWPOv7E3vt3qDQX6hf8Owxi/wRg4vE5RbwcoPY58A3QY2gutCf5nzKk7Zz9PAqC9HcjjoeTAXxFJGch3mEpAkWyP5fyFyJgZ+NHdgAQifllp8fzMzFfv2v7DB9J7Un8yCKexVX/Ueg0K4Uk/SwXaafX/+z9T/lK8i8tn9dVPzcwvtqJCmBw0iGggqu3efshugsAwHVxAHN68Sq86FJ34EeXumWJBFAKDZAt4OSA0CdIsWBLCiGG6JOjqG8EYKKnfo8wxYZNOh6g0YGDdAX60Mf2FhCEhBd2fMaAI/NwttI77SDOz48v7i0XJwv0FMEQKCbnb0wWW2aBHvqyKLG+4e5r/r3dPX/d9AmHIETIzuZP6GaT8lQJt1SkNl+hNm2x8fJN4je2Mpf9sz2kBWgVTaxOtCMgCKLxWxL7dPyGZP9T+tvZ26ZbaZEPP7H1v12Gae8G3Ehfc6qviHdYQ0WgOdf/S/5cHv+V/sfnl8SPbEzIFwl8JLUn8PNF/3sKNbzyVsn6XA7pYsMX9U/kL6m+ptLxeV31cxPj//RIFrhiVGaZAAAAAElFTkSuQmCC;" vertex="1" parent="1">
          <mxGeometry x="490" y="310" width="426" height="154" as="geometry" />
        </mxCell>
      </root>
    </mxGraphModel>
  </diagram>
</mxfile>
